M48
; DRILL file {KiCad 9.0.0+1} date 2025-08-24T22:54:44+0800
; FORMAT={-:-/ absolute / metric / decimal}
; #@! TF.CreationDate,2025-08-24T22:54:44+08:00
; #@! TF.GenerationSoftware,Kicad,Pcbnew,9.0.0+1
; #@! TF.FileFunction,Plated,1,4,PTH
FMAT,2
METRIC
; #@! TA.AperFunction,Plated,PTH,ViaDrill
T1C0.300
; #@! TA.AperFunction,Plated,PTH,ComponentDrill
T2C0.700
; #@! TA.AperFunction,Plated,PTH,ComponentDrill
T3C0.800
; #@! TA.AperFunction,Plated,PTH,ComponentDrill
T4C1.000
%
G90
G05
T1
X81.96Y-91.67
X82.11Y-109.57
X83.91Y-81.57
X83.91Y-85.116
X83.91Y-86.87
X83.91Y-87.92
X83.91Y-88.97
X84.87Y-83.816
X85.26Y-90.02
X85.31Y-81.57
X85.41Y-105.118
X85.78Y-85.689
X85.91Y-115.82
X86.11Y-93.27
X86.59Y-109.57
X87.09Y-105.138
X87.09Y-104.138
X87.09Y-106.138
X87.09Y-107.138
X87.09Y-108.138
X87.16Y-81.97
X87.16Y-82.77
X87.16Y-88.97
X88.09Y-104.138
X88.09Y-105.138
X88.09Y-106.138
X88.09Y-107.138
X88.09Y-108.138
X88.11Y-86.57
X89.061Y-88.97
X89.061Y-91.02
X89.09Y-105.138
X89.09Y-106.138
X89.09Y-108.138
X90.09Y-106.138
X90.09Y-108.138
X90.09Y-104.138
X90.09Y-105.138
X90.11Y-75.97
X90.56Y-111.87
X90.61Y-93.97
X91.06Y-90.47
X91.09Y-106.138
X91.11Y-83.57
X91.91Y-86.87
X92.635Y-92.138
X92.635Y-93.27
X92.71Y-109.72
X93.36Y-87.72
X93.36Y-89.06
X93.51Y-107.47
X93.51Y-108.97
X93.91Y-77.065
X93.91Y-79.57
X93.91Y-81.97
X93.922Y-103.06
X94.321Y-89.06
X94.719Y-91.203
X94.719Y-108.282
X95.519Y-91.203
X95.605Y-77.065
X96.31Y-88.32
X96.319Y-91.203
X96.319Y-92.138
X96.319Y-100.97
X96.319Y-103.06
X96.41Y-82.57
X96.41Y-85.42
X96.705Y-77.065
X97.12Y-105.203
X97.521Y-92.138
X97.92Y-87.67
X97.92Y-89.06
X98.321Y-91.203
X98.321Y-92.138
X98.321Y-105.203
X98.52Y-108.282
X98.72Y-89.06
X99.121Y-91.203
X99.121Y-92.138
X99.21Y-97.97
X99.31Y-100.97
X99.51Y-87.67
X99.72Y-105.203
X99.921Y-92.138
X100.005Y-77.065
X100.01Y-78.87
X100.32Y-103.06
X100.71Y-100.07
X100.721Y-89.06
X100.721Y-105.203
X101.06Y-95.97
X101.105Y-77.065
X101.11Y-101.87
X101.12Y-92.138
X101.12Y-103.06
X101.12Y-106.138
X101.41Y-113.52
X101.41Y-115.22
X101.521Y-105.203
X101.92Y-103.06
X102.322Y-105.203
X102.51Y-94.27
X102.72Y-100.97
X103.122Y-105.203
X103.52Y-103.06
X103.71Y-92.138
X103.922Y-105.203
X104.32Y-89.06
X104.32Y-101.87
X104.32Y-103.06
X105.519Y-91.203
X106.21Y-95.97
X106.21Y-100.07
X106.21Y-103.06
X106.66Y-88.295
X106.66Y-89.02
X106.76Y-107.97
X106.76Y-109.72
X107.1Y-101.89
X107.81Y-97.97
X107.89Y-88.7
X107.98Y-91.335
X108.985Y-88.715
X109.61Y-106.42
X110.01Y-88.715
X110.01Y-92.24
X110.56Y-113.52
X110.71Y-107.39
X111.41Y-104.07
X111.61Y-94.82
X112.31Y-110.57
X112.335Y-106.095
X112.335Y-108.045
X112.81Y-98.07
X112.81Y-100.07
X112.86Y-115.82
X114.61Y-104.97
X115.11Y-92.265
X116.885Y-101.47
X116.885Y-106.745
X117.51Y-112.87
X117.61Y-106.095
X119.91Y-86.57
X122.61Y-101.47
T2
X106.31Y-84.12
X106.31Y-86.12
X108.51Y-81.87
X109.31Y-80.67
X110.11Y-81.87
X110.91Y-80.67
X111.71Y-81.87
T4
X76.869Y-80.236
X76.869Y-82.776
X76.869Y-85.316
X76.869Y-87.856
X76.869Y-90.396
X76.869Y-92.936
X76.869Y-95.476
X76.869Y-98.016
X76.869Y-100.556
X76.869Y-103.096
X76.869Y-105.636
X76.869Y-108.176
X76.869Y-110.716
X76.869Y-113.256
X76.89Y-75.827
X79.409Y-80.236
X79.409Y-82.776
X79.409Y-85.316
X79.409Y-87.856
X79.409Y-90.396
X79.409Y-92.936
X79.409Y-95.476
X79.409Y-98.016
X79.409Y-100.556
X79.409Y-103.096
X79.409Y-105.636
X79.409Y-108.176
X79.409Y-110.716
X79.409Y-113.256
X79.43Y-75.827
X81.97Y-75.827
X81.97Y-119.21
X81.97Y-121.75
X84.51Y-75.827
X84.51Y-119.21
X84.51Y-121.75
X87.05Y-75.827
X87.05Y-119.21
X87.05Y-121.75
X89.59Y-119.21
X89.59Y-121.75
X92.13Y-119.21
X92.13Y-121.75
X94.67Y-119.21
X94.67Y-121.75
X97.21Y-119.21
X97.21Y-121.75
X99.75Y-119.21
X99.75Y-121.75
X102.29Y-119.21
X102.29Y-121.75
X104.83Y-119.21
X104.83Y-121.75
X107.37Y-119.21
X107.37Y-121.75
X109.91Y-119.21
X109.91Y-121.75
X112.45Y-119.21
X112.45Y-121.75
X114.99Y-119.21
X114.99Y-121.75
X117.53Y-119.21
X117.53Y-121.75
X120.07Y-76.03
X120.07Y-106.51
X120.07Y-109.05
X120.07Y-111.59
X120.07Y-114.13
X122.61Y-76.03
X122.61Y-83.32
X122.61Y-85.86
X122.61Y-88.4
X122.61Y-90.94
X122.61Y-93.48
X122.61Y-96.02
X122.61Y-106.51
X122.61Y-109.05
X122.61Y-111.59
X122.61Y-114.13
T2
G00X106.46Y-81.32
M15
G01X106.46Y-80.62
M16
G05
G00X113.76Y-77.42
M15
G01X113.76Y-75.67
M16
G05
G00X113.76Y-81.32
M15
G01X113.76Y-80.62
M16
G05
T3
G00X106.46Y-77.37
M15
G01X106.46Y-75.72
M16
G05
M30
