%TF.GenerationSoftware,KiCad,Pcbnew,9.0.0+1*%
%TF.CreationDate,2025-08-24T22:54:41+08:00*%
%TF.ProjectId,cube,63756265-2e6b-4696-9361-645f70636258,rev?*%
%TF.SameCoordinates,Original*%
%TF.FileFunction,Soldermask,Bot*%
%TF.FilePolarity,Negative*%
%FSLAX46Y46*%
G04 Gerber Fmt 4.6, Leading zero omitted, Abs format (unit mm)*
G04 Created by KiCad (PCBNEW 9.0.0+1) date 2025-08-24 22:54:41*
%MOMM*%
%LPD*%
G01*
G04 APERTURE LIST*
G04 Aperture macros list*
%AMRoundRect*
0 Rectangle with rounded corners*
0 $1 Rounding radius*
0 $2 $3 $4 $5 $6 $7 $8 $9 X,Y pos of 4 corners*
0 Add a 4 corners polygon primitive as box body*
4,1,4,$2,$3,$4,$5,$6,$7,$8,$9,$2,$3,0*
0 Add four circle primitives for the rounded corners*
1,1,$1+$1,$2,$3*
1,1,$1+$1,$4,$5*
1,1,$1+$1,$6,$7*
1,1,$1+$1,$8,$9*
0 Add four rect primitives between the rounded corners*
20,1,$1+$1,$2,$3,$4,$5,0*
20,1,$1+$1,$4,$5,$6,$7,0*
20,1,$1+$1,$6,$7,$8,$9,0*
20,1,$1+$1,$8,$9,$2,$3,0*%
G04 Aperture macros list end*
%ADD10R,1.700000X1.700000*%
%ADD11C,1.700000*%
%ADD12C,1.400000*%
%ADD13C,1.100000*%
%ADD14O,1.300000X2.000000*%
%ADD15O,1.300000X3.050000*%
%ADD16O,1.400000X3.050000*%
%ADD17RoundRect,0.150000X0.825000X0.150000X-0.825000X0.150000X-0.825000X-0.150000X0.825000X-0.150000X0*%
%ADD18C,0.370000*%
G04 APERTURE END LIST*
D10*
%TO.C,J6*%
X76869000Y-80236000D03*
D11*
X79409000Y-80236000D03*
X76869000Y-82776000D03*
X79409000Y-82776000D03*
X76869000Y-85316000D03*
X79409000Y-85316000D03*
X76869000Y-87856000D03*
X79409000Y-87856000D03*
X76869000Y-90396000D03*
X79409000Y-90396000D03*
X76869000Y-92936000D03*
X79409000Y-92936000D03*
X76869000Y-95476000D03*
X79409000Y-95476000D03*
X76869000Y-98016000D03*
X79409000Y-98016000D03*
X76869000Y-100556000D03*
X79409000Y-100556000D03*
X76869000Y-103096000D03*
X79409000Y-103096000D03*
X76869000Y-105636000D03*
X79409000Y-105636000D03*
X76869000Y-108176000D03*
X79409000Y-108176000D03*
X76869000Y-110716000D03*
X79409000Y-110716000D03*
X76869000Y-113256000D03*
X79409000Y-113256000D03*
%TD*%
D10*
%TO.C,J4*%
X120070000Y-106510000D03*
D11*
X122610000Y-106510000D03*
X120070000Y-109050000D03*
X122610000Y-109050000D03*
X120070000Y-111590000D03*
X122610000Y-111590000D03*
X120070000Y-114130000D03*
X122610000Y-114130000D03*
%TD*%
D12*
%TO.C,CONFIG1*%
X106310000Y-86120000D03*
X106310000Y-84120000D03*
%TD*%
D10*
%TO.C,J7*%
X122610000Y-83320000D03*
D11*
X122610000Y-85860000D03*
X122610000Y-88400000D03*
X122610000Y-90940000D03*
X122610000Y-93480000D03*
X122610000Y-96020000D03*
%TD*%
D10*
%TO.C,J10*%
X122610000Y-76030000D03*
D11*
X120070000Y-76030000D03*
%TD*%
D10*
%TO.C,J9*%
X76890000Y-75826800D03*
D11*
X79430000Y-75826800D03*
X81970000Y-75826800D03*
X84510000Y-75826800D03*
X87050000Y-75826800D03*
%TD*%
D13*
%TO.C,J8*%
X111710000Y-81870000D03*
X110910000Y-80670000D03*
X110110000Y-81870000D03*
X109310000Y-80670000D03*
X108510000Y-81870000D03*
D14*
X113760000Y-80970000D03*
D15*
X113760000Y-76545000D03*
D14*
X106460000Y-80970000D03*
D16*
X106460000Y-76545000D03*
%TD*%
D10*
%TO.C,J3*%
X81970000Y-121750000D03*
D11*
X81970000Y-119210000D03*
X84510000Y-121750000D03*
X84510000Y-119210000D03*
X87050000Y-121750000D03*
X87050000Y-119210000D03*
X89590000Y-121750000D03*
X89590000Y-119210000D03*
X92130000Y-121750000D03*
X92130000Y-119210000D03*
X94670000Y-121750000D03*
X94670000Y-119210000D03*
X97210000Y-121750000D03*
X97210000Y-119210000D03*
X99750000Y-121750000D03*
X99750000Y-119210000D03*
X102290000Y-121750000D03*
X102290000Y-119210000D03*
X104830000Y-121750000D03*
X104830000Y-119210000D03*
X107370000Y-121750000D03*
X107370000Y-119210000D03*
X109910000Y-121750000D03*
X109910000Y-119210000D03*
X112450000Y-121750000D03*
X112450000Y-119210000D03*
X114990000Y-121750000D03*
X114990000Y-119210000D03*
X117530000Y-121750000D03*
X117530000Y-119210000D03*
%TD*%
D17*
%TO.C,U3*%
X113285000Y-92265000D03*
X113285000Y-93535000D03*
X113285000Y-94805000D03*
X113285000Y-96075000D03*
X108335000Y-96075000D03*
X108335000Y-94805000D03*
X108335000Y-93535000D03*
X108335000Y-92265000D03*
%TD*%
D18*
%TO.C,U4*%
X90590000Y-106638372D03*
X90590000Y-105638372D03*
X90590000Y-104638372D03*
X90590000Y-103638372D03*
X89590000Y-107638372D03*
X89590000Y-106638372D03*
X89590000Y-105638372D03*
X89590000Y-104638372D03*
X89590000Y-103638372D03*
X88590000Y-107638372D03*
X88590000Y-106638372D03*
X88590000Y-105638372D03*
X88590000Y-104638372D03*
X88590000Y-103638372D03*
X87590000Y-107638372D03*
X87590000Y-106638372D03*
X87590000Y-105638372D03*
X87590000Y-104638372D03*
X87590000Y-103638372D03*
X86590000Y-107638372D03*
X86590000Y-106638372D03*
X86590000Y-105638372D03*
X86590000Y-104638372D03*
X86590000Y-103638372D03*
%TD*%
M02*
