%TF.GenerationSoftware,KiCad,Pcbnew,9.0.0+1*%
%TF.CreationDate,2025-08-24T22:54:41+08:00*%
%TF.ProjectId,cube,63756265-2e6b-4696-9361-645f70636258,rev?*%
%TF.SameCoordinates,Original*%
%TF.FileFunction,Copper,L2,Inr*%
%TF.FilePolarity,Positive*%
%FSLAX46Y46*%
G04 Gerber Fmt 4.6, Leading zero omitted, Abs format (unit mm)*
G04 Created by KiCad (PCBNEW 9.0.0+1) date 2025-08-24 22:54:41*
%MOMM*%
%LPD*%
G01*
G04 APERTURE LIST*
%ADD10C,0.200000*%
%TA.AperFunction,NonConductor*%
%ADD11C,0.200000*%
%TD*%
%TA.AperFunction,ComponentPad*%
%ADD12R,1.700000X1.700000*%
%TD*%
%TA.AperFunction,ComponentPad*%
%ADD13C,1.700000*%
%TD*%
%TA.AperFunction,ComponentPad*%
%ADD14C,1.400000*%
%TD*%
%TA.AperFunction,ComponentPad*%
%ADD15C,1.100000*%
%TD*%
%TA.AperFunction,ComponentPad*%
%ADD16O,1.300000X2.000000*%
%TD*%
%TA.AperFunction,ComponentPad*%
%ADD17O,1.300000X3.050000*%
%TD*%
%TA.AperFunction,ComponentPad*%
%ADD18O,1.400000X3.050000*%
%TD*%
%TA.AperFunction,ViaPad*%
%ADD19C,0.600000*%
%TD*%
%TA.AperFunction,ViaPad*%
%ADD20C,0.500000*%
%TD*%
%TA.AperFunction,Conductor*%
%ADD21C,0.254000*%
%TD*%
%TA.AperFunction,Conductor*%
%ADD22C,0.152400*%
%TD*%
G04 APERTURE END LIST*
D10*
D11*
X121987457Y-120435713D02*
X121939838Y-120388094D01*
X121939838Y-120388094D02*
X121892219Y-120292856D01*
X121892219Y-120292856D02*
X121892219Y-120054761D01*
X121892219Y-120054761D02*
X121939838Y-119959523D01*
X121939838Y-119959523D02*
X121987457Y-119911904D01*
X121987457Y-119911904D02*
X122082695Y-119864285D01*
X122082695Y-119864285D02*
X122177933Y-119864285D01*
X122177933Y-119864285D02*
X122320790Y-119911904D01*
X122320790Y-119911904D02*
X122892219Y-120483332D01*
X122892219Y-120483332D02*
X122892219Y-119864285D01*
D12*
%TO.N,GND*%
%TO.C,J6*%
X76869000Y-80236000D03*
D13*
%TO.N,+VIO*%
X79409000Y-80236000D03*
%TO.N,/DEVICE/VSEL_P1*%
X76869000Y-82776000D03*
%TO.N,GND*%
X79409000Y-82776000D03*
%TO.N,/DEVICE/VSEL_P2*%
X76869000Y-85316000D03*
%TO.N,GND*%
X79409000Y-85316000D03*
%TO.N,/DEVICE/VSEL_P3*%
X76869000Y-87856000D03*
%TO.N,GND*%
X79409000Y-87856000D03*
%TO.N,/DEVICE/HAT_I2C_SDA*%
X76869000Y-90396000D03*
%TO.N,/DEVICE/HAT_I2C_SCL*%
X79409000Y-90396000D03*
%TO.N,/DEVICE/GPIO_P0*%
X76869000Y-92936000D03*
%TO.N,/DEVICE/GPIO_P1*%
X79409000Y-92936000D03*
%TO.N,/DEVICE/GPIO_P2*%
X76869000Y-95476000D03*
%TO.N,/DEVICE/GPIO_P3*%
X79409000Y-95476000D03*
%TO.N,/DEVICE/GPIO_P4*%
X76869000Y-98016000D03*
%TO.N,/DEVICE/GPIO_P5*%
X79409000Y-98016000D03*
%TO.N,/DEVICE/GPIO_P6*%
X76869000Y-100556000D03*
%TO.N,/DEVICE/GPIO_P7*%
X79409000Y-100556000D03*
%TO.N,/DEVICE/GPIO_P8*%
X76869000Y-103096000D03*
%TO.N,/DEVICE/GPIO_P9*%
X79409000Y-103096000D03*
%TO.N,/DEVICE/GPIO_P10*%
X76869000Y-105636000D03*
%TO.N,/DEVICE/GPIO_P11*%
X79409000Y-105636000D03*
%TO.N,/DEVICE/GPIO_P12*%
X76869000Y-108176000D03*
%TO.N,/DEVICE/GPIO_P13*%
X79409000Y-108176000D03*
%TO.N,/DEVICE/GPIO_P14*%
X76869000Y-110716000D03*
%TO.N,/DEVICE/GPIO_P15*%
X79409000Y-110716000D03*
%TO.N,GND*%
X76869000Y-113256000D03*
X79409000Y-113256000D03*
%TD*%
D12*
%TO.N,GND*%
%TO.C,J4*%
X120070000Y-106510000D03*
D13*
%TO.N,+1.8V*%
X122610000Y-106510000D03*
%TO.N,/DEVICE/MCU_I2C_SDA*%
X120070000Y-109050000D03*
%TO.N,/DEVICE/MCU_I2C_SCL*%
X122610000Y-109050000D03*
%TO.N,/DEVICE/DP_I2S_BCLK*%
X120070000Y-111590000D03*
%TO.N,/DEVICE/DP_I2S_LRCLK*%
X122610000Y-111590000D03*
%TO.N,/DEVICE/DP_I2S_DATA*%
X120070000Y-114130000D03*
%TO.N,/DEVICE/DP_I2S_OSCLK*%
X122610000Y-114130000D03*
%TD*%
D14*
%TO.N,/DEVICE/D8_RECONFIG*%
%TO.C,CONFIG1*%
X106310000Y-86120000D03*
%TO.N,GND*%
X106310000Y-84120000D03*
%TD*%
D12*
%TO.N,/DEVICE/A2_JTAG_TDO*%
%TO.C,J7*%
X122610000Y-83320000D03*
D13*
%TO.N,/DEVICE/C1_JTAG_TCK*%
X122610000Y-85860000D03*
%TO.N,/DEVICE/B1_JTAG_TMS*%
X122610000Y-88400000D03*
%TO.N,/DEVICE/A3_JTAG_TDI*%
X122610000Y-90940000D03*
%TO.N,GND*%
X122610000Y-93480000D03*
%TO.N,+3.3V*%
X122610000Y-96020000D03*
%TD*%
D12*
%TO.N,+VSYS*%
%TO.C,J10*%
X122610000Y-76030000D03*
D13*
%TO.N,GND*%
X120070000Y-76030000D03*
%TD*%
D12*
%TO.N,unconnected-(J9-Pin_1-Pad1)*%
%TO.C,J9*%
X76890000Y-75826800D03*
D13*
%TO.N,unconnected-(J9-Pin_2-Pad2)*%
X79430000Y-75826800D03*
%TO.N,unconnected-(J9-Pin_3-Pad3)*%
X81970000Y-75826800D03*
%TO.N,unconnected-(J9-Pin_4-Pad4)*%
X84510000Y-75826800D03*
%TO.N,GND*%
X87050000Y-75826800D03*
%TD*%
D15*
%TO.N,Net-(J8-VBUS)*%
%TO.C,J8*%
X111710000Y-81870000D03*
%TO.N,/DEVICE/USBD_N*%
X110910000Y-80670000D03*
%TO.N,/DEVICE/USBD_P*%
X110110000Y-81870000D03*
%TO.N,unconnected-(J8-ID-Pad4)*%
X109310000Y-80670000D03*
%TO.N,GND*%
X108510000Y-81870000D03*
D16*
X113760000Y-80970000D03*
D17*
X113760000Y-76545000D03*
D16*
X106460000Y-80970000D03*
D18*
X106460000Y-76545000D03*
%TD*%
D12*
%TO.N,GND*%
%TO.C,J3*%
X81970000Y-121750000D03*
D13*
%TO.N,/DEVICE/DP_PCLK*%
X81970000Y-119210000D03*
%TO.N,/DEVICE/DP_D23*%
X84510000Y-121750000D03*
%TO.N,/DEVICE/DP_D22*%
X84510000Y-119210000D03*
%TO.N,/DEVICE/DP_D21*%
X87050000Y-121750000D03*
%TO.N,/DEVICE/DP_D20*%
X87050000Y-119210000D03*
%TO.N,/DEVICE/DP_D17*%
X89590000Y-121750000D03*
%TO.N,/DEVICE/DP_D19*%
X89590000Y-119210000D03*
%TO.N,/DEVICE/DP_D16*%
X92130000Y-121750000D03*
%TO.N,/DEVICE/DP_D18*%
X92130000Y-119210000D03*
%TO.N,/DEVICE/DP_D13*%
X94670000Y-121750000D03*
%TO.N,/DEVICE/DP_D15*%
X94670000Y-119210000D03*
%TO.N,/DEVICE/DP_D14*%
X97210000Y-121750000D03*
%TO.N,/DEVICE/DP_D12*%
X97210000Y-119210000D03*
%TO.N,/DEVICE/DP_D11*%
X99750000Y-121750000D03*
%TO.N,/DEVICE/DP_D10*%
X99750000Y-119210000D03*
%TO.N,/DEVICE/DP_D9*%
X102290000Y-121750000D03*
%TO.N,/DEVICE/DP_D8*%
X102290000Y-119210000D03*
%TO.N,/DEVICE/DP_D7*%
X104830000Y-121750000D03*
%TO.N,/DEVICE/DP_D6*%
X104830000Y-119210000D03*
%TO.N,/DEVICE/DP_D5*%
X107370000Y-121750000D03*
%TO.N,/DEVICE/DP_D4*%
X107370000Y-119210000D03*
%TO.N,/DEVICE/DP_D3*%
X109910000Y-121750000D03*
%TO.N,/DEVICE/DP_D2*%
X109910000Y-119210000D03*
%TO.N,/DEVICE/DP_D1*%
X112450000Y-121750000D03*
%TO.N,/DEVICE/DP_D0*%
X112450000Y-119210000D03*
%TO.N,/DEVICE/DP_HSYNC*%
X114990000Y-121750000D03*
%TO.N,/DEVICE/DP_VSYNC*%
X114990000Y-119210000D03*
%TO.N,/DEVICE/DP_DE*%
X117530000Y-121750000D03*
%TO.N,GND*%
X117530000Y-119210000D03*
%TD*%
D19*
%TO.N,GND*%
X109610000Y-106420000D03*
X88110000Y-86570000D03*
X99210000Y-97970000D03*
X102720300Y-100970000D03*
X106760000Y-109720000D03*
X111610000Y-94820000D03*
X101410000Y-115220000D03*
X101120100Y-92138380D03*
X92710000Y-109720000D03*
X93910000Y-79570000D03*
X96410000Y-82570000D03*
X93360000Y-89059900D03*
X87160000Y-82770000D03*
X86110000Y-93270000D03*
X86590010Y-109570000D03*
D20*
X87090000Y-104138382D03*
D19*
X93921740Y-103059900D03*
X100710000Y-100070000D03*
X96319500Y-100970000D03*
X99510000Y-87670000D03*
X100010000Y-78870000D03*
X110560000Y-113520000D03*
X101120100Y-106138380D03*
X90610000Y-93970000D03*
X93510000Y-107470000D03*
X101410000Y-113520000D03*
X110010000Y-92240000D03*
X107810000Y-97970000D03*
X114610000Y-104970000D03*
X91060000Y-90470000D03*
X85260000Y-90020000D03*
X83910000Y-81570000D03*
X91110000Y-83570000D03*
X106210000Y-95970000D03*
X112310000Y-110570000D03*
X90110000Y-75970000D03*
X93910000Y-81970000D03*
X105519380Y-91203140D03*
X85410000Y-105118382D03*
X83910000Y-85115950D03*
X100005000Y-77065000D03*
X116885000Y-101470000D03*
X100721320Y-89059900D03*
X106210000Y-103059900D03*
D20*
X90089990Y-106138372D03*
D19*
X119910000Y-86570000D03*
X89061000Y-91020000D03*
D20*
X90090000Y-104138362D03*
D19*
X92635000Y-92138380D03*
X106760000Y-107970000D03*
X103710000Y-92138380D03*
X87160000Y-81970000D03*
D20*
X89090000Y-108138372D03*
D19*
X117510000Y-112870000D03*
X110010000Y-88715000D03*
X91910000Y-86870000D03*
X104320497Y-89059900D03*
X85910000Y-115820000D03*
X93910000Y-77065000D03*
X82110000Y-109570000D03*
X115110000Y-92265000D03*
X98321020Y-105203140D03*
X81960000Y-91670000D03*
X112860000Y-115820000D03*
X101060000Y-95970000D03*
D20*
X90089990Y-108138372D03*
D19*
X96319500Y-92138382D03*
X122610000Y-101470000D03*
X96410000Y-85420000D03*
X90560000Y-111870000D03*
%TO.N,+3.3V*%
X110710000Y-107390000D03*
X107980000Y-91335000D03*
X107100000Y-101890000D03*
X85780000Y-85689000D03*
X102510000Y-94270000D03*
X89061000Y-88970000D03*
X101110000Y-101870000D03*
X85310000Y-81570000D03*
%TO.N,+VIO*%
X92635000Y-93270000D03*
X84870120Y-83816000D03*
D20*
%TO.N,+1.8V*%
X90090000Y-105138362D03*
D19*
X116885000Y-106745000D03*
X98520000Y-108281620D03*
D20*
X87089990Y-105138362D03*
D19*
X104320497Y-101870000D03*
X99720000Y-105203142D03*
D20*
X88090000Y-108138362D03*
D19*
%TO.N,+VSYS*%
X106660000Y-89020000D03*
X106660000Y-88295000D03*
%TO.N,/DEVICE/D8_RECONFIG*%
X96319500Y-91203140D03*
X107890000Y-88700000D03*
%TO.N,/DEVICE/D7_DONE*%
X112810000Y-98070000D03*
X99310000Y-100970000D03*
%TO.N,/DEVICE/DP_D10*%
X102321520Y-105203140D03*
%TO.N,/DEVICE/DP_D12*%
X101521420Y-105203140D03*
%TO.N,/DEVICE/RAM_D2*%
X96319500Y-103059900D03*
D20*
X89089990Y-105138362D03*
D19*
%TO.N,/DEVICE/DP_D6*%
X103520400Y-103059900D03*
%TO.N,/DEVICE/DP_D17*%
X93510000Y-108970000D03*
D20*
%TO.N,/DEVICE/RAM_D3*%
X88089990Y-105138362D03*
%TO.N,/DEVICE/RAM_RWDS*%
X89090000Y-106138372D03*
D19*
%TO.N,/DEVICE/RAM_CLK*%
X100721320Y-105203140D03*
D20*
%TO.N,/DEVICE/RAM_CS*%
X91090000Y-106138362D03*
%TO.N,/DEVICE/RAM_D6*%
X87090000Y-107138372D03*
D19*
%TO.N,/DEVICE/E8_READY*%
X97119600Y-105203140D03*
X112810000Y-100070000D03*
X106210000Y-100070000D03*
D20*
%TO.N,/DEVICE/RAM_D0*%
X88089990Y-106138362D03*
D19*
X101120100Y-103059900D03*
%TO.N,/DEVICE/DP_D16*%
X94719300Y-108281620D03*
D20*
%TO.N,/DEVICE/RAM_D5*%
X87090000Y-106138372D03*
%TO.N,/DEVICE/RAM_D4*%
X88089990Y-104138362D03*
D19*
X100320000Y-103059900D03*
%TO.N,/DEVICE/DP_D9*%
X103921722Y-105203140D03*
D20*
%TO.N,/DEVICE/RAM_D1*%
X88090000Y-107138362D03*
D19*
X101920200Y-103059902D03*
%TO.N,/DEVICE/DP_D4*%
X104320497Y-103059900D03*
%TO.N,/DEVICE/DP_D8*%
X103121620Y-105203140D03*
D20*
%TO.N,/DEVICE/RAM_D7*%
X87090000Y-108138362D03*
D19*
%TO.N,/DEVICE/A2_JTAG_TDO*%
X98719800Y-89059900D03*
%TO.N,/DEVICE/C1_JTAG_TCK*%
X108985000Y-88715000D03*
X97919700Y-89059900D03*
%TO.N,/DEVICE/SD_DAT0*%
X95519397Y-91203140D03*
X101105000Y-77065000D03*
%TO.N,/DEVICE/GPIO_P14*%
X99121120Y-92138380D03*
%TO.N,/DEVICE/SD_CMD*%
X96705000Y-77065000D03*
X94719300Y-91203140D03*
%TO.N,/DEVICE/GPIO_P13*%
X98321020Y-92138380D03*
%TO.N,/DEVICE/SD_PWRON*%
X87160000Y-88970000D03*
X93360000Y-87720000D03*
%TO.N,/DEVICE/SD_DAT3*%
X95605000Y-77065000D03*
X94320520Y-89059900D03*
%TO.N,/DEVICE/A3_JTAG_TDI*%
X99121120Y-91203140D03*
%TO.N,/DEVICE/B1_JTAG_TMS*%
X98321020Y-91203140D03*
%TO.N,/DEVICE/HAT_I2C_SCL*%
X96310000Y-88320000D03*
X112335000Y-106095000D03*
%TO.N,/DEVICE/GPIO_P12*%
X97520920Y-92138380D03*
%TO.N,/DEVICE/HAT_I2C_SDA*%
X112335000Y-108045000D03*
X97919700Y-87670000D03*
%TO.N,/DEVICE/GPIO_P15*%
X99921220Y-92138380D03*
%TO.N,/DEVICE/VSEL_P1*%
X83910000Y-86870000D03*
%TO.N,/DEVICE/VSEL_P3*%
X83910000Y-88970000D03*
%TO.N,/DEVICE/VSEL_P2*%
X83910000Y-87920000D03*
%TO.N,/DEVICE/MCU_I2C_SCL*%
X117610000Y-106095000D03*
%TO.N,/DEVICE/DP_I2S_OSCLK*%
X111410000Y-104070000D03*
%TD*%
D21*
%TO.N,+3.3V*%
X102510000Y-92470000D02*
X100160000Y-90120000D01*
X89061000Y-88970000D02*
X85780000Y-85689000D01*
X102510000Y-94270000D02*
X102510000Y-92470000D01*
X91972500Y-88970000D02*
X89061000Y-88970000D01*
X100160000Y-90120000D02*
X93122500Y-90120000D01*
X93122500Y-90120000D02*
X91972500Y-88970000D01*
%TO.N,+1.8V*%
X90090000Y-105138362D02*
X92278362Y-105138362D01*
X99720000Y-105203142D02*
X100653142Y-104270000D01*
X100653142Y-104270000D02*
X101810000Y-104270000D01*
X102710000Y-102870000D02*
X103210000Y-102370000D01*
X99053142Y-105870000D02*
X99720000Y-105203142D01*
X101810000Y-104270000D02*
X102710000Y-103370000D01*
X93010000Y-105870000D02*
X99053142Y-105870000D01*
X102710000Y-103370000D02*
X102710000Y-102870000D01*
X92278362Y-105138362D02*
X93010000Y-105870000D01*
X103820497Y-102370000D02*
X104320497Y-101870000D01*
X99053142Y-107748478D02*
X98520000Y-108281620D01*
X99053142Y-105870000D02*
X99053142Y-107748478D01*
X103210000Y-102370000D02*
X103820497Y-102370000D01*
D22*
%TO.N,/DEVICE/D8_RECONFIG*%
X107310000Y-88120000D02*
X107310000Y-87120000D01*
X107310000Y-88120000D02*
X107890000Y-88700000D01*
X107310000Y-87120000D02*
X106310000Y-86120000D01*
D21*
%TO.N,/DEVICE/E8_READY*%
X106210000Y-100070000D02*
X112810000Y-100070000D01*
%TD*%
%TA.AperFunction,Conductor*%
%TO.N,GND*%
G36*
X106025016Y-74489407D02*
G01*
X106060980Y-74538907D01*
X106060980Y-74600093D01*
X106025016Y-74649593D01*
X106011770Y-74657710D01*
X105857269Y-74736431D01*
X105857265Y-74736433D01*
X105710830Y-74842824D01*
X105582824Y-74970830D01*
X105476433Y-75117265D01*
X105476431Y-75117269D01*
X105394250Y-75278559D01*
X105338316Y-75450710D01*
X105310000Y-75629489D01*
X105310000Y-76294999D01*
X105310001Y-76295000D01*
X106060000Y-76295000D01*
X106060000Y-76795000D01*
X105310001Y-76795000D01*
X105310000Y-76795001D01*
X105310000Y-77460510D01*
X105338316Y-77639289D01*
X105394250Y-77811440D01*
X105476431Y-77972730D01*
X105476433Y-77972734D01*
X105582824Y-78119169D01*
X105710830Y-78247175D01*
X105857265Y-78353566D01*
X105857269Y-78353568D01*
X106018559Y-78435749D01*
X106190705Y-78491682D01*
X106210000Y-78494737D01*
X106210000Y-77685686D01*
X106214394Y-77690080D01*
X106305606Y-77742741D01*
X106407339Y-77770000D01*
X106512661Y-77770000D01*
X106614394Y-77742741D01*
X106705606Y-77690080D01*
X106710000Y-77685686D01*
X106710000Y-78494737D01*
X106729294Y-78491682D01*
X106901440Y-78435749D01*
X107062730Y-78353568D01*
X107062734Y-78353566D01*
X107209169Y-78247175D01*
X107337175Y-78119169D01*
X107443566Y-77972734D01*
X107443568Y-77972730D01*
X107525749Y-77811440D01*
X107581683Y-77639289D01*
X107610000Y-77460510D01*
X107610000Y-76795001D01*
X107609999Y-76795000D01*
X106860000Y-76795000D01*
X106860000Y-76295000D01*
X107609999Y-76295000D01*
X107610000Y-76294999D01*
X107610000Y-75629489D01*
X107581683Y-75450710D01*
X107525749Y-75278559D01*
X107443568Y-75117269D01*
X107443566Y-75117265D01*
X107337175Y-74970830D01*
X107209169Y-74842824D01*
X107062734Y-74736433D01*
X107062730Y-74736431D01*
X106908230Y-74657710D01*
X106864965Y-74614445D01*
X106855394Y-74554013D01*
X106883171Y-74499497D01*
X106937688Y-74471719D01*
X106953175Y-74470500D01*
X113278830Y-74470500D01*
X113337021Y-74489407D01*
X113372985Y-74538907D01*
X113372985Y-74600093D01*
X113337021Y-74649593D01*
X113323775Y-74657710D01*
X113183475Y-74729195D01*
X113183471Y-74729197D01*
X113043403Y-74830962D01*
X112920962Y-74953403D01*
X112819197Y-75093471D01*
X112819195Y-75093475D01*
X112740588Y-75247751D01*
X112687084Y-75412420D01*
X112660000Y-75583424D01*
X112660000Y-76294999D01*
X112660001Y-76295000D01*
X113410000Y-76295000D01*
X113410000Y-76795000D01*
X112660001Y-76795000D01*
X112660000Y-76795001D01*
X112660000Y-77506575D01*
X112687084Y-77677579D01*
X112740588Y-77842248D01*
X112819195Y-77996524D01*
X112819197Y-77996528D01*
X112920962Y-78136596D01*
X113043403Y-78259037D01*
X113183471Y-78360802D01*
X113183475Y-78360804D01*
X113337751Y-78439411D01*
X113502413Y-78492913D01*
X113510000Y-78494114D01*
X113510000Y-77664975D01*
X113545095Y-77700070D01*
X113624905Y-77746148D01*
X113713922Y-77770000D01*
X113806078Y-77770000D01*
X113895095Y-77746148D01*
X113974905Y-77700070D01*
X114010000Y-77664975D01*
X114010000Y-78494114D01*
X114017586Y-78492913D01*
X114182248Y-78439411D01*
X114336524Y-78360804D01*
X114336528Y-78360802D01*
X114476596Y-78259037D01*
X114599037Y-78136596D01*
X114700802Y-77996528D01*
X114700804Y-77996524D01*
X114779411Y-77842248D01*
X114832915Y-77677579D01*
X114860000Y-77506575D01*
X114860000Y-76795001D01*
X114859999Y-76795000D01*
X114110000Y-76795000D01*
X114110000Y-76295000D01*
X114859999Y-76295000D01*
X114860000Y-76294999D01*
X114860000Y-75583424D01*
X114832915Y-75412420D01*
X114779411Y-75247751D01*
X114700804Y-75093475D01*
X114700802Y-75093471D01*
X114599037Y-74953403D01*
X114476596Y-74830962D01*
X114336528Y-74729197D01*
X114336524Y-74729195D01*
X114196225Y-74657710D01*
X114152960Y-74614445D01*
X114143389Y-74554013D01*
X114171166Y-74499497D01*
X114225683Y-74471719D01*
X114241170Y-74470500D01*
X119971000Y-74470500D01*
X119985912Y-74475345D01*
X120001593Y-74475345D01*
X120014278Y-74484561D01*
X120029191Y-74489407D01*
X120038407Y-74502092D01*
X120051093Y-74511309D01*
X120055938Y-74526221D01*
X120065155Y-74538907D01*
X120070000Y-74569500D01*
X120070000Y-74631000D01*
X120051093Y-74689191D01*
X120001593Y-74725155D01*
X119971000Y-74730000D01*
X119967685Y-74730000D01*
X119765587Y-74762008D01*
X119570972Y-74825243D01*
X119388651Y-74918139D01*
X119388647Y-74918141D01*
X119344078Y-74950523D01*
X119940592Y-75547037D01*
X119877007Y-75564075D01*
X119762993Y-75629901D01*
X119669901Y-75722993D01*
X119604075Y-75837007D01*
X119587037Y-75900592D01*
X118990523Y-75304078D01*
X118958141Y-75348647D01*
X118958139Y-75348651D01*
X118865243Y-75530972D01*
X118802008Y-75725587D01*
X118770000Y-75927684D01*
X118770000Y-76132315D01*
X118802008Y-76334412D01*
X118865243Y-76529027D01*
X118958139Y-76711348D01*
X118958143Y-76711353D01*
X118990523Y-76755920D01*
X118990524Y-76755920D01*
X119587037Y-76159407D01*
X119604075Y-76222993D01*
X119669901Y-76337007D01*
X119762993Y-76430099D01*
X119877007Y-76495925D01*
X119940590Y-76512962D01*
X119344078Y-77109475D01*
X119388647Y-77141858D01*
X119570972Y-77234756D01*
X119765587Y-77297991D01*
X119967685Y-77330000D01*
X120172315Y-77330000D01*
X120374412Y-77297991D01*
X120569027Y-77234756D01*
X120751342Y-77141863D01*
X120751350Y-77141858D01*
X120795920Y-77109475D01*
X120199407Y-76512962D01*
X120262993Y-76495925D01*
X120377007Y-76430099D01*
X120470099Y-76337007D01*
X120535925Y-76222993D01*
X120552962Y-76159408D01*
X121149475Y-76755920D01*
X121181858Y-76711350D01*
X121181863Y-76711342D01*
X121274756Y-76529027D01*
X121316345Y-76401032D01*
X121352309Y-76351532D01*
X121410500Y-76332625D01*
X121468691Y-76351532D01*
X121504655Y-76401032D01*
X121509500Y-76431625D01*
X121509500Y-76904672D01*
X121509501Y-76904684D01*
X121524033Y-76977736D01*
X121524035Y-76977742D01*
X121579397Y-77060599D01*
X121579399Y-77060601D01*
X121662260Y-77115966D01*
X121714961Y-77126449D01*
X121735315Y-77130498D01*
X121735320Y-77130498D01*
X121735326Y-77130500D01*
X121735327Y-77130500D01*
X123484673Y-77130500D01*
X123484674Y-77130500D01*
X123484675Y-77130499D01*
X123484681Y-77130499D01*
X123518976Y-77123676D01*
X123541184Y-77119259D01*
X123601946Y-77126449D01*
X123646876Y-77167981D01*
X123659500Y-77216356D01*
X123659500Y-82133643D01*
X123640593Y-82191834D01*
X123591093Y-82227798D01*
X123541186Y-82230741D01*
X123484676Y-82219500D01*
X123484674Y-82219500D01*
X121735326Y-82219500D01*
X121735325Y-82219500D01*
X121735315Y-82219501D01*
X121662263Y-82234033D01*
X121662257Y-82234035D01*
X121579400Y-82289397D01*
X121579397Y-82289400D01*
X121524035Y-82372257D01*
X121524033Y-82372263D01*
X121509501Y-82445315D01*
X121509500Y-82445327D01*
X121509500Y-84194672D01*
X121509501Y-84194684D01*
X121524033Y-84267736D01*
X121524035Y-84267742D01*
X121579397Y-84350599D01*
X121579399Y-84350601D01*
X121662260Y-84405966D01*
X121714961Y-84416449D01*
X121735315Y-84420498D01*
X121735320Y-84420498D01*
X121735326Y-84420500D01*
X121735327Y-84420500D01*
X123484673Y-84420500D01*
X123484674Y-84420500D01*
X123484675Y-84420499D01*
X123484681Y-84420499D01*
X123518976Y-84413676D01*
X123541184Y-84409259D01*
X123601946Y-84416449D01*
X123646876Y-84457981D01*
X123659500Y-84506356D01*
X123659500Y-85127539D01*
X123640593Y-85185730D01*
X123591093Y-85221694D01*
X123529907Y-85221694D01*
X123480408Y-85185731D01*
X123467536Y-85168015D01*
X123449414Y-85143072D01*
X123326928Y-85020586D01*
X123186788Y-84918768D01*
X123186787Y-84918767D01*
X123186785Y-84918766D01*
X123032441Y-84840125D01*
X123032438Y-84840123D01*
X122867706Y-84786598D01*
X122867702Y-84786597D01*
X122696614Y-84759500D01*
X122696611Y-84759500D01*
X122523389Y-84759500D01*
X122523386Y-84759500D01*
X122352297Y-84786597D01*
X122352293Y-84786598D01*
X122187561Y-84840123D01*
X122187558Y-84840125D01*
X122033214Y-84918766D01*
X121893073Y-85020585D01*
X121770585Y-85143073D01*
X121668766Y-85283214D01*
X121590125Y-85437558D01*
X121590123Y-85437561D01*
X121536598Y-85602293D01*
X121536597Y-85602297D01*
X121509500Y-85773385D01*
X121509500Y-85946614D01*
X121536597Y-86117702D01*
X121536598Y-86117706D01*
X121590123Y-86282438D01*
X121590125Y-86282441D01*
X121664220Y-86427863D01*
X121668768Y-86436788D01*
X121770586Y-86576928D01*
X121893072Y-86699414D01*
X122033212Y-86801232D01*
X122187555Y-86879873D01*
X122187557Y-86879873D01*
X122187558Y-86879874D01*
X122187561Y-86879876D01*
X122352293Y-86933401D01*
X122352297Y-86933402D01*
X122523386Y-86960500D01*
X122523389Y-86960500D01*
X122696614Y-86960500D01*
X122867702Y-86933402D01*
X122867706Y-86933401D01*
X123032438Y-86879876D01*
X123032440Y-86879874D01*
X123032445Y-86879873D01*
X123186788Y-86801232D01*
X123326928Y-86699414D01*
X123449414Y-86576928D01*
X123480408Y-86534267D01*
X123529907Y-86498305D01*
X123591093Y-86498305D01*
X123640593Y-86534269D01*
X123659500Y-86592460D01*
X123659500Y-87667539D01*
X123640593Y-87725730D01*
X123591093Y-87761694D01*
X123529907Y-87761694D01*
X123480408Y-87725731D01*
X123449415Y-87683074D01*
X123449414Y-87683072D01*
X123326928Y-87560586D01*
X123186788Y-87458768D01*
X123186787Y-87458767D01*
X123186785Y-87458766D01*
X123032441Y-87380125D01*
X123032438Y-87380123D01*
X122867706Y-87326598D01*
X122867702Y-87326597D01*
X122696614Y-87299500D01*
X122696611Y-87299500D01*
X122523389Y-87299500D01*
X122523386Y-87299500D01*
X122352297Y-87326597D01*
X122352293Y-87326598D01*
X122187561Y-87380123D01*
X122187558Y-87380125D01*
X122033214Y-87458766D01*
X121893073Y-87560585D01*
X121770585Y-87683073D01*
X121668766Y-87823214D01*
X121590125Y-87977558D01*
X121590123Y-87977561D01*
X121536598Y-88142293D01*
X121536597Y-88142297D01*
X121509500Y-88313385D01*
X121509500Y-88486614D01*
X121536597Y-88657702D01*
X121536598Y-88657706D01*
X121590123Y-88822438D01*
X121590125Y-88822441D01*
X121664220Y-88967863D01*
X121668768Y-88976788D01*
X121770586Y-89116928D01*
X121893072Y-89239414D01*
X122033212Y-89341232D01*
X122187555Y-89419873D01*
X122187557Y-89419873D01*
X122187558Y-89419874D01*
X122187561Y-89419876D01*
X122352293Y-89473401D01*
X122352297Y-89473402D01*
X122523386Y-89500500D01*
X122523389Y-89500500D01*
X122696614Y-89500500D01*
X122867702Y-89473402D01*
X122867706Y-89473401D01*
X123032438Y-89419876D01*
X123032440Y-89419874D01*
X123032445Y-89419873D01*
X123186788Y-89341232D01*
X123326928Y-89239414D01*
X123449414Y-89116928D01*
X123480408Y-89074267D01*
X123529907Y-89038305D01*
X123591093Y-89038305D01*
X123640593Y-89074269D01*
X123659500Y-89132460D01*
X123659500Y-90207539D01*
X123640593Y-90265730D01*
X123591093Y-90301694D01*
X123529907Y-90301694D01*
X123480408Y-90265731D01*
X123449415Y-90223074D01*
X123449414Y-90223072D01*
X123326928Y-90100586D01*
X123186788Y-89998768D01*
X123186787Y-89998767D01*
X123186785Y-89998766D01*
X123032441Y-89920125D01*
X123032438Y-89920123D01*
X122867706Y-89866598D01*
X122867702Y-89866597D01*
X122696614Y-89839500D01*
X122696611Y-89839500D01*
X122523389Y-89839500D01*
X122523386Y-89839500D01*
X122352297Y-89866597D01*
X122352293Y-89866598D01*
X122187561Y-89920123D01*
X122187558Y-89920125D01*
X122033214Y-89998766D01*
X121893073Y-90100585D01*
X121770585Y-90223073D01*
X121668766Y-90363214D01*
X121590125Y-90517558D01*
X121590123Y-90517561D01*
X121536598Y-90682293D01*
X121536597Y-90682297D01*
X121509500Y-90853385D01*
X121509500Y-91026614D01*
X121536597Y-91197702D01*
X121536598Y-91197706D01*
X121590123Y-91362438D01*
X121590125Y-91362441D01*
X121660528Y-91500617D01*
X121668768Y-91516788D01*
X121770586Y-91656928D01*
X121893072Y-91779414D01*
X122033212Y-91881232D01*
X122187555Y-91959873D01*
X122352299Y-92013402D01*
X122355743Y-92014521D01*
X122405243Y-92050485D01*
X122424150Y-92108676D01*
X122405243Y-92166867D01*
X122355742Y-92202831D01*
X122340638Y-92206457D01*
X122305586Y-92212009D01*
X122110972Y-92275243D01*
X121928651Y-92368139D01*
X121928647Y-92368141D01*
X121884078Y-92400523D01*
X122480592Y-92997037D01*
X122417007Y-93014075D01*
X122302993Y-93079901D01*
X122209901Y-93172993D01*
X122144075Y-93287007D01*
X122127037Y-93350592D01*
X121530523Y-92754078D01*
X121498141Y-92798647D01*
X121498139Y-92798651D01*
X121405243Y-92980972D01*
X121342008Y-93175587D01*
X121310000Y-93377684D01*
X121310000Y-93582315D01*
X121342008Y-93784412D01*
X121405243Y-93979027D01*
X121498139Y-94161348D01*
X121498143Y-94161353D01*
X121530523Y-94205920D01*
X121530524Y-94205920D01*
X122127037Y-93609407D01*
X122144075Y-93672993D01*
X122209901Y-93787007D01*
X122302993Y-93880099D01*
X122417007Y-93945925D01*
X122480590Y-93962962D01*
X121884078Y-94559475D01*
X121928647Y-94591858D01*
X122110972Y-94684756D01*
X122305587Y-94747991D01*
X122340636Y-94753542D01*
X122395153Y-94781319D01*
X122422931Y-94835835D01*
X122413360Y-94896267D01*
X122370096Y-94939532D01*
X122355743Y-94945477D01*
X122187561Y-95000123D01*
X122187558Y-95000125D01*
X122033214Y-95078766D01*
X121893073Y-95180585D01*
X121770585Y-95303073D01*
X121668766Y-95443214D01*
X121590125Y-95597558D01*
X121590123Y-95597561D01*
X121536598Y-95762293D01*
X121536597Y-95762297D01*
X121509500Y-95933385D01*
X121509500Y-96106614D01*
X121536597Y-96277702D01*
X121536598Y-96277706D01*
X121590123Y-96442438D01*
X121590125Y-96442441D01*
X121660528Y-96580617D01*
X121668768Y-96596788D01*
X121770586Y-96736928D01*
X121893072Y-96859414D01*
X122033212Y-96961232D01*
X122187555Y-97039873D01*
X122187557Y-97039873D01*
X122187558Y-97039874D01*
X122187561Y-97039876D01*
X122352293Y-97093401D01*
X122352297Y-97093402D01*
X122523386Y-97120500D01*
X122523389Y-97120500D01*
X122696614Y-97120500D01*
X122867702Y-97093402D01*
X122867706Y-97093401D01*
X123032438Y-97039876D01*
X123032440Y-97039874D01*
X123032445Y-97039873D01*
X123186788Y-96961232D01*
X123326928Y-96859414D01*
X123449414Y-96736928D01*
X123480408Y-96694267D01*
X123529907Y-96658305D01*
X123591093Y-96658305D01*
X123640593Y-96694269D01*
X123659500Y-96752460D01*
X123659500Y-105777539D01*
X123640593Y-105835730D01*
X123591093Y-105871694D01*
X123529907Y-105871694D01*
X123480408Y-105835731D01*
X123449415Y-105793074D01*
X123449414Y-105793072D01*
X123326928Y-105670586D01*
X123186788Y-105568768D01*
X123186787Y-105568767D01*
X123186785Y-105568766D01*
X123032441Y-105490125D01*
X123032438Y-105490123D01*
X122867706Y-105436598D01*
X122867702Y-105436597D01*
X122696614Y-105409500D01*
X122696611Y-105409500D01*
X122523389Y-105409500D01*
X122523386Y-105409500D01*
X122352297Y-105436597D01*
X122352293Y-105436598D01*
X122187561Y-105490123D01*
X122187558Y-105490125D01*
X122033214Y-105568766D01*
X121893073Y-105670585D01*
X121770585Y-105793073D01*
X121668766Y-105933214D01*
X121590125Y-106087558D01*
X121590123Y-106087561D01*
X121563153Y-106170568D01*
X121527189Y-106220068D01*
X121468998Y-106238975D01*
X121410808Y-106220067D01*
X121374844Y-106170567D01*
X121369999Y-106139975D01*
X121369999Y-105605796D01*
X121367149Y-105575399D01*
X121367149Y-105575397D01*
X121322345Y-105447352D01*
X121241792Y-105338209D01*
X121241790Y-105338207D01*
X121132647Y-105257654D01*
X121004601Y-105212850D01*
X120974211Y-105210000D01*
X120320001Y-105210000D01*
X120320000Y-105210001D01*
X120320000Y-106076988D01*
X120262993Y-106044075D01*
X120135826Y-106010000D01*
X120004174Y-106010000D01*
X119877007Y-106044075D01*
X119820000Y-106076988D01*
X119820000Y-105210001D01*
X119819999Y-105210000D01*
X119165796Y-105210000D01*
X119135399Y-105212850D01*
X119135397Y-105212850D01*
X119007352Y-105257654D01*
X118898209Y-105338207D01*
X118898207Y-105338209D01*
X118817654Y-105447352D01*
X118772850Y-105575398D01*
X118770000Y-105605788D01*
X118770000Y-106259999D01*
X118770001Y-106260000D01*
X119636988Y-106260000D01*
X119604075Y-106317007D01*
X119570000Y-106444174D01*
X119570000Y-106575826D01*
X119604075Y-106702993D01*
X119636988Y-106760000D01*
X118770002Y-106760000D01*
X118770001Y-106760001D01*
X118770001Y-107414203D01*
X118772850Y-107444600D01*
X118772850Y-107444602D01*
X118817654Y-107572647D01*
X118898207Y-107681790D01*
X118898209Y-107681792D01*
X119007352Y-107762345D01*
X119135398Y-107807149D01*
X119165789Y-107809999D01*
X119699974Y-107809999D01*
X119758165Y-107828906D01*
X119794129Y-107878406D01*
X119794129Y-107939592D01*
X119758165Y-107989092D01*
X119730568Y-108003153D01*
X119647558Y-108030125D01*
X119493214Y-108108766D01*
X119353073Y-108210585D01*
X119230585Y-108333073D01*
X119128766Y-108473214D01*
X119050125Y-108627558D01*
X119050123Y-108627561D01*
X118996598Y-108792293D01*
X118996597Y-108792297D01*
X118969500Y-108963385D01*
X118969500Y-109136614D01*
X118996597Y-109307702D01*
X118996598Y-109307706D01*
X119050123Y-109472438D01*
X119050125Y-109472441D01*
X119123016Y-109615500D01*
X119128768Y-109626788D01*
X119230586Y-109766928D01*
X119353072Y-109889414D01*
X119493212Y-109991232D01*
X119647555Y-110069873D01*
X119647557Y-110069873D01*
X119647558Y-110069874D01*
X119647561Y-110069876D01*
X119812293Y-110123401D01*
X119812297Y-110123402D01*
X119986487Y-110150991D01*
X119993604Y-110154617D01*
X120001593Y-110154617D01*
X120020348Y-110168243D01*
X120041004Y-110178768D01*
X120044630Y-110185885D01*
X120051093Y-110190581D01*
X120058256Y-110212629D01*
X120068781Y-110233285D01*
X120070000Y-110248772D01*
X120070000Y-110391227D01*
X120051093Y-110449418D01*
X120001593Y-110485382D01*
X119986487Y-110489008D01*
X119812298Y-110516597D01*
X119812293Y-110516598D01*
X119647561Y-110570123D01*
X119647558Y-110570125D01*
X119493214Y-110648766D01*
X119353073Y-110750585D01*
X119230585Y-110873073D01*
X119128766Y-111013214D01*
X119050125Y-111167558D01*
X119050123Y-111167561D01*
X118996598Y-111332293D01*
X118996597Y-111332297D01*
X118969500Y-111503385D01*
X118969500Y-111676614D01*
X118996597Y-111847702D01*
X118996598Y-111847706D01*
X119050123Y-112012438D01*
X119050125Y-112012441D01*
X119117227Y-112144139D01*
X119128768Y-112166788D01*
X119230586Y-112306928D01*
X119353072Y-112429414D01*
X119493212Y-112531232D01*
X119647555Y-112609873D01*
X119647557Y-112609873D01*
X119647558Y-112609874D01*
X119647561Y-112609876D01*
X119812293Y-112663401D01*
X119812297Y-112663402D01*
X119986487Y-112690991D01*
X119993604Y-112694617D01*
X120001593Y-112694617D01*
X120020348Y-112708243D01*
X120041004Y-112718768D01*
X120044630Y-112725885D01*
X120051093Y-112730581D01*
X120058256Y-112752629D01*
X120068781Y-112773285D01*
X120070000Y-112788772D01*
X120070000Y-112931227D01*
X120051093Y-112989418D01*
X120001593Y-113025382D01*
X119986487Y-113029008D01*
X119812298Y-113056597D01*
X119812293Y-113056598D01*
X119647561Y-113110123D01*
X119647558Y-113110125D01*
X119493214Y-113188766D01*
X119353073Y-113290585D01*
X119230585Y-113413073D01*
X119128766Y-113553214D01*
X119050125Y-113707558D01*
X119050123Y-113707561D01*
X118996598Y-113872293D01*
X118996597Y-113872297D01*
X118969500Y-114043385D01*
X118969500Y-114216614D01*
X118996597Y-114387702D01*
X118996598Y-114387706D01*
X119050123Y-114552438D01*
X119050125Y-114552441D01*
X119050126Y-114552444D01*
X119050127Y-114552445D01*
X119128768Y-114706788D01*
X119230586Y-114846928D01*
X119353072Y-114969414D01*
X119493212Y-115071232D01*
X119647555Y-115149873D01*
X119647557Y-115149873D01*
X119647558Y-115149874D01*
X119647561Y-115149876D01*
X119812293Y-115203401D01*
X119812297Y-115203402D01*
X119983386Y-115230500D01*
X119983389Y-115230500D01*
X120156614Y-115230500D01*
X120327702Y-115203402D01*
X120327706Y-115203401D01*
X120492438Y-115149876D01*
X120492440Y-115149874D01*
X120492445Y-115149873D01*
X120646788Y-115071232D01*
X120786928Y-114969414D01*
X120909414Y-114846928D01*
X120980909Y-114748523D01*
X121030407Y-114712561D01*
X121091592Y-114712561D01*
X121141093Y-114748525D01*
X121160000Y-114806716D01*
X121160000Y-116358285D01*
X121168781Y-116375520D01*
X121170000Y-116391007D01*
X121170000Y-122520500D01*
X121151093Y-122578691D01*
X121101593Y-122614655D01*
X121071000Y-122619500D01*
X118452862Y-122619500D01*
X118394671Y-122600593D01*
X118358707Y-122551093D01*
X118358707Y-122489907D01*
X118372770Y-122462309D01*
X118471228Y-122326793D01*
X118471232Y-122326788D01*
X118549873Y-122172445D01*
X118549874Y-122172440D01*
X118549876Y-122172438D01*
X118603401Y-122007706D01*
X118603402Y-122007702D01*
X118630500Y-121836614D01*
X118630500Y-121663385D01*
X118603402Y-121492297D01*
X118603401Y-121492293D01*
X118549876Y-121327561D01*
X118549874Y-121327558D01*
X118549873Y-121327557D01*
X118549873Y-121327555D01*
X118471232Y-121173212D01*
X118369414Y-121033072D01*
X118246928Y-120910586D01*
X118106788Y-120808768D01*
X118106787Y-120808767D01*
X118106785Y-120808766D01*
X117952441Y-120730125D01*
X117952438Y-120730123D01*
X117784256Y-120675477D01*
X117734756Y-120639513D01*
X117715849Y-120581322D01*
X117734757Y-120523132D01*
X117784257Y-120487168D01*
X117799364Y-120483542D01*
X117834411Y-120477991D01*
X118029027Y-120414756D01*
X118211342Y-120321863D01*
X118211350Y-120321858D01*
X118255920Y-120289475D01*
X117659408Y-119692962D01*
X117722993Y-119675925D01*
X117837007Y-119610099D01*
X117930099Y-119517007D01*
X117995925Y-119402993D01*
X118012962Y-119339407D01*
X118609475Y-119935920D01*
X118641858Y-119891350D01*
X118641863Y-119891342D01*
X118734756Y-119709027D01*
X118797991Y-119514412D01*
X118830000Y-119312315D01*
X118830000Y-119107684D01*
X118797991Y-118905587D01*
X118734756Y-118710972D01*
X118641858Y-118528647D01*
X118609475Y-118484078D01*
X118012962Y-119080590D01*
X117995925Y-119017007D01*
X117930099Y-118902993D01*
X117837007Y-118809901D01*
X117722993Y-118744075D01*
X117659407Y-118727037D01*
X118255920Y-118130524D01*
X118255920Y-118130523D01*
X118211353Y-118098143D01*
X118211348Y-118098139D01*
X118029027Y-118005243D01*
X117834412Y-117942008D01*
X117632315Y-117910000D01*
X117427685Y-117910000D01*
X117225587Y-117942008D01*
X117030972Y-118005243D01*
X116848651Y-118098139D01*
X116848647Y-118098141D01*
X116804078Y-118130523D01*
X117400592Y-118727037D01*
X117337007Y-118744075D01*
X117222993Y-118809901D01*
X117129901Y-118902993D01*
X117064075Y-119017007D01*
X117047037Y-119080591D01*
X116450523Y-118484078D01*
X116418141Y-118528647D01*
X116418139Y-118528651D01*
X116325243Y-118710972D01*
X116262009Y-118905586D01*
X116256457Y-118940638D01*
X116228679Y-118995154D01*
X116174162Y-119022931D01*
X116113730Y-119013359D01*
X116070466Y-118970094D01*
X116064521Y-118955743D01*
X116047381Y-118902993D01*
X116009873Y-118787555D01*
X115931232Y-118633212D01*
X115829414Y-118493072D01*
X115706928Y-118370586D01*
X115566788Y-118268768D01*
X115566787Y-118268767D01*
X115566785Y-118268766D01*
X115542642Y-118256465D01*
X115412441Y-118190125D01*
X115412438Y-118190123D01*
X115247706Y-118136598D01*
X115247702Y-118136597D01*
X115076614Y-118109500D01*
X115076611Y-118109500D01*
X114903389Y-118109500D01*
X114903386Y-118109500D01*
X114732297Y-118136597D01*
X114732293Y-118136598D01*
X114567561Y-118190123D01*
X114567558Y-118190125D01*
X114413214Y-118268766D01*
X114273073Y-118370585D01*
X114150585Y-118493073D01*
X114048766Y-118633214D01*
X113970125Y-118787558D01*
X113970123Y-118787561D01*
X113916598Y-118952293D01*
X113916597Y-118952297D01*
X113889009Y-119126487D01*
X113885383Y-119133603D01*
X113885383Y-119141593D01*
X113871756Y-119160348D01*
X113861232Y-119181004D01*
X113854114Y-119184630D01*
X113849419Y-119191093D01*
X113827370Y-119198256D01*
X113806715Y-119208781D01*
X113791228Y-119210000D01*
X113648772Y-119210000D01*
X113590581Y-119191093D01*
X113554617Y-119141593D01*
X113550991Y-119126487D01*
X113523402Y-118952297D01*
X113523401Y-118952293D01*
X113469876Y-118787561D01*
X113469874Y-118787558D01*
X113469873Y-118787557D01*
X113469873Y-118787555D01*
X113391232Y-118633212D01*
X113289414Y-118493072D01*
X113166928Y-118370586D01*
X113026788Y-118268768D01*
X113026787Y-118268767D01*
X113026785Y-118268766D01*
X112872441Y-118190125D01*
X112872438Y-118190123D01*
X112707706Y-118136598D01*
X112707702Y-118136597D01*
X112536614Y-118109500D01*
X112536611Y-118109500D01*
X112363389Y-118109500D01*
X112363386Y-118109500D01*
X112192297Y-118136597D01*
X112192293Y-118136598D01*
X112027561Y-118190123D01*
X112027558Y-118190125D01*
X111873214Y-118268766D01*
X111733073Y-118370585D01*
X111610585Y-118493073D01*
X111508766Y-118633214D01*
X111430125Y-118787558D01*
X111430123Y-118787561D01*
X111376598Y-118952293D01*
X111376597Y-118952297D01*
X111349009Y-119126487D01*
X111345383Y-119133603D01*
X111345383Y-119141593D01*
X111331756Y-119160348D01*
X111321232Y-119181004D01*
X111314114Y-119184630D01*
X111309419Y-119191093D01*
X111287370Y-119198256D01*
X111266715Y-119208781D01*
X111251228Y-119210000D01*
X111108772Y-119210000D01*
X111050581Y-119191093D01*
X111014617Y-119141593D01*
X111010991Y-119126487D01*
X110983402Y-118952297D01*
X110983401Y-118952293D01*
X110929876Y-118787561D01*
X110929874Y-118787558D01*
X110929873Y-118787557D01*
X110929873Y-118787555D01*
X110851232Y-118633212D01*
X110749414Y-118493072D01*
X110626928Y-118370586D01*
X110486788Y-118268768D01*
X110486787Y-118268767D01*
X110486785Y-118268766D01*
X110332441Y-118190125D01*
X110332438Y-118190123D01*
X110167706Y-118136598D01*
X110167702Y-118136597D01*
X109996614Y-118109500D01*
X109996611Y-118109500D01*
X109823389Y-118109500D01*
X109823386Y-118109500D01*
X109652297Y-118136597D01*
X109652293Y-118136598D01*
X109487561Y-118190123D01*
X109487558Y-118190125D01*
X109333214Y-118268766D01*
X109193073Y-118370585D01*
X109070585Y-118493073D01*
X108968766Y-118633214D01*
X108890125Y-118787558D01*
X108890123Y-118787561D01*
X108836598Y-118952293D01*
X108836597Y-118952297D01*
X108809009Y-119126487D01*
X108805383Y-119133603D01*
X108805383Y-119141593D01*
X108791756Y-119160348D01*
X108781232Y-119181004D01*
X108774114Y-119184630D01*
X108769419Y-119191093D01*
X108747370Y-119198256D01*
X108726715Y-119208781D01*
X108711228Y-119210000D01*
X108568772Y-119210000D01*
X108510581Y-119191093D01*
X108474617Y-119141593D01*
X108470991Y-119126487D01*
X108443402Y-118952297D01*
X108443401Y-118952293D01*
X108389876Y-118787561D01*
X108389874Y-118787558D01*
X108389873Y-118787557D01*
X108389873Y-118787555D01*
X108311232Y-118633212D01*
X108209414Y-118493072D01*
X108086928Y-118370586D01*
X107946788Y-118268768D01*
X107946787Y-118268767D01*
X107946785Y-118268766D01*
X107792441Y-118190125D01*
X107792438Y-118190123D01*
X107627706Y-118136598D01*
X107627702Y-118136597D01*
X107456614Y-118109500D01*
X107456611Y-118109500D01*
X107283389Y-118109500D01*
X107283386Y-118109500D01*
X107112297Y-118136597D01*
X107112293Y-118136598D01*
X106947561Y-118190123D01*
X106947558Y-118190125D01*
X106793214Y-118268766D01*
X106653073Y-118370585D01*
X106530585Y-118493073D01*
X106428766Y-118633214D01*
X106350125Y-118787558D01*
X106350123Y-118787561D01*
X106296598Y-118952293D01*
X106296597Y-118952297D01*
X106269009Y-119126487D01*
X106265383Y-119133603D01*
X106265383Y-119141593D01*
X106251756Y-119160348D01*
X106241232Y-119181004D01*
X106234114Y-119184630D01*
X106229419Y-119191093D01*
X106207370Y-119198256D01*
X106186715Y-119208781D01*
X106171228Y-119210000D01*
X106028772Y-119210000D01*
X105970581Y-119191093D01*
X105934617Y-119141593D01*
X105930991Y-119126487D01*
X105903402Y-118952297D01*
X105903401Y-118952293D01*
X105849876Y-118787561D01*
X105849874Y-118787558D01*
X105849873Y-118787557D01*
X105849873Y-118787555D01*
X105771232Y-118633212D01*
X105669414Y-118493072D01*
X105546928Y-118370586D01*
X105406788Y-118268768D01*
X105406787Y-118268767D01*
X105406785Y-118268766D01*
X105252441Y-118190125D01*
X105252438Y-118190123D01*
X105087706Y-118136598D01*
X105087702Y-118136597D01*
X104916614Y-118109500D01*
X104916611Y-118109500D01*
X104743389Y-118109500D01*
X104743386Y-118109500D01*
X104572297Y-118136597D01*
X104572293Y-118136598D01*
X104407561Y-118190123D01*
X104407558Y-118190125D01*
X104253214Y-118268766D01*
X104113073Y-118370585D01*
X103990585Y-118493073D01*
X103888766Y-118633214D01*
X103810125Y-118787558D01*
X103810123Y-118787561D01*
X103756598Y-118952293D01*
X103756597Y-118952297D01*
X103729009Y-119126487D01*
X103725383Y-119133603D01*
X103725383Y-119141593D01*
X103711756Y-119160348D01*
X103701232Y-119181004D01*
X103694114Y-119184630D01*
X103689419Y-119191093D01*
X103667370Y-119198256D01*
X103646715Y-119208781D01*
X103631228Y-119210000D01*
X103488772Y-119210000D01*
X103430581Y-119191093D01*
X103394617Y-119141593D01*
X103390991Y-119126487D01*
X103363402Y-118952297D01*
X103363401Y-118952293D01*
X103309876Y-118787561D01*
X103309874Y-118787558D01*
X103309873Y-118787557D01*
X103309873Y-118787555D01*
X103231232Y-118633212D01*
X103129414Y-118493072D01*
X103006928Y-118370586D01*
X102866788Y-118268768D01*
X102866787Y-118268767D01*
X102866785Y-118268766D01*
X102712441Y-118190125D01*
X102712438Y-118190123D01*
X102547706Y-118136598D01*
X102547702Y-118136597D01*
X102376614Y-118109500D01*
X102376611Y-118109500D01*
X102203389Y-118109500D01*
X102203386Y-118109500D01*
X102032297Y-118136597D01*
X102032293Y-118136598D01*
X101867561Y-118190123D01*
X101867558Y-118190125D01*
X101713214Y-118268766D01*
X101573073Y-118370585D01*
X101450585Y-118493073D01*
X101348766Y-118633214D01*
X101270125Y-118787558D01*
X101270123Y-118787561D01*
X101216598Y-118952293D01*
X101216597Y-118952297D01*
X101189009Y-119126487D01*
X101185383Y-119133603D01*
X101185383Y-119141593D01*
X101171756Y-119160348D01*
X101161232Y-119181004D01*
X101154114Y-119184630D01*
X101149419Y-119191093D01*
X101127370Y-119198256D01*
X101106715Y-119208781D01*
X101091228Y-119210000D01*
X100948772Y-119210000D01*
X100890581Y-119191093D01*
X100854617Y-119141593D01*
X100850991Y-119126487D01*
X100823402Y-118952297D01*
X100823401Y-118952293D01*
X100769876Y-118787561D01*
X100769874Y-118787558D01*
X100769873Y-118787557D01*
X100769873Y-118787555D01*
X100691232Y-118633212D01*
X100589414Y-118493072D01*
X100466928Y-118370586D01*
X100326788Y-118268768D01*
X100326787Y-118268767D01*
X100326785Y-118268766D01*
X100172441Y-118190125D01*
X100172438Y-118190123D01*
X100007706Y-118136598D01*
X100007702Y-118136597D01*
X99836614Y-118109500D01*
X99836611Y-118109500D01*
X99663389Y-118109500D01*
X99663386Y-118109500D01*
X99492297Y-118136597D01*
X99492293Y-118136598D01*
X99327561Y-118190123D01*
X99327558Y-118190125D01*
X99173214Y-118268766D01*
X99033073Y-118370585D01*
X98910585Y-118493073D01*
X98808766Y-118633214D01*
X98730125Y-118787558D01*
X98730123Y-118787561D01*
X98676598Y-118952293D01*
X98676597Y-118952297D01*
X98649009Y-119126487D01*
X98645383Y-119133603D01*
X98645383Y-119141593D01*
X98631756Y-119160348D01*
X98621232Y-119181004D01*
X98614114Y-119184630D01*
X98609419Y-119191093D01*
X98587370Y-119198256D01*
X98566715Y-119208781D01*
X98551228Y-119210000D01*
X98408772Y-119210000D01*
X98350581Y-119191093D01*
X98314617Y-119141593D01*
X98310991Y-119126487D01*
X98283402Y-118952297D01*
X98283401Y-118952293D01*
X98229876Y-118787561D01*
X98229874Y-118787558D01*
X98229873Y-118787557D01*
X98229873Y-118787555D01*
X98151232Y-118633212D01*
X98049414Y-118493072D01*
X97926928Y-118370586D01*
X97786788Y-118268768D01*
X97786787Y-118268767D01*
X97786785Y-118268766D01*
X97632441Y-118190125D01*
X97632438Y-118190123D01*
X97467706Y-118136598D01*
X97467702Y-118136597D01*
X97296614Y-118109500D01*
X97296611Y-118109500D01*
X97123389Y-118109500D01*
X97123386Y-118109500D01*
X96952297Y-118136597D01*
X96952293Y-118136598D01*
X96787561Y-118190123D01*
X96787558Y-118190125D01*
X96633214Y-118268766D01*
X96493073Y-118370585D01*
X96370585Y-118493073D01*
X96268766Y-118633214D01*
X96190125Y-118787558D01*
X96190123Y-118787561D01*
X96136598Y-118952293D01*
X96136597Y-118952297D01*
X96109009Y-119126487D01*
X96105383Y-119133603D01*
X96105383Y-119141593D01*
X96091756Y-119160348D01*
X96081232Y-119181004D01*
X96074114Y-119184630D01*
X96069419Y-119191093D01*
X96047370Y-119198256D01*
X96026715Y-119208781D01*
X96011228Y-119210000D01*
X95868772Y-119210000D01*
X95810581Y-119191093D01*
X95774617Y-119141593D01*
X95770991Y-119126487D01*
X95743402Y-118952297D01*
X95743401Y-118952293D01*
X95689876Y-118787561D01*
X95689874Y-118787558D01*
X95689873Y-118787557D01*
X95689873Y-118787555D01*
X95611232Y-118633212D01*
X95509414Y-118493072D01*
X95386928Y-118370586D01*
X95246788Y-118268768D01*
X95246787Y-118268767D01*
X95246785Y-118268766D01*
X95092441Y-118190125D01*
X95092438Y-118190123D01*
X94927706Y-118136598D01*
X94927702Y-118136597D01*
X94756614Y-118109500D01*
X94756611Y-118109500D01*
X94583389Y-118109500D01*
X94583386Y-118109500D01*
X94412297Y-118136597D01*
X94412293Y-118136598D01*
X94247561Y-118190123D01*
X94247558Y-118190125D01*
X94093214Y-118268766D01*
X93953073Y-118370585D01*
X93830585Y-118493073D01*
X93728766Y-118633214D01*
X93650125Y-118787558D01*
X93650123Y-118787561D01*
X93596598Y-118952293D01*
X93596597Y-118952297D01*
X93569009Y-119126487D01*
X93565383Y-119133603D01*
X93565383Y-119141593D01*
X93551756Y-119160348D01*
X93541232Y-119181004D01*
X93534114Y-119184630D01*
X93529419Y-119191093D01*
X93507370Y-119198256D01*
X93486715Y-119208781D01*
X93471228Y-119210000D01*
X93328772Y-119210000D01*
X93270581Y-119191093D01*
X93234617Y-119141593D01*
X93230991Y-119126487D01*
X93203402Y-118952297D01*
X93203401Y-118952293D01*
X93149876Y-118787561D01*
X93149874Y-118787558D01*
X93149873Y-118787557D01*
X93149873Y-118787555D01*
X93071232Y-118633212D01*
X92969414Y-118493072D01*
X92846928Y-118370586D01*
X92706788Y-118268768D01*
X92706787Y-118268767D01*
X92706785Y-118268766D01*
X92552441Y-118190125D01*
X92552438Y-118190123D01*
X92387706Y-118136598D01*
X92387702Y-118136597D01*
X92216614Y-118109500D01*
X92216611Y-118109500D01*
X92043389Y-118109500D01*
X92043386Y-118109500D01*
X91872297Y-118136597D01*
X91872293Y-118136598D01*
X91707561Y-118190123D01*
X91707558Y-118190125D01*
X91553214Y-118268766D01*
X91413073Y-118370585D01*
X91290585Y-118493073D01*
X91188766Y-118633214D01*
X91110125Y-118787558D01*
X91110123Y-118787561D01*
X91056598Y-118952293D01*
X91056597Y-118952297D01*
X91029009Y-119126487D01*
X91025383Y-119133603D01*
X91025383Y-119141593D01*
X91011756Y-119160348D01*
X91001232Y-119181004D01*
X90994114Y-119184630D01*
X90989419Y-119191093D01*
X90967370Y-119198256D01*
X90946715Y-119208781D01*
X90931228Y-119210000D01*
X90788772Y-119210000D01*
X90730581Y-119191093D01*
X90694617Y-119141593D01*
X90690991Y-119126487D01*
X90663402Y-118952297D01*
X90663401Y-118952293D01*
X90609876Y-118787561D01*
X90609874Y-118787558D01*
X90609873Y-118787557D01*
X90609873Y-118787555D01*
X90531232Y-118633212D01*
X90429414Y-118493072D01*
X90306928Y-118370586D01*
X90166788Y-118268768D01*
X90166787Y-118268767D01*
X90166785Y-118268766D01*
X90012441Y-118190125D01*
X90012438Y-118190123D01*
X89847706Y-118136598D01*
X89847702Y-118136597D01*
X89676614Y-118109500D01*
X89676611Y-118109500D01*
X89503389Y-118109500D01*
X89503386Y-118109500D01*
X89332297Y-118136597D01*
X89332293Y-118136598D01*
X89167561Y-118190123D01*
X89167558Y-118190125D01*
X89013214Y-118268766D01*
X88873073Y-118370585D01*
X88750585Y-118493073D01*
X88648766Y-118633214D01*
X88570125Y-118787558D01*
X88570123Y-118787561D01*
X88516598Y-118952293D01*
X88516597Y-118952297D01*
X88489009Y-119126487D01*
X88485383Y-119133603D01*
X88485383Y-119141593D01*
X88471756Y-119160348D01*
X88461232Y-119181004D01*
X88454114Y-119184630D01*
X88449419Y-119191093D01*
X88427370Y-119198256D01*
X88406715Y-119208781D01*
X88391228Y-119210000D01*
X88248772Y-119210000D01*
X88190581Y-119191093D01*
X88154617Y-119141593D01*
X88150991Y-119126487D01*
X88123402Y-118952297D01*
X88123401Y-118952293D01*
X88069876Y-118787561D01*
X88069874Y-118787558D01*
X88069873Y-118787557D01*
X88069873Y-118787555D01*
X87991232Y-118633212D01*
X87889414Y-118493072D01*
X87766928Y-118370586D01*
X87626788Y-118268768D01*
X87626787Y-118268767D01*
X87626785Y-118268766D01*
X87472441Y-118190125D01*
X87472438Y-118190123D01*
X87307706Y-118136598D01*
X87307702Y-118136597D01*
X87136614Y-118109500D01*
X87136611Y-118109500D01*
X86963389Y-118109500D01*
X86963386Y-118109500D01*
X86792297Y-118136597D01*
X86792293Y-118136598D01*
X86627561Y-118190123D01*
X86627558Y-118190125D01*
X86473214Y-118268766D01*
X86333073Y-118370585D01*
X86210585Y-118493073D01*
X86108766Y-118633214D01*
X86030125Y-118787558D01*
X86030123Y-118787561D01*
X85976598Y-118952293D01*
X85976597Y-118952297D01*
X85949009Y-119126487D01*
X85945383Y-119133603D01*
X85945383Y-119141593D01*
X85931756Y-119160348D01*
X85921232Y-119181004D01*
X85914114Y-119184630D01*
X85909419Y-119191093D01*
X85887370Y-119198256D01*
X85866715Y-119208781D01*
X85851228Y-119210000D01*
X85708772Y-119210000D01*
X85650581Y-119191093D01*
X85614617Y-119141593D01*
X85610991Y-119126487D01*
X85583402Y-118952297D01*
X85583401Y-118952293D01*
X85529876Y-118787561D01*
X85529874Y-118787558D01*
X85529873Y-118787557D01*
X85529873Y-118787555D01*
X85451232Y-118633212D01*
X85349414Y-118493072D01*
X85226928Y-118370586D01*
X85086788Y-118268768D01*
X85086787Y-118268767D01*
X85086785Y-118268766D01*
X84932441Y-118190125D01*
X84932438Y-118190123D01*
X84767706Y-118136598D01*
X84767702Y-118136597D01*
X84596614Y-118109500D01*
X84596611Y-118109500D01*
X84423389Y-118109500D01*
X84423386Y-118109500D01*
X84252297Y-118136597D01*
X84252293Y-118136598D01*
X84087561Y-118190123D01*
X84087558Y-118190125D01*
X83933214Y-118268766D01*
X83793073Y-118370585D01*
X83670585Y-118493073D01*
X83568766Y-118633214D01*
X83490125Y-118787558D01*
X83490123Y-118787561D01*
X83436598Y-118952293D01*
X83436597Y-118952297D01*
X83409009Y-119126487D01*
X83405383Y-119133603D01*
X83405383Y-119141593D01*
X83391756Y-119160348D01*
X83381232Y-119181004D01*
X83374114Y-119184630D01*
X83369419Y-119191093D01*
X83347370Y-119198256D01*
X83326715Y-119208781D01*
X83311228Y-119210000D01*
X83168772Y-119210000D01*
X83110581Y-119191093D01*
X83074617Y-119141593D01*
X83070991Y-119126487D01*
X83043402Y-118952297D01*
X83043401Y-118952293D01*
X82989876Y-118787561D01*
X82989874Y-118787558D01*
X82989873Y-118787557D01*
X82989873Y-118787555D01*
X82911232Y-118633212D01*
X82809414Y-118493072D01*
X82686928Y-118370586D01*
X82546788Y-118268768D01*
X82546787Y-118268767D01*
X82546785Y-118268766D01*
X82392441Y-118190125D01*
X82392438Y-118190123D01*
X82227706Y-118136598D01*
X82227702Y-118136597D01*
X82056614Y-118109500D01*
X82056611Y-118109500D01*
X81883389Y-118109500D01*
X81883386Y-118109500D01*
X81712297Y-118136597D01*
X81712293Y-118136598D01*
X81547561Y-118190123D01*
X81547558Y-118190125D01*
X81393214Y-118268766D01*
X81253073Y-118370585D01*
X81130585Y-118493073D01*
X81028766Y-118633214D01*
X80950125Y-118787558D01*
X80950123Y-118787561D01*
X80896598Y-118952293D01*
X80896597Y-118952297D01*
X80869500Y-119123385D01*
X80869500Y-119296614D01*
X80896597Y-119467702D01*
X80896598Y-119467706D01*
X80950123Y-119632438D01*
X80950125Y-119632441D01*
X80950126Y-119632444D01*
X80950127Y-119632445D01*
X81028768Y-119786788D01*
X81130586Y-119926928D01*
X81253072Y-120049414D01*
X81393212Y-120151232D01*
X81547555Y-120229873D01*
X81630566Y-120256845D01*
X81680066Y-120292809D01*
X81698973Y-120351000D01*
X81680066Y-120409191D01*
X81630565Y-120445155D01*
X81599973Y-120450000D01*
X81065796Y-120450000D01*
X81035399Y-120452850D01*
X81035397Y-120452850D01*
X80907352Y-120497654D01*
X80798209Y-120578207D01*
X80798207Y-120578209D01*
X80717654Y-120687352D01*
X80672850Y-120815398D01*
X80670000Y-120845788D01*
X80670000Y-121499999D01*
X80670001Y-121500000D01*
X81536988Y-121500000D01*
X81504075Y-121557007D01*
X81470000Y-121684174D01*
X81470000Y-121815826D01*
X81504075Y-121942993D01*
X81536988Y-122000000D01*
X80670002Y-122000000D01*
X80670001Y-122000001D01*
X80670001Y-122520500D01*
X80651094Y-122578691D01*
X80601594Y-122614655D01*
X80571001Y-122619500D01*
X75609500Y-122619500D01*
X75551309Y-122600593D01*
X75515345Y-122551093D01*
X75510500Y-122520500D01*
X75510500Y-113865655D01*
X75529407Y-113807464D01*
X75578907Y-113771500D01*
X75640093Y-113771500D01*
X75689593Y-113807464D01*
X75697710Y-113820710D01*
X75757139Y-113937348D01*
X75757143Y-113937353D01*
X75789523Y-113981920D01*
X75789524Y-113981920D01*
X76386037Y-113385408D01*
X76403075Y-113448993D01*
X76468901Y-113563007D01*
X76561993Y-113656099D01*
X76676007Y-113721925D01*
X76739590Y-113738962D01*
X76143078Y-114335475D01*
X76187647Y-114367858D01*
X76369972Y-114460756D01*
X76564587Y-114523991D01*
X76766685Y-114556000D01*
X76971315Y-114556000D01*
X77173412Y-114523991D01*
X77368027Y-114460756D01*
X77550342Y-114367863D01*
X77550350Y-114367858D01*
X77594920Y-114335475D01*
X76998407Y-113738962D01*
X77061993Y-113721925D01*
X77176007Y-113656099D01*
X77269099Y-113563007D01*
X77334925Y-113448993D01*
X77351962Y-113385408D01*
X77948475Y-113981920D01*
X77980858Y-113937350D01*
X77980863Y-113937342D01*
X78050790Y-113800102D01*
X78094055Y-113756838D01*
X78154487Y-113747266D01*
X78209003Y-113775043D01*
X78227210Y-113800102D01*
X78297139Y-113937348D01*
X78297143Y-113937353D01*
X78329523Y-113981920D01*
X78329524Y-113981920D01*
X78926037Y-113385408D01*
X78943075Y-113448993D01*
X79008901Y-113563007D01*
X79101993Y-113656099D01*
X79216007Y-113721925D01*
X79279590Y-113738962D01*
X78683078Y-114335475D01*
X78727647Y-114367858D01*
X78909972Y-114460756D01*
X79104587Y-114523991D01*
X79306685Y-114556000D01*
X79511315Y-114556000D01*
X79713412Y-114523991D01*
X79908027Y-114460756D01*
X80090342Y-114367863D01*
X80090350Y-114367858D01*
X80134920Y-114335475D01*
X79538407Y-113738962D01*
X79601993Y-113721925D01*
X79716007Y-113656099D01*
X79809099Y-113563007D01*
X79874925Y-113448993D01*
X79891962Y-113385407D01*
X80488475Y-113981920D01*
X80520858Y-113937350D01*
X80520863Y-113937342D01*
X80613756Y-113755027D01*
X80676991Y-113560412D01*
X80709000Y-113358315D01*
X80709000Y-113153684D01*
X80676991Y-112951587D01*
X80613756Y-112756972D01*
X80520858Y-112574647D01*
X80488475Y-112530078D01*
X79891962Y-113126590D01*
X79874925Y-113063007D01*
X79809099Y-112948993D01*
X79716007Y-112855901D01*
X79601993Y-112790075D01*
X79538407Y-112773037D01*
X80134920Y-112176524D01*
X80134920Y-112176523D01*
X80090353Y-112144143D01*
X80090348Y-112144139D01*
X79908027Y-112051243D01*
X79713413Y-111988009D01*
X79678361Y-111982457D01*
X79623845Y-111954679D01*
X79596068Y-111900162D01*
X79605640Y-111839730D01*
X79648905Y-111796466D01*
X79663256Y-111790521D01*
X79666698Y-111789402D01*
X79666701Y-111789402D01*
X79831445Y-111735873D01*
X79985788Y-111657232D01*
X80125928Y-111555414D01*
X80248414Y-111432928D01*
X80350232Y-111292788D01*
X80428873Y-111138445D01*
X80428874Y-111138440D01*
X80428876Y-111138438D01*
X80482401Y-110973706D01*
X80482402Y-110973702D01*
X80509500Y-110802614D01*
X80509500Y-110629385D01*
X80482402Y-110458297D01*
X80482401Y-110458293D01*
X80428876Y-110293561D01*
X80428874Y-110293558D01*
X80428873Y-110293557D01*
X80428873Y-110293555D01*
X80350232Y-110139212D01*
X80248414Y-109999072D01*
X80125928Y-109876586D01*
X79985788Y-109774768D01*
X79985787Y-109774767D01*
X79985785Y-109774766D01*
X79831441Y-109696125D01*
X79831438Y-109696123D01*
X79666706Y-109642598D01*
X79666701Y-109642597D01*
X79492513Y-109615008D01*
X79485397Y-109611382D01*
X79477407Y-109611382D01*
X79458648Y-109597752D01*
X79437996Y-109587230D01*
X79434370Y-109580113D01*
X79427907Y-109575418D01*
X79420742Y-109553368D01*
X79410219Y-109532714D01*
X79409000Y-109517227D01*
X79409000Y-109374772D01*
X79427907Y-109316581D01*
X79477407Y-109280617D01*
X79492513Y-109276991D01*
X79666702Y-109249402D01*
X79666706Y-109249401D01*
X79831438Y-109195876D01*
X79831440Y-109195874D01*
X79831445Y-109195873D01*
X79985788Y-109117232D01*
X80125928Y-109015414D01*
X80243817Y-108897525D01*
X92959500Y-108897525D01*
X92959500Y-109042474D01*
X92997017Y-109182489D01*
X93069487Y-109308010D01*
X93069489Y-109308012D01*
X93069491Y-109308015D01*
X93171985Y-109410509D01*
X93171987Y-109410510D01*
X93171989Y-109410512D01*
X93297511Y-109482982D01*
X93297512Y-109482982D01*
X93297515Y-109482984D01*
X93437525Y-109520500D01*
X93437526Y-109520500D01*
X93582474Y-109520500D01*
X93582475Y-109520500D01*
X93722485Y-109482984D01*
X93722487Y-109482982D01*
X93722489Y-109482982D01*
X93848010Y-109410512D01*
X93848010Y-109410511D01*
X93848015Y-109410509D01*
X93950509Y-109308015D01*
X93950512Y-109308010D01*
X94022982Y-109182489D01*
X94022982Y-109182487D01*
X94022984Y-109182485D01*
X94060500Y-109042475D01*
X94060500Y-108897525D01*
X94022984Y-108757515D01*
X94022982Y-108757512D01*
X94022982Y-108757510D01*
X93950512Y-108631989D01*
X93950510Y-108631987D01*
X93950509Y-108631985D01*
X93848015Y-108529491D01*
X93848012Y-108529489D01*
X93848010Y-108529487D01*
X93722488Y-108457017D01*
X93722489Y-108457017D01*
X93680164Y-108445676D01*
X93582475Y-108419500D01*
X93437525Y-108419500D01*
X93384527Y-108433701D01*
X93297510Y-108457017D01*
X93171989Y-108529487D01*
X93069487Y-108631989D01*
X92997017Y-108757510D01*
X92959500Y-108897525D01*
X80243817Y-108897525D01*
X80248414Y-108892928D01*
X80350232Y-108752788D01*
X80428873Y-108598445D01*
X80428874Y-108598440D01*
X80428876Y-108598438D01*
X80482401Y-108433706D01*
X80482402Y-108433702D01*
X80509500Y-108262614D01*
X80509500Y-108089385D01*
X80482402Y-107918297D01*
X80482401Y-107918293D01*
X80428876Y-107753561D01*
X80428874Y-107753558D01*
X80428873Y-107753557D01*
X80428873Y-107753555D01*
X80350232Y-107599212D01*
X80248414Y-107459072D01*
X80125928Y-107336586D01*
X79985788Y-107234768D01*
X79985787Y-107234767D01*
X79985785Y-107234766D01*
X79831441Y-107156125D01*
X79831438Y-107156123D01*
X79666706Y-107102598D01*
X79666701Y-107102597D01*
X79492513Y-107075008D01*
X79485397Y-107071382D01*
X79477407Y-107071382D01*
X79458648Y-107057752D01*
X79437996Y-107047230D01*
X79434370Y-107040113D01*
X79427907Y-107035418D01*
X79420742Y-107013368D01*
X79410219Y-106992714D01*
X79409000Y-106977227D01*
X79409000Y-106834772D01*
X79427907Y-106776581D01*
X79477407Y-106740617D01*
X79492513Y-106736991D01*
X79666702Y-106709402D01*
X79666706Y-106709401D01*
X79831438Y-106655876D01*
X79831440Y-106655874D01*
X79831445Y-106655873D01*
X79985788Y-106577232D01*
X80125928Y-106475414D01*
X80248414Y-106352928D01*
X80350232Y-106212788D01*
X80428873Y-106058445D01*
X80428874Y-106058440D01*
X80428876Y-106058438D01*
X80482401Y-105893706D01*
X80482402Y-105893702D01*
X80509500Y-105722614D01*
X80509500Y-105549385D01*
X80482402Y-105378297D01*
X80482401Y-105378293D01*
X80428876Y-105213561D01*
X80428874Y-105213558D01*
X80428873Y-105213557D01*
X80428873Y-105213555D01*
X80356987Y-105072470D01*
X86589490Y-105072470D01*
X86589490Y-105204254D01*
X86608611Y-105275614D01*
X86623599Y-105331552D01*
X86689486Y-105445671D01*
X86689488Y-105445673D01*
X86689490Y-105445676D01*
X86782676Y-105538862D01*
X86806527Y-105552632D01*
X86847468Y-105598101D01*
X86853865Y-105658951D01*
X86823273Y-105711939D01*
X86806530Y-105724104D01*
X86782690Y-105737868D01*
X86689496Y-105831062D01*
X86623609Y-105945181D01*
X86623608Y-105945186D01*
X86589500Y-106072480D01*
X86589500Y-106204264D01*
X86617158Y-106307485D01*
X86623609Y-106331562D01*
X86689496Y-106445681D01*
X86689498Y-106445683D01*
X86689500Y-106445686D01*
X86782686Y-106538872D01*
X86782688Y-106538873D01*
X86806525Y-106552636D01*
X86847465Y-106598106D01*
X86853860Y-106658956D01*
X86823267Y-106711944D01*
X86806525Y-106724108D01*
X86782688Y-106737870D01*
X86689496Y-106831062D01*
X86623609Y-106945181D01*
X86615023Y-106977227D01*
X86589500Y-107072480D01*
X86589500Y-107204264D01*
X86603894Y-107257982D01*
X86623609Y-107331562D01*
X86689496Y-107445681D01*
X86689498Y-107445683D01*
X86689500Y-107445686D01*
X86782686Y-107538872D01*
X86782688Y-107538873D01*
X86806516Y-107552631D01*
X86847457Y-107598101D01*
X86853851Y-107658952D01*
X86823258Y-107711939D01*
X86806516Y-107724103D01*
X86782688Y-107737860D01*
X86689496Y-107831052D01*
X86623609Y-107945171D01*
X86614205Y-107980268D01*
X86589500Y-108072470D01*
X86589500Y-108204254D01*
X86605773Y-108264985D01*
X86623609Y-108331552D01*
X86689496Y-108445671D01*
X86689498Y-108445673D01*
X86689500Y-108445676D01*
X86782686Y-108538862D01*
X86782688Y-108538863D01*
X86782690Y-108538865D01*
X86896810Y-108604752D01*
X86896808Y-108604752D01*
X86896812Y-108604753D01*
X86896814Y-108604754D01*
X87024108Y-108638862D01*
X87024110Y-108638862D01*
X87155890Y-108638862D01*
X87155892Y-108638862D01*
X87283186Y-108604754D01*
X87283188Y-108604752D01*
X87283190Y-108604752D01*
X87397309Y-108538865D01*
X87397309Y-108538864D01*
X87397314Y-108538862D01*
X87490500Y-108445676D01*
X87504264Y-108421836D01*
X87549733Y-108380896D01*
X87610583Y-108374500D01*
X87663571Y-108405093D01*
X87675734Y-108421833D01*
X87689500Y-108445676D01*
X87782686Y-108538862D01*
X87782688Y-108538863D01*
X87782690Y-108538865D01*
X87896810Y-108604752D01*
X87896808Y-108604752D01*
X87896812Y-108604753D01*
X87896814Y-108604754D01*
X88024108Y-108638862D01*
X88024110Y-108638862D01*
X88155890Y-108638862D01*
X88155892Y-108638862D01*
X88283186Y-108604754D01*
X88283188Y-108604752D01*
X88283190Y-108604752D01*
X88397309Y-108538865D01*
X88397309Y-108538864D01*
X88397314Y-108538862D01*
X88490500Y-108445676D01*
X88497414Y-108433701D01*
X88556390Y-108331552D01*
X88556390Y-108331550D01*
X88556392Y-108331548D01*
X88589189Y-108209145D01*
X94168800Y-108209145D01*
X94168800Y-108354095D01*
X94186952Y-108421837D01*
X94206317Y-108494109D01*
X94278787Y-108619630D01*
X94278789Y-108619632D01*
X94278791Y-108619635D01*
X94381285Y-108722129D01*
X94381287Y-108722130D01*
X94381289Y-108722132D01*
X94506811Y-108794602D01*
X94506812Y-108794602D01*
X94506815Y-108794604D01*
X94646825Y-108832120D01*
X94646826Y-108832120D01*
X94791774Y-108832120D01*
X94791775Y-108832120D01*
X94931785Y-108794604D01*
X94931787Y-108794602D01*
X94931789Y-108794602D01*
X95057310Y-108722132D01*
X95057310Y-108722131D01*
X95057315Y-108722129D01*
X95159809Y-108619635D01*
X95172043Y-108598445D01*
X95232282Y-108494109D01*
X95232282Y-108494107D01*
X95232284Y-108494105D01*
X95269800Y-108354095D01*
X95269800Y-108209145D01*
X95232284Y-108069135D01*
X95232282Y-108069132D01*
X95232282Y-108069130D01*
X95159812Y-107943609D01*
X95159810Y-107943607D01*
X95159809Y-107943605D01*
X95057315Y-107841111D01*
X95057312Y-107841109D01*
X95057310Y-107841107D01*
X94931788Y-107768637D01*
X94931789Y-107768637D01*
X94875514Y-107753558D01*
X94791775Y-107731120D01*
X94646825Y-107731120D01*
X94621668Y-107737861D01*
X94506810Y-107768637D01*
X94381289Y-107841107D01*
X94278787Y-107943609D01*
X94206317Y-108069130D01*
X94205422Y-108072470D01*
X94168800Y-108209145D01*
X88589189Y-108209145D01*
X88590500Y-108204254D01*
X88590500Y-108072470D01*
X88556392Y-107945176D01*
X88556390Y-107945173D01*
X88556390Y-107945171D01*
X88490503Y-107831052D01*
X88490501Y-107831050D01*
X88490500Y-107831048D01*
X88397314Y-107737862D01*
X88373474Y-107724097D01*
X88332534Y-107678629D01*
X88326138Y-107617779D01*
X88356731Y-107564791D01*
X88373474Y-107552626D01*
X88397314Y-107538862D01*
X88490500Y-107445676D01*
X88491121Y-107444600D01*
X88556390Y-107331552D01*
X88556390Y-107331550D01*
X88556392Y-107331548D01*
X88590500Y-107204254D01*
X88590500Y-107072470D01*
X88556392Y-106945176D01*
X88556390Y-106945173D01*
X88556390Y-106945171D01*
X88490503Y-106831052D01*
X88490501Y-106831050D01*
X88490500Y-106831048D01*
X88397314Y-106737862D01*
X88373469Y-106724095D01*
X88332529Y-106678626D01*
X88326133Y-106617776D01*
X88356726Y-106564788D01*
X88373471Y-106552622D01*
X88397304Y-106538862D01*
X88490490Y-106445676D01*
X88504255Y-106421833D01*
X88549724Y-106380892D01*
X88610574Y-106374496D01*
X88663563Y-106405088D01*
X88675729Y-106421834D01*
X88689500Y-106445686D01*
X88782686Y-106538872D01*
X88782688Y-106538873D01*
X88782690Y-106538875D01*
X88896810Y-106604762D01*
X88896808Y-106604762D01*
X88896812Y-106604763D01*
X88896814Y-106604764D01*
X89024108Y-106638872D01*
X89024110Y-106638872D01*
X89155890Y-106638872D01*
X89155892Y-106638872D01*
X89283186Y-106604764D01*
X89283188Y-106604762D01*
X89283190Y-106604762D01*
X89397309Y-106538875D01*
X89397309Y-106538874D01*
X89397314Y-106538872D01*
X89490500Y-106445686D01*
X89513931Y-106405103D01*
X89556390Y-106331562D01*
X89556390Y-106331560D01*
X89556392Y-106331558D01*
X89590500Y-106204264D01*
X89590500Y-106072480D01*
X89556392Y-105945186D01*
X89556390Y-105945183D01*
X89556390Y-105945181D01*
X89490503Y-105831062D01*
X89490501Y-105831060D01*
X89490500Y-105831058D01*
X89397314Y-105737872D01*
X89397307Y-105737868D01*
X89373462Y-105724101D01*
X89332520Y-105678631D01*
X89326124Y-105617781D01*
X89356717Y-105564793D01*
X89373462Y-105552627D01*
X89373464Y-105552626D01*
X89397304Y-105538862D01*
X89490490Y-105445676D01*
X89504258Y-105421828D01*
X89549727Y-105380887D01*
X89610577Y-105374491D01*
X89663566Y-105405083D01*
X89675731Y-105421828D01*
X89689500Y-105445676D01*
X89782686Y-105538862D01*
X89782688Y-105538863D01*
X89782690Y-105538865D01*
X89896810Y-105604752D01*
X89896808Y-105604752D01*
X89896812Y-105604753D01*
X89896814Y-105604754D01*
X90024108Y-105638862D01*
X90024110Y-105638862D01*
X90155890Y-105638862D01*
X90155892Y-105638862D01*
X90283186Y-105604754D01*
X90283188Y-105604752D01*
X90283190Y-105604752D01*
X90352404Y-105564791D01*
X90397314Y-105538862D01*
X90397318Y-105538857D01*
X90400624Y-105536322D01*
X90458299Y-105515896D01*
X90460894Y-105515862D01*
X90797728Y-105515862D01*
X90855919Y-105534769D01*
X90891883Y-105584269D01*
X90891883Y-105645455D01*
X90855919Y-105694955D01*
X90847234Y-105700595D01*
X90827586Y-105711939D01*
X90782687Y-105737861D01*
X90689496Y-105831052D01*
X90623609Y-105945171D01*
X90623605Y-105945186D01*
X90589500Y-106072470D01*
X90589500Y-106204254D01*
X90619417Y-106315907D01*
X90623609Y-106331552D01*
X90689496Y-106445671D01*
X90689498Y-106445673D01*
X90689500Y-106445676D01*
X90782686Y-106538862D01*
X90782688Y-106538863D01*
X90782690Y-106538865D01*
X90896810Y-106604752D01*
X90896808Y-106604752D01*
X90896812Y-106604753D01*
X90896814Y-106604754D01*
X91024108Y-106638862D01*
X91024110Y-106638862D01*
X91155890Y-106638862D01*
X91155892Y-106638862D01*
X91283186Y-106604754D01*
X91283188Y-106604752D01*
X91283190Y-106604752D01*
X91397309Y-106538865D01*
X91397309Y-106538864D01*
X91397314Y-106538862D01*
X91490500Y-106445676D01*
X91497813Y-106433010D01*
X91556390Y-106331552D01*
X91556390Y-106331550D01*
X91556392Y-106331548D01*
X91590500Y-106204254D01*
X91590500Y-106072470D01*
X91556392Y-105945176D01*
X91556390Y-105945173D01*
X91556390Y-105945171D01*
X91490503Y-105831052D01*
X91490501Y-105831050D01*
X91490500Y-105831048D01*
X91397314Y-105737862D01*
X91332771Y-105700598D01*
X91291831Y-105655129D01*
X91285435Y-105594279D01*
X91316028Y-105541291D01*
X91371924Y-105516404D01*
X91382272Y-105515862D01*
X92080989Y-105515862D01*
X92139180Y-105534769D01*
X92150992Y-105544857D01*
X92778209Y-106172075D01*
X92808659Y-106189655D01*
X92811140Y-106191087D01*
X92811142Y-106191089D01*
X92811143Y-106191089D01*
X92848721Y-106212785D01*
X92864291Y-106221774D01*
X92960301Y-106247500D01*
X98576642Y-106247500D01*
X98634833Y-106266407D01*
X98670797Y-106315907D01*
X98675642Y-106346500D01*
X98675642Y-107551104D01*
X98673173Y-107558701D01*
X98674423Y-107566591D01*
X98663898Y-107587246D01*
X98656735Y-107609295D01*
X98646646Y-107621108D01*
X98565630Y-107702124D01*
X98511113Y-107729901D01*
X98495626Y-107731120D01*
X98447525Y-107731120D01*
X98422368Y-107737861D01*
X98307510Y-107768637D01*
X98181989Y-107841107D01*
X98079487Y-107943609D01*
X98007017Y-108069130D01*
X98006122Y-108072470D01*
X97969500Y-108209145D01*
X97969500Y-108354095D01*
X97987652Y-108421837D01*
X98007017Y-108494109D01*
X98079487Y-108619630D01*
X98079489Y-108619632D01*
X98079491Y-108619635D01*
X98181985Y-108722129D01*
X98181987Y-108722130D01*
X98181989Y-108722132D01*
X98307511Y-108794602D01*
X98307512Y-108794602D01*
X98307515Y-108794604D01*
X98447525Y-108832120D01*
X98447526Y-108832120D01*
X98592474Y-108832120D01*
X98592475Y-108832120D01*
X98732485Y-108794604D01*
X98732487Y-108794602D01*
X98732489Y-108794602D01*
X98858010Y-108722132D01*
X98858010Y-108722131D01*
X98858015Y-108722129D01*
X98960509Y-108619635D01*
X98972743Y-108598445D01*
X99032982Y-108494109D01*
X99032982Y-108494107D01*
X99032984Y-108494105D01*
X99070500Y-108354095D01*
X99070500Y-108305992D01*
X99089407Y-108247801D01*
X99099497Y-108235988D01*
X99131233Y-108204252D01*
X99355218Y-107980268D01*
X99359688Y-107972525D01*
X111784500Y-107972525D01*
X111784500Y-108117474D01*
X111822017Y-108257489D01*
X111894487Y-108383010D01*
X111894489Y-108383012D01*
X111894491Y-108383015D01*
X111996985Y-108485509D01*
X111996987Y-108485510D01*
X111996989Y-108485512D01*
X112122511Y-108557982D01*
X112122512Y-108557982D01*
X112122515Y-108557984D01*
X112262525Y-108595500D01*
X112262526Y-108595500D01*
X112407474Y-108595500D01*
X112407475Y-108595500D01*
X112547485Y-108557984D01*
X112547487Y-108557982D01*
X112547489Y-108557982D01*
X112673010Y-108485512D01*
X112673010Y-108485511D01*
X112673015Y-108485509D01*
X112775509Y-108383015D01*
X112775512Y-108383010D01*
X112847982Y-108257489D01*
X112847982Y-108257487D01*
X112847984Y-108257485D01*
X112885500Y-108117475D01*
X112885500Y-107972525D01*
X112847984Y-107832515D01*
X112847982Y-107832512D01*
X112847982Y-107832510D01*
X112775512Y-107706989D01*
X112775510Y-107706987D01*
X112775509Y-107706985D01*
X112673015Y-107604491D01*
X112673012Y-107604489D01*
X112673010Y-107604487D01*
X112547488Y-107532017D01*
X112547489Y-107532017D01*
X112517896Y-107524087D01*
X112407475Y-107494500D01*
X112262525Y-107494500D01*
X112200790Y-107511041D01*
X112122510Y-107532017D01*
X111996989Y-107604487D01*
X111894487Y-107706989D01*
X111822017Y-107832510D01*
X111784500Y-107972525D01*
X99359688Y-107972525D01*
X99404916Y-107894188D01*
X99430642Y-107798177D01*
X99430642Y-107698779D01*
X99430642Y-107317525D01*
X110159500Y-107317525D01*
X110159500Y-107462474D01*
X110197017Y-107602489D01*
X110269487Y-107728010D01*
X110269489Y-107728012D01*
X110269491Y-107728015D01*
X110371985Y-107830509D01*
X110371987Y-107830510D01*
X110371989Y-107830512D01*
X110497511Y-107902982D01*
X110497512Y-107902982D01*
X110497515Y-107902984D01*
X110637525Y-107940500D01*
X110637526Y-107940500D01*
X110782474Y-107940500D01*
X110782475Y-107940500D01*
X110922485Y-107902984D01*
X110922487Y-107902982D01*
X110922489Y-107902982D01*
X110961776Y-107880300D01*
X111048010Y-107830512D01*
X111048010Y-107830511D01*
X111048015Y-107830509D01*
X111150509Y-107728015D01*
X111152770Y-107724099D01*
X111222982Y-107602489D01*
X111222982Y-107602487D01*
X111222984Y-107602485D01*
X111260500Y-107462475D01*
X111260500Y-107317525D01*
X111222984Y-107177515D01*
X111222982Y-107177512D01*
X111222982Y-107177510D01*
X111150512Y-107051989D01*
X111150510Y-107051987D01*
X111150509Y-107051985D01*
X111048015Y-106949491D01*
X111048012Y-106949489D01*
X111048010Y-106949487D01*
X110922488Y-106877017D01*
X110922489Y-106877017D01*
X110839918Y-106854892D01*
X110782475Y-106839500D01*
X110637525Y-106839500D01*
X110580082Y-106854892D01*
X110497510Y-106877017D01*
X110371989Y-106949487D01*
X110269487Y-107051989D01*
X110197017Y-107177510D01*
X110159500Y-107317525D01*
X99430642Y-107317525D01*
X99430642Y-106672525D01*
X116334500Y-106672525D01*
X116334500Y-106817475D01*
X116359319Y-106910099D01*
X116372017Y-106957489D01*
X116444487Y-107083010D01*
X116444489Y-107083012D01*
X116444491Y-107083015D01*
X116546985Y-107185509D01*
X116546987Y-107185510D01*
X116546989Y-107185512D01*
X116672511Y-107257982D01*
X116672512Y-107257982D01*
X116672515Y-107257984D01*
X116812525Y-107295500D01*
X116812526Y-107295500D01*
X116957474Y-107295500D01*
X116957475Y-107295500D01*
X117097485Y-107257984D01*
X117097487Y-107257982D01*
X117097489Y-107257982D01*
X117223010Y-107185512D01*
X117223010Y-107185511D01*
X117223015Y-107185509D01*
X117325509Y-107083015D01*
X117331591Y-107072481D01*
X117397982Y-106957489D01*
X117397982Y-106957487D01*
X117397984Y-106957485D01*
X117435500Y-106817475D01*
X117435500Y-106744500D01*
X117454407Y-106686309D01*
X117503907Y-106650345D01*
X117534500Y-106645500D01*
X117682474Y-106645500D01*
X117682475Y-106645500D01*
X117822485Y-106607984D01*
X117822487Y-106607982D01*
X117822489Y-106607982D01*
X117948010Y-106535512D01*
X117948010Y-106535511D01*
X117948015Y-106535509D01*
X118050509Y-106433015D01*
X118056067Y-106423389D01*
X118122982Y-106307489D01*
X118122982Y-106307487D01*
X118122984Y-106307485D01*
X118160500Y-106167475D01*
X118160500Y-106022525D01*
X118122984Y-105882515D01*
X118122982Y-105882512D01*
X118122982Y-105882510D01*
X118050512Y-105756989D01*
X118050510Y-105756987D01*
X118050509Y-105756985D01*
X117948015Y-105654491D01*
X117948012Y-105654489D01*
X117948010Y-105654487D01*
X117822488Y-105582017D01*
X117822489Y-105582017D01*
X117773036Y-105568766D01*
X117682475Y-105544500D01*
X117537525Y-105544500D01*
X117475790Y-105561041D01*
X117397510Y-105582017D01*
X117271989Y-105654487D01*
X117169487Y-105756989D01*
X117097017Y-105882510D01*
X117059500Y-106022525D01*
X117059500Y-106095500D01*
X117040593Y-106153691D01*
X116991093Y-106189655D01*
X116960500Y-106194500D01*
X116957475Y-106194500D01*
X116812525Y-106194500D01*
X116750790Y-106211041D01*
X116672510Y-106232017D01*
X116546989Y-106304487D01*
X116444487Y-106406989D01*
X116372017Y-106532510D01*
X116338136Y-106658956D01*
X116334500Y-106672525D01*
X99430642Y-106672525D01*
X99430642Y-106067372D01*
X99433110Y-106059774D01*
X99431861Y-106051885D01*
X99442385Y-106031229D01*
X99445213Y-106022525D01*
X111784500Y-106022525D01*
X111784500Y-106167475D01*
X111799049Y-106221773D01*
X111822017Y-106307489D01*
X111894487Y-106433010D01*
X111894489Y-106433012D01*
X111894491Y-106433015D01*
X111996985Y-106535509D01*
X111996987Y-106535510D01*
X111996989Y-106535512D01*
X112122511Y-106607982D01*
X112122512Y-106607982D01*
X112122515Y-106607984D01*
X112262525Y-106645500D01*
X112262526Y-106645500D01*
X112407474Y-106645500D01*
X112407475Y-106645500D01*
X112547485Y-106607984D01*
X112547487Y-106607982D01*
X112547489Y-106607982D01*
X112595436Y-106580300D01*
X112673010Y-106535512D01*
X112673010Y-106535511D01*
X112673015Y-106535509D01*
X112775509Y-106433015D01*
X112781067Y-106423389D01*
X112847982Y-106307489D01*
X112847982Y-106307487D01*
X112847984Y-106307485D01*
X112885500Y-106167475D01*
X112885500Y-106022525D01*
X112847984Y-105882515D01*
X112847982Y-105882512D01*
X112847982Y-105882510D01*
X112775512Y-105756989D01*
X112775510Y-105756987D01*
X112775509Y-105756985D01*
X112673015Y-105654491D01*
X112673012Y-105654489D01*
X112673010Y-105654487D01*
X112547488Y-105582017D01*
X112547489Y-105582017D01*
X112498036Y-105568766D01*
X112407475Y-105544500D01*
X112262525Y-105544500D01*
X112200790Y-105561041D01*
X112122510Y-105582017D01*
X111996989Y-105654487D01*
X111894487Y-105756989D01*
X111822017Y-105882510D01*
X111805223Y-105945186D01*
X111784500Y-106022525D01*
X99445213Y-106022525D01*
X99449549Y-106009181D01*
X99459631Y-105997375D01*
X99674370Y-105782638D01*
X99728886Y-105754861D01*
X99744373Y-105753642D01*
X99792474Y-105753642D01*
X99792475Y-105753642D01*
X99932485Y-105716126D01*
X99932487Y-105716124D01*
X99932489Y-105716124D01*
X100058010Y-105643654D01*
X100058010Y-105643653D01*
X100058015Y-105643651D01*
X100150659Y-105551006D01*
X100205174Y-105523231D01*
X100265606Y-105532802D01*
X100290661Y-105551005D01*
X100383305Y-105643649D01*
X100383307Y-105643650D01*
X100383309Y-105643652D01*
X100508831Y-105716122D01*
X100508832Y-105716122D01*
X100508835Y-105716124D01*
X100648845Y-105753640D01*
X100648846Y-105753640D01*
X100793794Y-105753640D01*
X100793795Y-105753640D01*
X100933805Y-105716124D01*
X100933807Y-105716122D01*
X100933809Y-105716122D01*
X101059328Y-105643653D01*
X101059327Y-105643653D01*
X101059335Y-105643649D01*
X101059340Y-105643643D01*
X101061096Y-105642297D01*
X101062601Y-105641763D01*
X101064955Y-105640405D01*
X101065206Y-105640840D01*
X101118770Y-105621868D01*
X101177437Y-105639241D01*
X101181644Y-105642297D01*
X101183402Y-105643646D01*
X101183405Y-105643649D01*
X101183408Y-105643650D01*
X101183411Y-105643653D01*
X101308931Y-105716122D01*
X101308932Y-105716122D01*
X101308935Y-105716124D01*
X101448945Y-105753640D01*
X101448946Y-105753640D01*
X101593894Y-105753640D01*
X101593895Y-105753640D01*
X101733905Y-105716124D01*
X101733907Y-105716122D01*
X101733909Y-105716122D01*
X101859428Y-105643653D01*
X101859427Y-105643653D01*
X101859435Y-105643649D01*
X101859440Y-105643643D01*
X101861196Y-105642297D01*
X101862701Y-105641763D01*
X101865055Y-105640405D01*
X101865306Y-105640840D01*
X101918870Y-105621868D01*
X101977537Y-105639241D01*
X101981744Y-105642297D01*
X101983502Y-105643646D01*
X101983505Y-105643649D01*
X101983508Y-105643650D01*
X101983511Y-105643653D01*
X102109031Y-105716122D01*
X102109032Y-105716122D01*
X102109035Y-105716124D01*
X102249045Y-105753640D01*
X102249046Y-105753640D01*
X102393994Y-105753640D01*
X102393995Y-105753640D01*
X102534005Y-105716124D01*
X102534007Y-105716122D01*
X102534009Y-105716122D01*
X102659528Y-105643653D01*
X102659527Y-105643653D01*
X102659535Y-105643649D01*
X102659540Y-105643643D01*
X102661296Y-105642297D01*
X102662801Y-105641763D01*
X102665155Y-105640405D01*
X102665406Y-105640840D01*
X102718970Y-105621868D01*
X102777637Y-105639241D01*
X102781844Y-105642297D01*
X102783602Y-105643646D01*
X102783605Y-105643649D01*
X102783608Y-105643650D01*
X102783611Y-105643653D01*
X102909131Y-105716122D01*
X102909132Y-105716122D01*
X102909135Y-105716124D01*
X103049145Y-105753640D01*
X103049146Y-105753640D01*
X103194094Y-105753640D01*
X103194095Y-105753640D01*
X103334105Y-105716124D01*
X103334107Y-105716122D01*
X103334109Y-105716122D01*
X103412979Y-105670586D01*
X103459635Y-105643649D01*
X103459645Y-105643638D01*
X103461395Y-105642297D01*
X103462903Y-105641762D01*
X103465255Y-105640405D01*
X103465506Y-105640840D01*
X103519069Y-105621867D01*
X103577737Y-105639239D01*
X103581947Y-105642297D01*
X103583699Y-105643641D01*
X103583707Y-105643649D01*
X103583714Y-105643653D01*
X103583717Y-105643655D01*
X103709233Y-105716122D01*
X103709234Y-105716122D01*
X103709237Y-105716124D01*
X103849247Y-105753640D01*
X103849248Y-105753640D01*
X103994196Y-105753640D01*
X103994197Y-105753640D01*
X104134207Y-105716124D01*
X104134209Y-105716122D01*
X104134211Y-105716122D01*
X104259732Y-105643652D01*
X104259732Y-105643651D01*
X104259737Y-105643649D01*
X104362231Y-105541155D01*
X104367054Y-105532802D01*
X104434704Y-105415629D01*
X104434704Y-105415627D01*
X104434706Y-105415625D01*
X104472222Y-105275615D01*
X104472222Y-105130665D01*
X104434706Y-104990655D01*
X104434704Y-104990652D01*
X104434704Y-104990650D01*
X104362234Y-104865129D01*
X104362232Y-104865127D01*
X104362231Y-104865125D01*
X104259737Y-104762631D01*
X104259734Y-104762629D01*
X104259732Y-104762627D01*
X104134210Y-104690157D01*
X104134211Y-104690157D01*
X104066340Y-104671971D01*
X103994197Y-104652640D01*
X103849247Y-104652640D01*
X103812961Y-104662363D01*
X103709232Y-104690157D01*
X103583711Y-104762627D01*
X103581940Y-104763987D01*
X103580432Y-104764520D01*
X103578087Y-104765875D01*
X103577836Y-104765440D01*
X103524264Y-104784412D01*
X103465598Y-104767035D01*
X103461402Y-104763987D01*
X103459630Y-104762627D01*
X103334108Y-104690157D01*
X103334109Y-104690157D01*
X103266238Y-104671971D01*
X103194095Y-104652640D01*
X103049145Y-104652640D01*
X103012859Y-104662363D01*
X102909130Y-104690157D01*
X102783605Y-104762629D01*
X102781837Y-104763987D01*
X102780332Y-104764519D01*
X102777985Y-104765875D01*
X102777733Y-104765439D01*
X102724161Y-104784411D01*
X102665495Y-104767033D01*
X102661303Y-104763987D01*
X102659534Y-104762629D01*
X102534008Y-104690157D01*
X102534009Y-104690157D01*
X102466138Y-104671971D01*
X102393995Y-104652640D01*
X102249045Y-104652640D01*
X102212757Y-104662363D01*
X102151656Y-104659160D01*
X102104106Y-104620655D01*
X102088271Y-104561554D01*
X102110198Y-104504433D01*
X102117112Y-104496752D01*
X102616340Y-103997525D01*
X110859500Y-103997525D01*
X110859500Y-104142474D01*
X110897017Y-104282489D01*
X110969487Y-104408010D01*
X110969489Y-104408012D01*
X110969491Y-104408015D01*
X111071985Y-104510509D01*
X111071987Y-104510510D01*
X111071989Y-104510512D01*
X111197511Y-104582982D01*
X111197512Y-104582982D01*
X111197515Y-104582984D01*
X111337525Y-104620500D01*
X111337526Y-104620500D01*
X111482474Y-104620500D01*
X111482475Y-104620500D01*
X111622485Y-104582984D01*
X111622487Y-104582982D01*
X111622489Y-104582982D01*
X111748010Y-104510512D01*
X111748010Y-104510511D01*
X111748015Y-104510509D01*
X111850509Y-104408015D01*
X111894655Y-104331552D01*
X111922982Y-104282489D01*
X111922982Y-104282487D01*
X111922984Y-104282485D01*
X111960500Y-104142475D01*
X111960500Y-103997525D01*
X111922984Y-103857515D01*
X111922982Y-103857512D01*
X111922982Y-103857510D01*
X111850512Y-103731989D01*
X111850510Y-103731987D01*
X111850509Y-103731985D01*
X111748015Y-103629491D01*
X111748012Y-103629489D01*
X111748010Y-103629487D01*
X111622488Y-103557017D01*
X111622489Y-103557017D01*
X111592896Y-103549087D01*
X111482475Y-103519500D01*
X111337525Y-103519500D01*
X111275790Y-103536041D01*
X111197510Y-103557017D01*
X111071989Y-103629487D01*
X110969487Y-103731989D01*
X110897017Y-103857510D01*
X110859500Y-103997525D01*
X102616340Y-103997525D01*
X103012075Y-103601790D01*
X103049052Y-103537742D01*
X103094521Y-103496803D01*
X103155371Y-103490407D01*
X103184288Y-103501508D01*
X103307911Y-103572882D01*
X103307912Y-103572882D01*
X103307915Y-103572884D01*
X103447925Y-103610400D01*
X103447926Y-103610400D01*
X103592874Y-103610400D01*
X103592875Y-103610400D01*
X103732885Y-103572884D01*
X103732887Y-103572882D01*
X103732889Y-103572882D01*
X103809704Y-103528532D01*
X103858415Y-103500409D01*
X103858423Y-103500400D01*
X103860170Y-103499061D01*
X103861673Y-103498528D01*
X103864035Y-103497165D01*
X103864287Y-103497602D01*
X103917843Y-103478629D01*
X103976511Y-103495999D01*
X103980720Y-103499057D01*
X103982484Y-103500411D01*
X104108008Y-103572882D01*
X104108009Y-103572882D01*
X104108012Y-103572884D01*
X104248022Y-103610400D01*
X104248023Y-103610400D01*
X104392971Y-103610400D01*
X104392972Y-103610400D01*
X104532982Y-103572884D01*
X104532984Y-103572882D01*
X104532986Y-103572882D01*
X104658507Y-103500412D01*
X104658507Y-103500411D01*
X104658512Y-103500409D01*
X104761006Y-103397915D01*
X104786530Y-103353706D01*
X104833479Y-103272389D01*
X104833479Y-103272387D01*
X104833481Y-103272385D01*
X104870997Y-103132375D01*
X104870997Y-102987425D01*
X104833481Y-102847415D01*
X104833479Y-102847412D01*
X104833479Y-102847410D01*
X104761009Y-102721889D01*
X104761007Y-102721887D01*
X104761006Y-102721885D01*
X104658512Y-102619391D01*
X104658509Y-102619389D01*
X104658507Y-102619387D01*
X104539513Y-102550686D01*
X104498572Y-102505217D01*
X104492176Y-102444367D01*
X104522769Y-102391379D01*
X104539513Y-102379214D01*
X104658507Y-102310512D01*
X104658507Y-102310511D01*
X104658512Y-102310509D01*
X104761006Y-102208015D01*
X104791748Y-102154768D01*
X104833479Y-102082489D01*
X104833479Y-102082487D01*
X104833481Y-102082485D01*
X104870997Y-101942475D01*
X104870997Y-101817525D01*
X106549500Y-101817525D01*
X106549500Y-101962474D01*
X106587017Y-102102489D01*
X106659487Y-102228010D01*
X106659489Y-102228012D01*
X106659491Y-102228015D01*
X106761985Y-102330509D01*
X106761987Y-102330510D01*
X106761989Y-102330512D01*
X106887511Y-102402982D01*
X106887512Y-102402982D01*
X106887515Y-102402984D01*
X107027525Y-102440500D01*
X107027526Y-102440500D01*
X107172474Y-102440500D01*
X107172475Y-102440500D01*
X107312485Y-102402984D01*
X107312487Y-102402982D01*
X107312489Y-102402982D01*
X107438010Y-102330512D01*
X107438010Y-102330511D01*
X107438015Y-102330509D01*
X107540509Y-102228015D01*
X107552059Y-102208010D01*
X107612982Y-102102489D01*
X107612982Y-102102487D01*
X107612984Y-102102485D01*
X107650500Y-101962475D01*
X107650500Y-101817525D01*
X107612984Y-101677515D01*
X107612982Y-101677512D01*
X107612982Y-101677510D01*
X107540512Y-101551989D01*
X107540510Y-101551987D01*
X107540509Y-101551985D01*
X107438015Y-101449491D01*
X107438012Y-101449489D01*
X107438010Y-101449487D01*
X107312488Y-101377017D01*
X107312489Y-101377017D01*
X107282896Y-101369087D01*
X107172475Y-101339500D01*
X107027525Y-101339500D01*
X106965790Y-101356041D01*
X106887510Y-101377017D01*
X106761989Y-101449487D01*
X106659487Y-101551989D01*
X106587017Y-101677510D01*
X106549500Y-101817525D01*
X104870997Y-101817525D01*
X104870997Y-101797525D01*
X104833481Y-101657515D01*
X104833479Y-101657512D01*
X104833479Y-101657510D01*
X104761009Y-101531989D01*
X104761007Y-101531987D01*
X104761006Y-101531985D01*
X104658512Y-101429491D01*
X104658509Y-101429489D01*
X104658507Y-101429487D01*
X104532985Y-101357017D01*
X104532986Y-101357017D01*
X104467612Y-101339500D01*
X104392972Y-101319500D01*
X104248022Y-101319500D01*
X104186287Y-101336041D01*
X104108007Y-101357017D01*
X103982486Y-101429487D01*
X103879984Y-101531989D01*
X103807514Y-101657510D01*
X103769997Y-101797525D01*
X103769997Y-101845627D01*
X103767528Y-101853224D01*
X103768778Y-101861114D01*
X103758253Y-101881769D01*
X103751090Y-101903818D01*
X103741001Y-101915631D01*
X103693128Y-101963504D01*
X103638611Y-101991281D01*
X103623124Y-101992500D01*
X103259699Y-101992500D01*
X103160301Y-101992500D01*
X103064290Y-102018226D01*
X103064289Y-102018226D01*
X103064287Y-102018227D01*
X102978211Y-102067923D01*
X102978209Y-102067925D01*
X102412481Y-102633652D01*
X102357965Y-102661429D01*
X102297533Y-102651858D01*
X102272476Y-102633653D01*
X102258216Y-102619394D01*
X102258210Y-102619389D01*
X102132688Y-102546919D01*
X102132689Y-102546919D01*
X102050077Y-102524783D01*
X101992675Y-102509402D01*
X101847725Y-102509402D01*
X101811114Y-102519212D01*
X101707710Y-102546919D01*
X101582187Y-102619391D01*
X101580416Y-102620750D01*
X101578909Y-102621283D01*
X101576565Y-102622637D01*
X101576314Y-102622202D01*
X101554749Y-102629838D01*
X101529791Y-102640736D01*
X101526571Y-102639815D01*
X101522740Y-102641172D01*
X101470036Y-102627584D01*
X101461009Y-102622285D01*
X101458115Y-102619391D01*
X101333865Y-102547655D01*
X101333451Y-102547412D01*
X101313368Y-102524783D01*
X101293125Y-102502301D01*
X101293085Y-102501929D01*
X101292838Y-102501650D01*
X101289895Y-102471579D01*
X101286729Y-102441450D01*
X101286916Y-102441125D01*
X101286880Y-102440755D01*
X101302150Y-102414738D01*
X101317322Y-102388462D01*
X101317762Y-102388141D01*
X101317853Y-102387988D01*
X101318157Y-102387855D01*
X101334061Y-102376300D01*
X101448015Y-102310509D01*
X101550509Y-102208015D01*
X101581251Y-102154768D01*
X101622982Y-102082489D01*
X101622982Y-102082487D01*
X101622984Y-102082485D01*
X101660500Y-101942475D01*
X101660500Y-101797525D01*
X101622984Y-101657515D01*
X101622982Y-101657512D01*
X101622982Y-101657510D01*
X101550512Y-101531989D01*
X101550510Y-101531987D01*
X101550509Y-101531985D01*
X101448015Y-101429491D01*
X101448012Y-101429489D01*
X101448010Y-101429487D01*
X101322488Y-101357017D01*
X101322489Y-101357017D01*
X101257115Y-101339500D01*
X101182475Y-101319500D01*
X101037525Y-101319500D01*
X100975790Y-101336041D01*
X100897510Y-101357017D01*
X100771989Y-101429487D01*
X100669487Y-101531989D01*
X100597017Y-101657510D01*
X100559500Y-101797525D01*
X100559500Y-101942474D01*
X100597017Y-102082489D01*
X100669487Y-102208010D01*
X100669489Y-102208012D01*
X100669491Y-102208015D01*
X100771985Y-102310509D01*
X100771987Y-102310510D01*
X100771989Y-102310512D01*
X100896033Y-102382129D01*
X100902855Y-102389706D01*
X100912204Y-102393782D01*
X100922878Y-102411943D01*
X100936974Y-102427598D01*
X100938040Y-102437739D01*
X100943207Y-102446531D01*
X100941167Y-102467497D01*
X100943370Y-102488448D01*
X100938271Y-102497279D01*
X100937284Y-102507429D01*
X100923509Y-102522847D01*
X100912777Y-102541436D01*
X100896697Y-102553215D01*
X100896261Y-102553471D01*
X100782085Y-102619391D01*
X100779206Y-102622269D01*
X100770214Y-102627555D01*
X100746005Y-102632897D01*
X100722641Y-102641171D01*
X100716609Y-102639384D01*
X100710466Y-102640740D01*
X100687742Y-102630833D01*
X100663975Y-102623793D01*
X100659783Y-102620747D01*
X100658014Y-102619389D01*
X100532488Y-102546917D01*
X100532489Y-102546917D01*
X100437632Y-102521500D01*
X100392475Y-102509400D01*
X100247525Y-102509400D01*
X100210907Y-102519212D01*
X100107510Y-102546917D01*
X99981989Y-102619387D01*
X99879487Y-102721889D01*
X99807017Y-102847410D01*
X99769500Y-102987425D01*
X99769500Y-103132374D01*
X99807017Y-103272389D01*
X99879487Y-103397910D01*
X99879489Y-103397912D01*
X99879491Y-103397915D01*
X99981985Y-103500409D01*
X99981987Y-103500410D01*
X99981989Y-103500412D01*
X100107511Y-103572882D01*
X100107512Y-103572882D01*
X100107515Y-103572884D01*
X100247525Y-103610400D01*
X100247526Y-103610400D01*
X100392474Y-103610400D01*
X100392475Y-103610400D01*
X100532485Y-103572884D01*
X100532487Y-103572882D01*
X100532489Y-103572882D01*
X100658008Y-103500413D01*
X100658007Y-103500413D01*
X100658015Y-103500409D01*
X100658020Y-103500403D01*
X100659776Y-103499057D01*
X100661281Y-103498523D01*
X100663635Y-103497165D01*
X100663886Y-103497600D01*
X100717450Y-103478628D01*
X100776117Y-103496001D01*
X100780324Y-103499057D01*
X100782082Y-103500406D01*
X100782085Y-103500409D01*
X100782088Y-103500410D01*
X100782091Y-103500413D01*
X100907611Y-103572882D01*
X100907612Y-103572882D01*
X100907615Y-103572884D01*
X101047625Y-103610400D01*
X101047626Y-103610400D01*
X101192574Y-103610400D01*
X101192575Y-103610400D01*
X101332585Y-103572884D01*
X101332587Y-103572882D01*
X101332589Y-103572882D01*
X101409404Y-103528532D01*
X101458115Y-103500409D01*
X101458123Y-103500400D01*
X101459870Y-103499061D01*
X101461373Y-103498528D01*
X101463735Y-103497165D01*
X101463987Y-103497602D01*
X101517543Y-103478629D01*
X101576211Y-103495999D01*
X101580418Y-103499055D01*
X101582188Y-103500414D01*
X101707711Y-103572884D01*
X101707712Y-103572884D01*
X101707715Y-103572886D01*
X101751505Y-103584619D01*
X101760376Y-103590379D01*
X101770826Y-103592035D01*
X101785459Y-103606668D01*
X101802818Y-103617941D01*
X101806610Y-103627820D01*
X101814090Y-103635300D01*
X101817327Y-103655738D01*
X101824745Y-103675062D01*
X101822006Y-103685281D01*
X101823662Y-103695732D01*
X101814265Y-103714172D01*
X101808910Y-103734163D01*
X101795885Y-103750248D01*
X101682631Y-103863503D01*
X101628114Y-103891281D01*
X101612627Y-103892500D01*
X100702841Y-103892500D01*
X100603443Y-103892500D01*
X100507432Y-103918226D01*
X100507431Y-103918226D01*
X100507429Y-103918227D01*
X100421354Y-103967923D01*
X99765631Y-104623646D01*
X99711114Y-104651423D01*
X99695627Y-104652642D01*
X99647525Y-104652642D01*
X99585790Y-104669183D01*
X99507510Y-104690159D01*
X99381989Y-104762629D01*
X99279487Y-104865131D01*
X99207017Y-104990652D01*
X99169500Y-105130667D01*
X99169500Y-105178769D01*
X99150593Y-105236960D01*
X99140504Y-105248772D01*
X98925774Y-105463503D01*
X98871257Y-105491281D01*
X98855770Y-105492500D01*
X97741005Y-105492500D01*
X97682814Y-105473593D01*
X97646850Y-105424093D01*
X97645378Y-105367877D01*
X97653328Y-105338207D01*
X97670100Y-105275615D01*
X97670100Y-105130665D01*
X97632584Y-104990655D01*
X97632582Y-104990652D01*
X97632582Y-104990650D01*
X97560112Y-104865129D01*
X97560110Y-104865127D01*
X97560109Y-104865125D01*
X97457615Y-104762631D01*
X97457612Y-104762629D01*
X97457610Y-104762627D01*
X97332088Y-104690157D01*
X97332089Y-104690157D01*
X97264218Y-104671971D01*
X97192075Y-104652640D01*
X97047125Y-104652640D01*
X97010839Y-104662363D01*
X96907110Y-104690157D01*
X96781589Y-104762627D01*
X96679087Y-104865129D01*
X96606617Y-104990650D01*
X96585194Y-105070603D01*
X96569100Y-105130665D01*
X96569100Y-105275615D01*
X96585872Y-105338207D01*
X96593822Y-105367877D01*
X96590620Y-105428978D01*
X96552114Y-105476528D01*
X96498195Y-105492500D01*
X93207374Y-105492500D01*
X93149183Y-105473593D01*
X93137371Y-105463504D01*
X92510152Y-104836287D01*
X92510150Y-104836285D01*
X92424074Y-104786589D01*
X92424073Y-104786588D01*
X92424072Y-104786588D01*
X92328061Y-104760862D01*
X92328059Y-104760862D01*
X90460894Y-104760862D01*
X90402703Y-104741955D01*
X90400624Y-104740402D01*
X90397310Y-104737859D01*
X90283189Y-104671971D01*
X90283191Y-104671971D01*
X90211052Y-104652642D01*
X90155892Y-104637862D01*
X90024108Y-104637862D01*
X89968948Y-104652642D01*
X89896809Y-104671971D01*
X89782690Y-104737858D01*
X89689496Y-104831052D01*
X89675731Y-104854895D01*
X89630261Y-104895836D01*
X89569411Y-104902231D01*
X89516423Y-104871639D01*
X89504259Y-104854895D01*
X89490493Y-104831052D01*
X89490491Y-104831050D01*
X89490490Y-104831048D01*
X89397304Y-104737862D01*
X89397301Y-104737860D01*
X89397299Y-104737858D01*
X89283179Y-104671971D01*
X89283181Y-104671971D01*
X89211042Y-104652642D01*
X89155882Y-104637862D01*
X89024098Y-104637862D01*
X88968938Y-104652642D01*
X88896799Y-104671971D01*
X88782680Y-104737858D01*
X88689488Y-104831050D01*
X88675726Y-104854887D01*
X88630256Y-104895827D01*
X88569406Y-104902222D01*
X88516418Y-104871629D01*
X88504254Y-104854887D01*
X88490491Y-104831050D01*
X88490490Y-104831048D01*
X88397304Y-104737862D01*
X88373464Y-104724097D01*
X88332524Y-104678629D01*
X88326128Y-104617779D01*
X88356721Y-104564791D01*
X88373464Y-104552626D01*
X88397304Y-104538862D01*
X88490490Y-104445676D01*
X88556382Y-104331548D01*
X88590490Y-104204254D01*
X88590490Y-104072470D01*
X88556382Y-103945176D01*
X88556380Y-103945173D01*
X88556380Y-103945171D01*
X88490493Y-103831052D01*
X88490491Y-103831050D01*
X88490490Y-103831048D01*
X88397304Y-103737862D01*
X88397301Y-103737860D01*
X88397299Y-103737858D01*
X88283179Y-103671971D01*
X88283181Y-103671971D01*
X88233789Y-103658737D01*
X88155882Y-103637862D01*
X88024098Y-103637862D01*
X87946190Y-103658737D01*
X87896799Y-103671971D01*
X87782680Y-103737858D01*
X87689486Y-103831052D01*
X87623599Y-103945171D01*
X87623598Y-103945176D01*
X87589490Y-104072470D01*
X87589490Y-104204254D01*
X87598152Y-104236581D01*
X87623599Y-104331552D01*
X87689486Y-104445671D01*
X87689488Y-104445673D01*
X87689490Y-104445676D01*
X87782676Y-104538862D01*
X87782678Y-104538863D01*
X87806515Y-104552626D01*
X87847455Y-104598096D01*
X87853850Y-104658946D01*
X87823257Y-104711934D01*
X87806515Y-104724098D01*
X87782678Y-104737860D01*
X87689488Y-104831050D01*
X87675726Y-104854887D01*
X87630256Y-104895827D01*
X87569406Y-104902222D01*
X87516418Y-104871629D01*
X87504254Y-104854887D01*
X87490491Y-104831050D01*
X87490490Y-104831048D01*
X87397304Y-104737862D01*
X87397301Y-104737860D01*
X87397299Y-104737858D01*
X87283179Y-104671971D01*
X87283181Y-104671971D01*
X87211042Y-104652642D01*
X87155882Y-104637862D01*
X87024098Y-104637862D01*
X86968938Y-104652642D01*
X86896799Y-104671971D01*
X86782680Y-104737858D01*
X86689486Y-104831052D01*
X86623599Y-104945171D01*
X86604529Y-105016340D01*
X86589490Y-105072470D01*
X80356987Y-105072470D01*
X80350232Y-105059212D01*
X80248414Y-104919072D01*
X80125928Y-104796586D01*
X79985788Y-104694768D01*
X79985787Y-104694767D01*
X79985785Y-104694766D01*
X79831441Y-104616125D01*
X79831438Y-104616123D01*
X79666706Y-104562598D01*
X79666701Y-104562597D01*
X79492513Y-104535008D01*
X79485397Y-104531382D01*
X79477407Y-104531382D01*
X79458648Y-104517752D01*
X79437996Y-104507230D01*
X79434370Y-104500113D01*
X79427907Y-104495418D01*
X79420742Y-104473368D01*
X79410219Y-104452714D01*
X79409000Y-104437227D01*
X79409000Y-104294772D01*
X79427907Y-104236581D01*
X79477407Y-104200617D01*
X79492513Y-104196991D01*
X79666702Y-104169402D01*
X79666706Y-104169401D01*
X79831438Y-104115876D01*
X79831440Y-104115874D01*
X79831445Y-104115873D01*
X79985788Y-104037232D01*
X80125928Y-103935414D01*
X80248414Y-103812928D01*
X80350232Y-103672788D01*
X80428873Y-103518445D01*
X80428874Y-103518440D01*
X80428876Y-103518438D01*
X80482401Y-103353706D01*
X80482402Y-103353702D01*
X80509500Y-103182614D01*
X80509500Y-103009384D01*
X80507447Y-102996422D01*
X80506022Y-102987425D01*
X95769000Y-102987425D01*
X95769000Y-103132374D01*
X95806517Y-103272389D01*
X95878987Y-103397910D01*
X95878989Y-103397912D01*
X95878991Y-103397915D01*
X95981485Y-103500409D01*
X95981487Y-103500410D01*
X95981489Y-103500412D01*
X96107011Y-103572882D01*
X96107012Y-103572882D01*
X96107015Y-103572884D01*
X96247025Y-103610400D01*
X96247026Y-103610400D01*
X96391974Y-103610400D01*
X96391975Y-103610400D01*
X96531985Y-103572884D01*
X96531987Y-103572882D01*
X96531989Y-103572882D01*
X96657510Y-103500412D01*
X96657510Y-103500411D01*
X96657515Y-103500409D01*
X96760009Y-103397915D01*
X96785533Y-103353706D01*
X96832482Y-103272389D01*
X96832482Y-103272387D01*
X96832484Y-103272385D01*
X96870000Y-103132375D01*
X96870000Y-102987425D01*
X96832484Y-102847415D01*
X96832482Y-102847412D01*
X96832482Y-102847410D01*
X96760012Y-102721889D01*
X96760010Y-102721887D01*
X96760009Y-102721885D01*
X96657515Y-102619391D01*
X96657512Y-102619389D01*
X96657510Y-102619387D01*
X96531988Y-102546917D01*
X96531989Y-102546917D01*
X96437132Y-102521500D01*
X96391975Y-102509400D01*
X96247025Y-102509400D01*
X96210407Y-102519212D01*
X96107010Y-102546917D01*
X95981489Y-102619387D01*
X95878987Y-102721889D01*
X95806517Y-102847410D01*
X95769000Y-102987425D01*
X80506022Y-102987425D01*
X80482402Y-102838297D01*
X80482401Y-102838293D01*
X80428876Y-102673561D01*
X80428874Y-102673558D01*
X80428873Y-102673557D01*
X80428873Y-102673555D01*
X80350232Y-102519212D01*
X80248414Y-102379072D01*
X80125928Y-102256586D01*
X79985788Y-102154768D01*
X79985787Y-102154767D01*
X79985785Y-102154766D01*
X79831441Y-102076125D01*
X79831438Y-102076123D01*
X79666706Y-102022598D01*
X79666701Y-102022597D01*
X79492513Y-101995008D01*
X79485397Y-101991382D01*
X79477407Y-101991382D01*
X79458648Y-101977752D01*
X79437996Y-101967230D01*
X79434370Y-101960113D01*
X79427907Y-101955418D01*
X79420742Y-101933368D01*
X79410219Y-101912714D01*
X79409000Y-101897227D01*
X79409000Y-101754772D01*
X79427907Y-101696581D01*
X79477407Y-101660617D01*
X79492513Y-101656991D01*
X79666702Y-101629402D01*
X79666706Y-101629401D01*
X79831438Y-101575876D01*
X79831440Y-101575874D01*
X79831445Y-101575873D01*
X79985788Y-101497232D01*
X80125928Y-101395414D01*
X80248414Y-101272928D01*
X80350232Y-101132788D01*
X80428873Y-100978445D01*
X80428874Y-100978440D01*
X80428876Y-100978438D01*
X80455167Y-100897525D01*
X98759500Y-100897525D01*
X98759500Y-101042474D01*
X98797017Y-101182489D01*
X98869487Y-101308010D01*
X98869489Y-101308012D01*
X98869491Y-101308015D01*
X98971985Y-101410509D01*
X98971987Y-101410510D01*
X98971989Y-101410512D01*
X99097511Y-101482982D01*
X99097512Y-101482982D01*
X99097515Y-101482984D01*
X99237525Y-101520500D01*
X99237526Y-101520500D01*
X99382474Y-101520500D01*
X99382475Y-101520500D01*
X99522485Y-101482984D01*
X99522487Y-101482982D01*
X99522489Y-101482982D01*
X99648010Y-101410512D01*
X99648010Y-101410511D01*
X99648015Y-101410509D01*
X99750509Y-101308015D01*
X99822984Y-101182485D01*
X99860500Y-101042475D01*
X99860500Y-100897525D01*
X99822984Y-100757515D01*
X99822982Y-100757512D01*
X99822982Y-100757510D01*
X99750512Y-100631989D01*
X99750510Y-100631987D01*
X99750509Y-100631985D01*
X99648015Y-100529491D01*
X99648012Y-100529489D01*
X99648010Y-100529487D01*
X99522488Y-100457017D01*
X99522489Y-100457017D01*
X99486971Y-100447500D01*
X99382475Y-100419500D01*
X99237525Y-100419500D01*
X99175790Y-100436041D01*
X99097510Y-100457017D01*
X98971989Y-100529487D01*
X98869487Y-100631989D01*
X98797017Y-100757510D01*
X98759500Y-100897525D01*
X80455167Y-100897525D01*
X80467215Y-100860446D01*
X80467215Y-100860444D01*
X80482402Y-100813700D01*
X80509500Y-100642614D01*
X80509500Y-100469385D01*
X80482402Y-100298297D01*
X80482401Y-100298293D01*
X80428876Y-100133561D01*
X80428874Y-100133558D01*
X80428873Y-100133557D01*
X80428873Y-100133555D01*
X80359563Y-99997525D01*
X105659500Y-99997525D01*
X105659500Y-100142474D01*
X105697017Y-100282489D01*
X105769487Y-100408010D01*
X105769489Y-100408012D01*
X105769491Y-100408015D01*
X105871985Y-100510509D01*
X105871987Y-100510510D01*
X105871989Y-100510512D01*
X105997511Y-100582982D01*
X105997512Y-100582982D01*
X105997515Y-100582984D01*
X106137525Y-100620500D01*
X106137526Y-100620500D01*
X106282474Y-100620500D01*
X106282475Y-100620500D01*
X106422485Y-100582984D01*
X106422487Y-100582982D01*
X106422489Y-100582982D01*
X106548010Y-100510512D01*
X106548010Y-100510511D01*
X106548015Y-100510509D01*
X106565022Y-100493501D01*
X106582029Y-100476496D01*
X106636546Y-100448719D01*
X106652032Y-100447500D01*
X112367968Y-100447500D01*
X112426159Y-100466407D01*
X112437971Y-100476496D01*
X112471983Y-100510507D01*
X112471989Y-100510512D01*
X112597511Y-100582982D01*
X112597512Y-100582982D01*
X112597515Y-100582984D01*
X112737525Y-100620500D01*
X112737526Y-100620500D01*
X112882474Y-100620500D01*
X112882475Y-100620500D01*
X113022485Y-100582984D01*
X113022487Y-100582982D01*
X113022489Y-100582982D01*
X113148010Y-100510512D01*
X113148010Y-100510511D01*
X113148015Y-100510509D01*
X113250509Y-100408015D01*
X113313855Y-100298297D01*
X113322982Y-100282489D01*
X113322982Y-100282487D01*
X113322984Y-100282485D01*
X113360500Y-100142475D01*
X113360500Y-99997525D01*
X113322984Y-99857515D01*
X113322982Y-99857512D01*
X113322982Y-99857510D01*
X113250512Y-99731989D01*
X113250510Y-99731987D01*
X113250509Y-99731985D01*
X113148015Y-99629491D01*
X113148012Y-99629489D01*
X113148010Y-99629487D01*
X113022488Y-99557017D01*
X113022489Y-99557017D01*
X112944527Y-99536127D01*
X112882475Y-99519500D01*
X112737525Y-99519500D01*
X112675790Y-99536041D01*
X112597510Y-99557017D01*
X112471989Y-99629487D01*
X112471983Y-99629492D01*
X112437971Y-99663504D01*
X112383454Y-99691281D01*
X112367968Y-99692500D01*
X106652032Y-99692500D01*
X106593841Y-99673593D01*
X106582029Y-99663504D01*
X106548016Y-99629492D01*
X106548010Y-99629487D01*
X106422488Y-99557017D01*
X106422489Y-99557017D01*
X106344527Y-99536127D01*
X106282475Y-99519500D01*
X106137525Y-99519500D01*
X106075790Y-99536041D01*
X105997510Y-99557017D01*
X105871989Y-99629487D01*
X105769487Y-99731989D01*
X105697017Y-99857510D01*
X105659500Y-99997525D01*
X80359563Y-99997525D01*
X80350232Y-99979212D01*
X80248414Y-99839072D01*
X80125928Y-99716586D01*
X79985788Y-99614768D01*
X79985787Y-99614767D01*
X79985785Y-99614766D01*
X79831441Y-99536125D01*
X79831438Y-99536123D01*
X79666706Y-99482598D01*
X79666701Y-99482597D01*
X79492513Y-99455008D01*
X79485397Y-99451382D01*
X79477407Y-99451382D01*
X79458648Y-99437752D01*
X79437996Y-99427230D01*
X79434370Y-99420113D01*
X79427907Y-99415418D01*
X79420742Y-99393368D01*
X79410219Y-99372714D01*
X79409000Y-99357227D01*
X79409000Y-99214772D01*
X79427907Y-99156581D01*
X79477407Y-99120617D01*
X79492513Y-99116991D01*
X79666702Y-99089402D01*
X79666706Y-99089401D01*
X79831438Y-99035876D01*
X79831440Y-99035874D01*
X79831445Y-99035873D01*
X79985788Y-98957232D01*
X80125928Y-98855414D01*
X80248414Y-98732928D01*
X80350232Y-98592788D01*
X80428873Y-98438445D01*
X80428874Y-98438440D01*
X80428876Y-98438438D01*
X80482401Y-98273706D01*
X80482402Y-98273702D01*
X80509500Y-98102614D01*
X80509500Y-97997525D01*
X112259500Y-97997525D01*
X112259500Y-98142474D01*
X112297017Y-98282489D01*
X112369487Y-98408010D01*
X112369489Y-98408012D01*
X112369491Y-98408015D01*
X112471985Y-98510509D01*
X112471987Y-98510510D01*
X112471989Y-98510512D01*
X112597511Y-98582982D01*
X112597512Y-98582982D01*
X112597515Y-98582984D01*
X112737525Y-98620500D01*
X112737526Y-98620500D01*
X112882474Y-98620500D01*
X112882475Y-98620500D01*
X113022485Y-98582984D01*
X113022487Y-98582982D01*
X113022489Y-98582982D01*
X113148010Y-98510512D01*
X113148010Y-98510511D01*
X113148015Y-98510509D01*
X113250509Y-98408015D01*
X113322984Y-98282485D01*
X113360500Y-98142475D01*
X113360500Y-97997525D01*
X113322984Y-97857515D01*
X113322982Y-97857512D01*
X113322982Y-97857510D01*
X113250512Y-97731989D01*
X113250510Y-97731987D01*
X113250509Y-97731985D01*
X113148015Y-97629491D01*
X113148012Y-97629489D01*
X113148010Y-97629487D01*
X113022488Y-97557017D01*
X113022489Y-97557017D01*
X112992896Y-97549087D01*
X112882475Y-97519500D01*
X112737525Y-97519500D01*
X112675790Y-97536041D01*
X112597510Y-97557017D01*
X112471989Y-97629487D01*
X112369487Y-97731989D01*
X112297017Y-97857510D01*
X112259500Y-97997525D01*
X80509500Y-97997525D01*
X80509500Y-97929385D01*
X80482402Y-97758297D01*
X80482401Y-97758293D01*
X80428876Y-97593561D01*
X80428874Y-97593558D01*
X80428873Y-97593557D01*
X80428873Y-97593555D01*
X80350232Y-97439212D01*
X80248414Y-97299072D01*
X80125928Y-97176586D01*
X79985788Y-97074768D01*
X79985787Y-97074767D01*
X79985785Y-97074766D01*
X79831441Y-96996125D01*
X79831438Y-96996123D01*
X79666706Y-96942598D01*
X79666701Y-96942597D01*
X79492513Y-96915008D01*
X79485397Y-96911382D01*
X79477407Y-96911382D01*
X79458648Y-96897752D01*
X79437996Y-96887230D01*
X79434370Y-96880113D01*
X79427907Y-96875418D01*
X79420742Y-96853368D01*
X79410219Y-96832714D01*
X79409000Y-96817227D01*
X79409000Y-96674772D01*
X79427907Y-96616581D01*
X79477407Y-96580617D01*
X79492513Y-96576991D01*
X79666702Y-96549402D01*
X79666706Y-96549401D01*
X79831438Y-96495876D01*
X79831440Y-96495874D01*
X79831445Y-96495873D01*
X79985788Y-96417232D01*
X80125928Y-96315414D01*
X80248414Y-96192928D01*
X80350232Y-96052788D01*
X80428873Y-95898445D01*
X80428874Y-95898440D01*
X80428876Y-95898438D01*
X80482401Y-95733706D01*
X80482402Y-95733702D01*
X80509500Y-95562614D01*
X80509500Y-95389385D01*
X80482402Y-95218297D01*
X80482401Y-95218293D01*
X80428876Y-95053561D01*
X80428874Y-95053558D01*
X80428873Y-95053557D01*
X80428873Y-95053555D01*
X80350232Y-94899212D01*
X80248414Y-94759072D01*
X80125928Y-94636586D01*
X79985788Y-94534768D01*
X79985787Y-94534767D01*
X79985785Y-94534766D01*
X79831441Y-94456125D01*
X79831438Y-94456123D01*
X79666706Y-94402598D01*
X79666701Y-94402597D01*
X79492513Y-94375008D01*
X79485397Y-94371382D01*
X79477407Y-94371382D01*
X79458648Y-94357752D01*
X79437996Y-94347230D01*
X79434370Y-94340113D01*
X79427907Y-94335418D01*
X79420742Y-94313368D01*
X79410219Y-94292714D01*
X79409000Y-94277227D01*
X79409000Y-94134772D01*
X79427907Y-94076581D01*
X79477407Y-94040617D01*
X79492513Y-94036991D01*
X79666702Y-94009402D01*
X79666706Y-94009401D01*
X79831438Y-93955876D01*
X79831440Y-93955874D01*
X79831445Y-93955873D01*
X79985788Y-93877232D01*
X80125928Y-93775414D01*
X80248414Y-93652928D01*
X80350232Y-93512788D01*
X80428873Y-93358445D01*
X80428874Y-93358440D01*
X80428876Y-93358438D01*
X80481160Y-93197525D01*
X92084500Y-93197525D01*
X92084500Y-93342475D01*
X92103712Y-93414174D01*
X92122017Y-93482489D01*
X92194487Y-93608010D01*
X92194489Y-93608012D01*
X92194491Y-93608015D01*
X92296985Y-93710509D01*
X92296987Y-93710510D01*
X92296989Y-93710512D01*
X92422511Y-93782982D01*
X92422512Y-93782982D01*
X92422515Y-93782984D01*
X92562525Y-93820500D01*
X92562526Y-93820500D01*
X92707474Y-93820500D01*
X92707475Y-93820500D01*
X92847485Y-93782984D01*
X92847487Y-93782982D01*
X92847489Y-93782982D01*
X92973010Y-93710512D01*
X92973010Y-93710511D01*
X92973015Y-93710509D01*
X93075509Y-93608015D01*
X93147984Y-93482485D01*
X93185500Y-93342475D01*
X93185500Y-93197525D01*
X93147984Y-93057515D01*
X93147982Y-93057512D01*
X93147982Y-93057510D01*
X93075512Y-92931989D01*
X93075510Y-92931987D01*
X93075509Y-92931985D01*
X92973015Y-92829491D01*
X92973012Y-92829489D01*
X92973010Y-92829487D01*
X92847488Y-92757017D01*
X92847489Y-92757017D01*
X92795349Y-92743046D01*
X92707475Y-92719500D01*
X92562525Y-92719500D01*
X92500790Y-92736041D01*
X92422510Y-92757017D01*
X92296989Y-92829487D01*
X92194487Y-92931989D01*
X92122017Y-93057510D01*
X92103546Y-93126445D01*
X92084500Y-93197525D01*
X80481160Y-93197525D01*
X80482401Y-93193706D01*
X80482401Y-93193704D01*
X80482400Y-93193704D01*
X80482402Y-93193701D01*
X80483645Y-93185848D01*
X80485278Y-93175547D01*
X80485278Y-93175546D01*
X80509500Y-93022614D01*
X80509500Y-92849385D01*
X80482402Y-92678297D01*
X80482401Y-92678293D01*
X80428876Y-92513561D01*
X80428874Y-92513558D01*
X80428873Y-92513557D01*
X80428873Y-92513555D01*
X80350232Y-92359212D01*
X80248414Y-92219072D01*
X80125928Y-92096586D01*
X79985788Y-91994768D01*
X79985787Y-91994767D01*
X79985785Y-91994766D01*
X79831441Y-91916125D01*
X79831438Y-91916123D01*
X79666706Y-91862598D01*
X79666701Y-91862597D01*
X79492513Y-91835008D01*
X79485397Y-91831382D01*
X79477407Y-91831382D01*
X79458648Y-91817752D01*
X79437996Y-91807230D01*
X79434370Y-91800113D01*
X79427907Y-91795418D01*
X79420742Y-91773368D01*
X79410219Y-91752714D01*
X79409000Y-91737227D01*
X79409000Y-91594772D01*
X79427907Y-91536581D01*
X79477407Y-91500617D01*
X79492513Y-91496991D01*
X79666702Y-91469402D01*
X79666706Y-91469401D01*
X79831438Y-91415876D01*
X79831440Y-91415874D01*
X79831445Y-91415873D01*
X79985788Y-91337232D01*
X80125928Y-91235414D01*
X80248414Y-91112928D01*
X80350232Y-90972788D01*
X80428873Y-90818445D01*
X80428874Y-90818440D01*
X80428876Y-90818438D01*
X80482401Y-90653706D01*
X80482402Y-90653702D01*
X80509500Y-90482614D01*
X80509500Y-90309385D01*
X80482402Y-90138297D01*
X80482401Y-90138293D01*
X80428876Y-89973561D01*
X80428874Y-89973558D01*
X80428873Y-89973557D01*
X80428873Y-89973555D01*
X80350232Y-89819212D01*
X80248414Y-89679072D01*
X80125928Y-89556586D01*
X79985788Y-89454768D01*
X79985787Y-89454767D01*
X79985785Y-89454766D01*
X79831441Y-89376125D01*
X79831438Y-89376123D01*
X79663256Y-89321477D01*
X79613756Y-89285513D01*
X79594849Y-89227322D01*
X79613757Y-89169132D01*
X79663257Y-89133168D01*
X79678364Y-89129542D01*
X79713411Y-89123991D01*
X79908027Y-89060756D01*
X80090342Y-88967863D01*
X80090350Y-88967858D01*
X80134920Y-88935475D01*
X79538408Y-88338962D01*
X79601993Y-88321925D01*
X79716007Y-88256099D01*
X79809099Y-88163007D01*
X79874925Y-88048993D01*
X79891962Y-87985407D01*
X80488475Y-88581920D01*
X80520858Y-88537350D01*
X80520863Y-88537342D01*
X80613756Y-88355027D01*
X80676991Y-88160412D01*
X80709000Y-87958315D01*
X80709000Y-87753684D01*
X80676991Y-87551587D01*
X80613756Y-87356972D01*
X80520858Y-87174647D01*
X80488475Y-87130078D01*
X79891962Y-87726590D01*
X79874925Y-87663007D01*
X79809099Y-87548993D01*
X79716007Y-87455901D01*
X79601993Y-87390075D01*
X79538407Y-87373037D01*
X80113919Y-86797525D01*
X83359500Y-86797525D01*
X83359500Y-86942475D01*
X83382840Y-87029579D01*
X83397017Y-87082489D01*
X83469487Y-87208010D01*
X83469489Y-87208012D01*
X83469491Y-87208015D01*
X83571985Y-87310509D01*
X83571987Y-87310510D01*
X83571988Y-87310511D01*
X83577134Y-87314460D01*
X83575925Y-87316035D01*
X83610770Y-87354737D01*
X83617163Y-87415588D01*
X83586568Y-87468574D01*
X83577078Y-87475468D01*
X83577134Y-87475540D01*
X83571988Y-87479488D01*
X83469487Y-87581989D01*
X83397017Y-87707510D01*
X83359500Y-87847525D01*
X83359500Y-87992474D01*
X83397017Y-88132489D01*
X83469487Y-88258010D01*
X83469489Y-88258012D01*
X83469491Y-88258015D01*
X83571985Y-88360509D01*
X83571987Y-88360510D01*
X83571988Y-88360511D01*
X83577134Y-88364460D01*
X83575925Y-88366035D01*
X83610770Y-88404737D01*
X83617163Y-88465588D01*
X83586568Y-88518574D01*
X83577078Y-88525468D01*
X83577134Y-88525540D01*
X83571988Y-88529488D01*
X83469487Y-88631989D01*
X83397017Y-88757510D01*
X83396213Y-88760512D01*
X83359500Y-88897525D01*
X83359500Y-89042475D01*
X83368019Y-89074269D01*
X83397017Y-89182489D01*
X83469487Y-89308010D01*
X83469489Y-89308012D01*
X83469491Y-89308015D01*
X83571985Y-89410509D01*
X83571987Y-89410510D01*
X83571989Y-89410512D01*
X83697511Y-89482982D01*
X83697512Y-89482982D01*
X83697515Y-89482984D01*
X83837525Y-89520500D01*
X83837526Y-89520500D01*
X83982474Y-89520500D01*
X83982475Y-89520500D01*
X84122485Y-89482984D01*
X84122487Y-89482982D01*
X84122489Y-89482982D01*
X84248010Y-89410512D01*
X84248010Y-89410511D01*
X84248015Y-89410509D01*
X84350509Y-89308015D01*
X84375055Y-89265500D01*
X84422982Y-89182489D01*
X84422982Y-89182487D01*
X84422984Y-89182485D01*
X84460500Y-89042475D01*
X84460500Y-88897525D01*
X86609500Y-88897525D01*
X86609500Y-89042475D01*
X86618019Y-89074269D01*
X86647017Y-89182489D01*
X86719487Y-89308010D01*
X86719489Y-89308012D01*
X86719491Y-89308015D01*
X86821985Y-89410509D01*
X86821987Y-89410510D01*
X86821989Y-89410512D01*
X86947511Y-89482982D01*
X86947512Y-89482982D01*
X86947515Y-89482984D01*
X87087525Y-89520500D01*
X87087526Y-89520500D01*
X87232474Y-89520500D01*
X87232475Y-89520500D01*
X87372485Y-89482984D01*
X87372487Y-89482982D01*
X87372489Y-89482982D01*
X87498010Y-89410512D01*
X87498010Y-89410511D01*
X87498015Y-89410509D01*
X87600509Y-89308015D01*
X87625055Y-89265500D01*
X87672982Y-89182489D01*
X87672982Y-89182487D01*
X87672984Y-89182485D01*
X87710500Y-89042475D01*
X87710500Y-88897525D01*
X87672984Y-88757515D01*
X87672982Y-88757512D01*
X87672982Y-88757510D01*
X87600512Y-88631989D01*
X87600510Y-88631987D01*
X87600509Y-88631985D01*
X87498015Y-88529491D01*
X87498012Y-88529489D01*
X87498010Y-88529487D01*
X87372488Y-88457017D01*
X87372489Y-88457017D01*
X87250851Y-88424424D01*
X87232475Y-88419500D01*
X87087525Y-88419500D01*
X87069149Y-88424424D01*
X86947510Y-88457017D01*
X86821989Y-88529487D01*
X86719487Y-88631989D01*
X86647017Y-88757510D01*
X86646213Y-88760512D01*
X86609500Y-88897525D01*
X84460500Y-88897525D01*
X84422984Y-88757515D01*
X84422982Y-88757512D01*
X84422982Y-88757510D01*
X84350512Y-88631989D01*
X84350510Y-88631987D01*
X84350509Y-88631985D01*
X84248015Y-88529491D01*
X84248012Y-88529489D01*
X84248011Y-88529488D01*
X84242866Y-88525540D01*
X84244076Y-88523963D01*
X84209234Y-88485274D01*
X84202834Y-88424424D01*
X84233422Y-88371434D01*
X84242921Y-88364532D01*
X84242866Y-88364460D01*
X84248009Y-88360512D01*
X84248015Y-88360509D01*
X84350509Y-88258015D01*
X84351615Y-88256099D01*
X84422982Y-88132489D01*
X84422982Y-88132487D01*
X84422984Y-88132485D01*
X84460500Y-87992475D01*
X84460500Y-87847525D01*
X84422984Y-87707515D01*
X84422982Y-87707512D01*
X84422982Y-87707510D01*
X84350512Y-87581989D01*
X84350510Y-87581987D01*
X84350509Y-87581985D01*
X84248015Y-87479491D01*
X84248012Y-87479489D01*
X84248011Y-87479488D01*
X84242866Y-87475540D01*
X84244076Y-87473963D01*
X84209234Y-87435274D01*
X84202834Y-87374424D01*
X84233422Y-87321434D01*
X84242921Y-87314532D01*
X84242866Y-87314460D01*
X84248009Y-87310512D01*
X84248015Y-87310509D01*
X84350509Y-87208015D01*
X84379953Y-87157017D01*
X84422982Y-87082489D01*
X84422982Y-87082487D01*
X84422984Y-87082485D01*
X84460500Y-86942475D01*
X84460500Y-86797525D01*
X84422984Y-86657515D01*
X84422982Y-86657512D01*
X84422982Y-86657510D01*
X84350512Y-86531989D01*
X84350510Y-86531987D01*
X84350509Y-86531985D01*
X84248015Y-86429491D01*
X84248012Y-86429489D01*
X84248010Y-86429487D01*
X84122488Y-86357017D01*
X84122489Y-86357017D01*
X84092896Y-86349087D01*
X83982475Y-86319500D01*
X83837525Y-86319500D01*
X83775790Y-86336041D01*
X83697510Y-86357017D01*
X83571989Y-86429487D01*
X83469487Y-86531989D01*
X83397017Y-86657510D01*
X83365127Y-86776524D01*
X83359500Y-86797525D01*
X80113919Y-86797525D01*
X80134920Y-86776524D01*
X80134920Y-86776523D01*
X80090353Y-86744143D01*
X80090348Y-86744139D01*
X79953102Y-86674210D01*
X79909838Y-86630945D01*
X79900266Y-86570513D01*
X79928043Y-86515997D01*
X79953102Y-86497790D01*
X80090342Y-86427863D01*
X80090350Y-86427858D01*
X80134920Y-86395475D01*
X79538408Y-85798962D01*
X79601993Y-85781925D01*
X79716007Y-85716099D01*
X79809099Y-85623007D01*
X79874925Y-85508993D01*
X79891962Y-85445407D01*
X80488475Y-86041920D01*
X80520858Y-85997350D01*
X80520863Y-85997342D01*
X80613756Y-85815027D01*
X80676990Y-85620413D01*
X80677606Y-85616525D01*
X85229500Y-85616525D01*
X85229500Y-85761475D01*
X85244110Y-85816000D01*
X85267017Y-85901489D01*
X85339487Y-86027010D01*
X85339489Y-86027012D01*
X85339491Y-86027015D01*
X85441985Y-86129509D01*
X85441987Y-86129510D01*
X85441989Y-86129512D01*
X85567511Y-86201982D01*
X85567512Y-86201982D01*
X85567515Y-86201984D01*
X85707525Y-86239500D01*
X85755627Y-86239500D01*
X85813818Y-86258407D01*
X85825631Y-86268496D01*
X88481504Y-88924369D01*
X88509281Y-88978886D01*
X88510500Y-88994373D01*
X88510500Y-89042475D01*
X88519019Y-89074269D01*
X88548017Y-89182489D01*
X88620487Y-89308010D01*
X88620489Y-89308012D01*
X88620491Y-89308015D01*
X88722985Y-89410509D01*
X88722987Y-89410510D01*
X88722989Y-89410512D01*
X88848511Y-89482982D01*
X88848512Y-89482982D01*
X88848515Y-89482984D01*
X88988525Y-89520500D01*
X88988526Y-89520500D01*
X89133474Y-89520500D01*
X89133475Y-89520500D01*
X89273485Y-89482984D01*
X89273487Y-89482982D01*
X89273489Y-89482982D01*
X89399010Y-89410512D01*
X89399010Y-89410511D01*
X89399015Y-89410509D01*
X89416022Y-89393501D01*
X89433029Y-89376496D01*
X89487546Y-89348719D01*
X89503032Y-89347500D01*
X91775127Y-89347500D01*
X91833318Y-89366407D01*
X91845130Y-89376495D01*
X92890710Y-90422076D01*
X92976790Y-90471774D01*
X93072801Y-90497500D01*
X93172199Y-90497500D01*
X94474221Y-90497500D01*
X94532412Y-90516407D01*
X94568376Y-90565907D01*
X94568376Y-90627093D01*
X94532412Y-90676593D01*
X94512105Y-90687965D01*
X94506809Y-90690158D01*
X94381289Y-90762627D01*
X94278787Y-90865129D01*
X94206317Y-90990650D01*
X94173553Y-91112926D01*
X94168800Y-91130665D01*
X94168800Y-91275615D01*
X94185311Y-91337233D01*
X94206317Y-91415629D01*
X94278787Y-91541150D01*
X94278789Y-91541152D01*
X94278791Y-91541155D01*
X94381285Y-91643649D01*
X94381287Y-91643650D01*
X94381289Y-91643652D01*
X94506811Y-91716122D01*
X94506812Y-91716122D01*
X94506815Y-91716124D01*
X94646825Y-91753640D01*
X94646826Y-91753640D01*
X94791774Y-91753640D01*
X94791775Y-91753640D01*
X94931785Y-91716124D01*
X94931787Y-91716122D01*
X94931789Y-91716122D01*
X95034315Y-91656928D01*
X95057315Y-91643649D01*
X95057323Y-91643640D01*
X95059070Y-91642301D01*
X95060573Y-91641768D01*
X95062935Y-91640405D01*
X95063187Y-91640842D01*
X95116743Y-91621869D01*
X95175411Y-91639239D01*
X95179620Y-91642297D01*
X95181384Y-91643651D01*
X95306908Y-91716122D01*
X95306909Y-91716122D01*
X95306912Y-91716124D01*
X95446922Y-91753640D01*
X95446923Y-91753640D01*
X95591871Y-91753640D01*
X95591872Y-91753640D01*
X95731882Y-91716124D01*
X95731884Y-91716122D01*
X95731886Y-91716122D01*
X95807510Y-91672460D01*
X95857412Y-91643649D01*
X95857422Y-91643638D01*
X95859172Y-91642297D01*
X95860680Y-91641762D01*
X95863032Y-91640405D01*
X95863283Y-91640840D01*
X95916846Y-91621867D01*
X95975514Y-91639239D01*
X95979718Y-91642293D01*
X95981488Y-91643652D01*
X96107011Y-91716122D01*
X96107012Y-91716122D01*
X96107015Y-91716124D01*
X96247025Y-91753640D01*
X96247026Y-91753640D01*
X96391974Y-91753640D01*
X96391975Y-91753640D01*
X96531985Y-91716124D01*
X96531987Y-91716122D01*
X96531989Y-91716122D01*
X96657510Y-91643652D01*
X96657510Y-91643651D01*
X96657515Y-91643649D01*
X96760009Y-91541155D01*
X96762650Y-91536581D01*
X96832482Y-91415629D01*
X96832482Y-91415627D01*
X96832484Y-91415625D01*
X96870000Y-91275615D01*
X96870000Y-91130665D01*
X96832484Y-90990655D01*
X96832482Y-90990652D01*
X96832482Y-90990650D01*
X96760012Y-90865129D01*
X96760010Y-90865127D01*
X96760009Y-90865125D01*
X96657515Y-90762631D01*
X96657512Y-90762629D01*
X96657510Y-90762627D01*
X96531990Y-90690158D01*
X96526695Y-90687965D01*
X96480169Y-90648229D01*
X96465884Y-90588734D01*
X96489298Y-90532206D01*
X96541466Y-90500236D01*
X96564579Y-90497500D01*
X98075941Y-90497500D01*
X98134132Y-90516407D01*
X98170096Y-90565907D01*
X98170096Y-90627093D01*
X98134132Y-90676593D01*
X98113825Y-90687965D01*
X98108529Y-90690158D01*
X97983009Y-90762627D01*
X97880507Y-90865129D01*
X97808037Y-90990650D01*
X97775273Y-91112926D01*
X97770520Y-91130665D01*
X97770520Y-91275615D01*
X97787031Y-91337233D01*
X97808037Y-91415629D01*
X97845466Y-91480457D01*
X97858188Y-91540305D01*
X97833301Y-91596201D01*
X97780313Y-91626794D01*
X97734107Y-91625584D01*
X97691879Y-91614269D01*
X97593395Y-91587880D01*
X97448445Y-91587880D01*
X97417391Y-91596201D01*
X97308430Y-91625397D01*
X97182909Y-91697867D01*
X97080407Y-91800369D01*
X97007937Y-91925890D01*
X96970420Y-92065905D01*
X96970420Y-92210854D01*
X97007937Y-92350869D01*
X97080407Y-92476390D01*
X97080409Y-92476392D01*
X97080411Y-92476395D01*
X97182905Y-92578889D01*
X97182907Y-92578890D01*
X97182909Y-92578892D01*
X97308431Y-92651362D01*
X97308432Y-92651362D01*
X97308435Y-92651364D01*
X97448445Y-92688880D01*
X97448446Y-92688880D01*
X97593394Y-92688880D01*
X97593395Y-92688880D01*
X97733405Y-92651364D01*
X97733407Y-92651362D01*
X97733409Y-92651362D01*
X97858928Y-92578893D01*
X97858927Y-92578893D01*
X97858935Y-92578889D01*
X97858940Y-92578883D01*
X97860696Y-92577537D01*
X97862201Y-92577003D01*
X97864555Y-92575645D01*
X97864806Y-92576080D01*
X97918370Y-92557108D01*
X97977037Y-92574481D01*
X97981244Y-92577537D01*
X97983002Y-92578886D01*
X97983005Y-92578889D01*
X97983008Y-92578890D01*
X97983011Y-92578893D01*
X98108531Y-92651362D01*
X98108532Y-92651362D01*
X98108535Y-92651364D01*
X98248545Y-92688880D01*
X98248546Y-92688880D01*
X98393494Y-92688880D01*
X98393495Y-92688880D01*
X98533505Y-92651364D01*
X98533507Y-92651362D01*
X98533509Y-92651362D01*
X98659028Y-92578893D01*
X98659027Y-92578893D01*
X98659035Y-92578889D01*
X98659040Y-92578883D01*
X98660796Y-92577537D01*
X98662301Y-92577003D01*
X98664655Y-92575645D01*
X98664906Y-92576080D01*
X98718470Y-92557108D01*
X98777137Y-92574481D01*
X98781344Y-92577537D01*
X98783102Y-92578886D01*
X98783105Y-92578889D01*
X98783108Y-92578890D01*
X98783111Y-92578893D01*
X98908631Y-92651362D01*
X98908632Y-92651362D01*
X98908635Y-92651364D01*
X99048645Y-92688880D01*
X99048646Y-92688880D01*
X99193594Y-92688880D01*
X99193595Y-92688880D01*
X99333605Y-92651364D01*
X99333607Y-92651362D01*
X99333609Y-92651362D01*
X99459128Y-92578893D01*
X99459127Y-92578893D01*
X99459135Y-92578889D01*
X99459140Y-92578883D01*
X99460896Y-92577537D01*
X99462401Y-92577003D01*
X99464755Y-92575645D01*
X99465006Y-92576080D01*
X99518570Y-92557108D01*
X99577237Y-92574481D01*
X99581444Y-92577537D01*
X99583202Y-92578886D01*
X99583205Y-92578889D01*
X99583208Y-92578890D01*
X99583211Y-92578893D01*
X99708731Y-92651362D01*
X99708732Y-92651362D01*
X99708735Y-92651364D01*
X99848745Y-92688880D01*
X99848746Y-92688880D01*
X99993694Y-92688880D01*
X99993695Y-92688880D01*
X100133705Y-92651364D01*
X100133707Y-92651362D01*
X100133709Y-92651362D01*
X100259230Y-92578892D01*
X100259230Y-92578891D01*
X100259235Y-92578889D01*
X100361729Y-92476395D01*
X100394115Y-92420301D01*
X100434202Y-92350869D01*
X100434202Y-92350867D01*
X100434204Y-92350865D01*
X100471720Y-92210855D01*
X100471720Y-92065905D01*
X100434204Y-91925895D01*
X100434202Y-91925892D01*
X100434202Y-91925890D01*
X100361732Y-91800369D01*
X100361730Y-91800367D01*
X100361729Y-91800365D01*
X100259235Y-91697871D01*
X100259232Y-91697869D01*
X100259230Y-91697867D01*
X100133708Y-91625397D01*
X100133709Y-91625397D01*
X100092179Y-91614269D01*
X99993695Y-91587880D01*
X99848745Y-91587880D01*
X99817691Y-91596201D01*
X99708032Y-91625584D01*
X99646930Y-91622381D01*
X99599381Y-91583876D01*
X99583545Y-91524776D01*
X99596673Y-91480457D01*
X99634104Y-91415625D01*
X99671620Y-91275615D01*
X99671620Y-91130665D01*
X99634104Y-90990655D01*
X99634102Y-90990652D01*
X99634102Y-90990650D01*
X99561632Y-90865129D01*
X99561630Y-90865127D01*
X99561629Y-90865125D01*
X99459135Y-90762631D01*
X99459132Y-90762629D01*
X99459130Y-90762627D01*
X99333610Y-90690158D01*
X99328315Y-90687965D01*
X99281789Y-90648229D01*
X99267504Y-90588734D01*
X99290918Y-90532206D01*
X99343086Y-90500236D01*
X99366199Y-90497500D01*
X99962627Y-90497500D01*
X100020818Y-90516407D01*
X100032631Y-90526496D01*
X102103504Y-92597369D01*
X102131281Y-92651886D01*
X102132500Y-92667373D01*
X102132500Y-93827968D01*
X102113593Y-93886159D01*
X102103504Y-93897971D01*
X102069492Y-93931983D01*
X102069487Y-93931989D01*
X101997017Y-94057510D01*
X101959500Y-94197525D01*
X101959500Y-94342474D01*
X101997017Y-94482489D01*
X102069487Y-94608010D01*
X102069489Y-94608012D01*
X102069491Y-94608015D01*
X102171985Y-94710509D01*
X102171987Y-94710510D01*
X102171989Y-94710512D01*
X102297511Y-94782982D01*
X102297512Y-94782982D01*
X102297515Y-94782984D01*
X102437525Y-94820500D01*
X102437526Y-94820500D01*
X102582474Y-94820500D01*
X102582475Y-94820500D01*
X102722485Y-94782984D01*
X102722487Y-94782982D01*
X102722489Y-94782982D01*
X102848010Y-94710512D01*
X102848010Y-94710511D01*
X102848015Y-94710509D01*
X102950509Y-94608015D01*
X102950512Y-94608010D01*
X103022982Y-94482489D01*
X103022982Y-94482487D01*
X103022984Y-94482485D01*
X103060500Y-94342475D01*
X103060500Y-94197525D01*
X103022984Y-94057515D01*
X103022982Y-94057512D01*
X103022982Y-94057510D01*
X102950512Y-93931989D01*
X102950507Y-93931983D01*
X102916496Y-93897971D01*
X102888719Y-93843454D01*
X102887500Y-93827968D01*
X102887500Y-92420301D01*
X102861774Y-92324291D01*
X102861774Y-92324289D01*
X102812078Y-92238214D01*
X102812076Y-92238212D01*
X102812075Y-92238210D01*
X101836390Y-91262525D01*
X107429500Y-91262525D01*
X107429500Y-91407475D01*
X107453486Y-91496991D01*
X107467017Y-91547489D01*
X107539487Y-91673010D01*
X107539489Y-91673012D01*
X107539491Y-91673015D01*
X107641985Y-91775509D01*
X107641987Y-91775510D01*
X107641989Y-91775512D01*
X107767511Y-91847982D01*
X107767512Y-91847982D01*
X107767515Y-91847984D01*
X107907525Y-91885500D01*
X107907526Y-91885500D01*
X108052474Y-91885500D01*
X108052475Y-91885500D01*
X108192485Y-91847984D01*
X108192487Y-91847982D01*
X108192489Y-91847982D01*
X108318010Y-91775512D01*
X108318010Y-91775511D01*
X108318015Y-91775509D01*
X108420509Y-91673015D01*
X108420512Y-91673010D01*
X108492982Y-91547489D01*
X108492982Y-91547487D01*
X108492984Y-91547485D01*
X108530500Y-91407475D01*
X108530500Y-91262525D01*
X108492984Y-91122515D01*
X108492982Y-91122512D01*
X108492982Y-91122510D01*
X108420512Y-90996989D01*
X108420510Y-90996987D01*
X108420509Y-90996985D01*
X108318015Y-90894491D01*
X108318012Y-90894489D01*
X108318010Y-90894487D01*
X108192488Y-90822017D01*
X108192489Y-90822017D01*
X108162896Y-90814087D01*
X108052475Y-90784500D01*
X107907525Y-90784500D01*
X107845790Y-90801041D01*
X107767510Y-90822017D01*
X107641989Y-90894487D01*
X107539487Y-90996989D01*
X107467017Y-91122510D01*
X107467016Y-91122515D01*
X107429500Y-91262525D01*
X101836390Y-91262525D01*
X100391790Y-89817925D01*
X100305710Y-89768226D01*
X100209699Y-89742500D01*
X100209697Y-89742500D01*
X99007975Y-89742500D01*
X98949784Y-89723593D01*
X98913820Y-89674093D01*
X98913820Y-89612907D01*
X98949784Y-89563407D01*
X98958475Y-89557764D01*
X99057810Y-89500412D01*
X99057810Y-89500411D01*
X99057815Y-89500409D01*
X99160309Y-89397915D01*
X99178500Y-89366407D01*
X99232782Y-89272389D01*
X99232782Y-89272387D01*
X99232784Y-89272385D01*
X99270300Y-89132375D01*
X99270300Y-88987425D01*
X99232784Y-88847415D01*
X99232782Y-88847412D01*
X99232782Y-88847410D01*
X99160312Y-88721889D01*
X99160310Y-88721887D01*
X99160309Y-88721885D01*
X99057815Y-88619391D01*
X99057812Y-88619389D01*
X99057810Y-88619387D01*
X98932288Y-88546917D01*
X98932289Y-88546917D01*
X98867258Y-88529492D01*
X98792275Y-88509400D01*
X98647325Y-88509400D01*
X98613088Y-88518574D01*
X98507310Y-88546917D01*
X98381785Y-88619389D01*
X98380017Y-88620747D01*
X98378512Y-88621279D01*
X98376165Y-88622635D01*
X98375913Y-88622199D01*
X98322341Y-88641171D01*
X98263675Y-88623793D01*
X98259483Y-88620747D01*
X98257714Y-88619389D01*
X98132188Y-88546917D01*
X98132189Y-88546917D01*
X98067158Y-88529492D01*
X97992175Y-88509400D01*
X97847225Y-88509400D01*
X97812988Y-88518574D01*
X97707210Y-88546917D01*
X97581689Y-88619387D01*
X97479187Y-88721889D01*
X97406717Y-88847410D01*
X97406716Y-88847415D01*
X97369200Y-88987425D01*
X97369200Y-89132375D01*
X97375399Y-89155509D01*
X97406717Y-89272389D01*
X97479187Y-89397910D01*
X97479189Y-89397912D01*
X97479191Y-89397915D01*
X97581685Y-89500409D01*
X97581687Y-89500410D01*
X97581689Y-89500412D01*
X97681025Y-89557764D01*
X97721966Y-89603233D01*
X97728362Y-89664083D01*
X97697769Y-89717071D01*
X97641873Y-89741958D01*
X97631525Y-89742500D01*
X94608695Y-89742500D01*
X94550504Y-89723593D01*
X94514540Y-89674093D01*
X94514540Y-89612907D01*
X94550504Y-89563407D01*
X94559195Y-89557764D01*
X94658530Y-89500412D01*
X94658530Y-89500411D01*
X94658535Y-89500409D01*
X94761029Y-89397915D01*
X94779220Y-89366407D01*
X94833502Y-89272389D01*
X94833502Y-89272387D01*
X94833504Y-89272385D01*
X94871020Y-89132375D01*
X94871020Y-88987425D01*
X94833504Y-88847415D01*
X94833502Y-88847412D01*
X94833502Y-88847410D01*
X94761032Y-88721889D01*
X94761030Y-88721887D01*
X94761029Y-88721885D01*
X94658535Y-88619391D01*
X94658532Y-88619389D01*
X94658530Y-88619387D01*
X94533008Y-88546917D01*
X94533009Y-88546917D01*
X94467978Y-88529492D01*
X94392995Y-88509400D01*
X94248045Y-88509400D01*
X94213808Y-88518574D01*
X94108030Y-88546917D01*
X93982509Y-88619387D01*
X93880007Y-88721889D01*
X93807537Y-88847410D01*
X93807536Y-88847415D01*
X93770020Y-88987425D01*
X93770020Y-89132375D01*
X93776219Y-89155509D01*
X93807537Y-89272389D01*
X93880007Y-89397910D01*
X93880009Y-89397912D01*
X93880011Y-89397915D01*
X93982505Y-89500409D01*
X93982507Y-89500410D01*
X93982509Y-89500412D01*
X94081845Y-89557764D01*
X94122786Y-89603233D01*
X94129182Y-89664083D01*
X94098589Y-89717071D01*
X94042693Y-89741958D01*
X94032345Y-89742500D01*
X93319874Y-89742500D01*
X93261683Y-89723593D01*
X93249870Y-89713504D01*
X92991132Y-89454766D01*
X92204290Y-88667925D01*
X92204158Y-88667849D01*
X92118212Y-88618227D01*
X92118211Y-88618226D01*
X92118210Y-88618226D01*
X92022199Y-88592500D01*
X92022197Y-88592500D01*
X89503032Y-88592500D01*
X89444841Y-88573593D01*
X89433029Y-88563504D01*
X89399016Y-88529492D01*
X89399010Y-88529487D01*
X89273488Y-88457017D01*
X89273489Y-88457017D01*
X89151851Y-88424424D01*
X89133475Y-88419500D01*
X89133474Y-88419500D01*
X89085374Y-88419500D01*
X89027183Y-88400593D01*
X89015370Y-88390504D01*
X88272391Y-87647525D01*
X92809500Y-87647525D01*
X92809500Y-87792475D01*
X92839087Y-87902896D01*
X92847017Y-87932489D01*
X92919487Y-88058010D01*
X92919489Y-88058012D01*
X92919491Y-88058015D01*
X93021985Y-88160509D01*
X93021987Y-88160510D01*
X93021989Y-88160512D01*
X93147511Y-88232982D01*
X93147512Y-88232982D01*
X93147515Y-88232984D01*
X93287525Y-88270500D01*
X93287526Y-88270500D01*
X93432474Y-88270500D01*
X93432475Y-88270500D01*
X93518218Y-88247525D01*
X95759500Y-88247525D01*
X95759500Y-88392475D01*
X95773574Y-88445000D01*
X95797017Y-88532489D01*
X95869487Y-88658010D01*
X95869489Y-88658012D01*
X95869491Y-88658015D01*
X95971985Y-88760509D01*
X95971987Y-88760510D01*
X95971989Y-88760512D01*
X96097511Y-88832982D01*
X96097512Y-88832982D01*
X96097515Y-88832984D01*
X96237525Y-88870500D01*
X96237526Y-88870500D01*
X96382474Y-88870500D01*
X96382475Y-88870500D01*
X96522485Y-88832984D01*
X96522487Y-88832982D01*
X96522489Y-88832982D01*
X96648010Y-88760512D01*
X96648010Y-88760511D01*
X96648015Y-88760509D01*
X96750509Y-88658015D01*
X96750512Y-88658010D01*
X96822982Y-88532489D01*
X96822982Y-88532487D01*
X96822984Y-88532485D01*
X96860500Y-88392475D01*
X96860500Y-88247525D01*
X96822984Y-88107515D01*
X96822982Y-88107512D01*
X96822982Y-88107510D01*
X96750512Y-87981989D01*
X96750510Y-87981987D01*
X96750509Y-87981985D01*
X96648015Y-87879491D01*
X96648012Y-87879489D01*
X96648010Y-87879487D01*
X96522488Y-87807017D01*
X96522489Y-87807017D01*
X96468214Y-87792474D01*
X96382475Y-87769500D01*
X96237525Y-87769500D01*
X96175790Y-87786041D01*
X96097510Y-87807017D01*
X95971989Y-87879487D01*
X95869487Y-87981989D01*
X95797017Y-88107510D01*
X95775713Y-88187017D01*
X95759500Y-88247525D01*
X93518218Y-88247525D01*
X93572485Y-88232984D01*
X93572487Y-88232982D01*
X93572489Y-88232982D01*
X93698008Y-88160513D01*
X93698007Y-88160513D01*
X93698015Y-88160509D01*
X93800509Y-88058015D01*
X93829377Y-88008015D01*
X93872982Y-87932489D01*
X93872982Y-87932487D01*
X93872984Y-87932485D01*
X93910500Y-87792475D01*
X93910500Y-87647525D01*
X93897102Y-87597525D01*
X97369200Y-87597525D01*
X97369200Y-87742475D01*
X97381981Y-87790174D01*
X97406717Y-87882489D01*
X97479187Y-88008010D01*
X97479189Y-88008012D01*
X97479191Y-88008015D01*
X97581685Y-88110509D01*
X97581687Y-88110510D01*
X97581689Y-88110512D01*
X97707211Y-88182982D01*
X97707212Y-88182982D01*
X97707215Y-88182984D01*
X97847225Y-88220500D01*
X97847226Y-88220500D01*
X97992174Y-88220500D01*
X97992175Y-88220500D01*
X98132185Y-88182984D01*
X98132187Y-88182982D01*
X98132189Y-88182982D01*
X98257710Y-88110512D01*
X98257710Y-88110511D01*
X98257715Y-88110509D01*
X98360209Y-88008015D01*
X98375235Y-87981989D01*
X98432682Y-87882489D01*
X98432682Y-87882487D01*
X98432684Y-87882485D01*
X98470200Y-87742475D01*
X98470200Y-87597525D01*
X98432684Y-87457515D01*
X98432682Y-87457512D01*
X98432682Y-87457510D01*
X98360212Y-87331989D01*
X98360210Y-87331987D01*
X98360209Y-87331985D01*
X98257715Y-87229491D01*
X98257712Y-87229489D01*
X98257710Y-87229487D01*
X98132188Y-87157017D01*
X98132189Y-87157017D01*
X98031652Y-87130078D01*
X97992175Y-87119500D01*
X97847225Y-87119500D01*
X97807748Y-87130078D01*
X97707210Y-87157017D01*
X97581689Y-87229487D01*
X97479187Y-87331989D01*
X97406717Y-87457510D01*
X97401905Y-87475468D01*
X97369200Y-87597525D01*
X93897102Y-87597525D01*
X93872984Y-87507515D01*
X93872982Y-87507512D01*
X93872982Y-87507510D01*
X93800512Y-87381989D01*
X93800510Y-87381987D01*
X93800509Y-87381985D01*
X93698015Y-87279491D01*
X93698012Y-87279489D01*
X93698010Y-87279487D01*
X93572488Y-87207017D01*
X93572489Y-87207017D01*
X93542896Y-87199087D01*
X93432475Y-87169500D01*
X93287525Y-87169500D01*
X93225790Y-87186041D01*
X93147510Y-87207017D01*
X93021989Y-87279487D01*
X92919487Y-87381989D01*
X92847017Y-87507510D01*
X92817771Y-87616659D01*
X92809500Y-87647525D01*
X88272391Y-87647525D01*
X86651247Y-86026381D01*
X105359500Y-86026381D01*
X105359500Y-86213618D01*
X105396026Y-86397249D01*
X105467677Y-86570229D01*
X105467681Y-86570238D01*
X105542065Y-86681559D01*
X105571698Y-86725908D01*
X105704092Y-86858302D01*
X105770463Y-86902649D01*
X105859761Y-86962318D01*
X105859767Y-86962320D01*
X105859769Y-86962322D01*
X106032749Y-87033973D01*
X106216384Y-87070500D01*
X106216385Y-87070500D01*
X106403615Y-87070500D01*
X106403616Y-87070500D01*
X106587251Y-87033973D01*
X106649666Y-87008118D01*
X106710662Y-87003318D01*
X106757556Y-87029579D01*
X106954304Y-87226327D01*
X106982081Y-87280844D01*
X106983300Y-87296331D01*
X106983300Y-87682689D01*
X106964393Y-87740880D01*
X106914893Y-87776844D01*
X106858677Y-87778316D01*
X106732475Y-87744500D01*
X106587525Y-87744500D01*
X106525790Y-87761041D01*
X106447510Y-87782017D01*
X106321989Y-87854487D01*
X106219487Y-87956989D01*
X106147017Y-88082510D01*
X106126116Y-88160513D01*
X106109500Y-88222525D01*
X106109500Y-88367475D01*
X106119903Y-88406298D01*
X106147016Y-88507486D01*
X106205048Y-88608000D01*
X106217769Y-88667849D01*
X106205048Y-88707000D01*
X106147016Y-88807513D01*
X106112729Y-88935475D01*
X106109500Y-88947525D01*
X106109500Y-89092475D01*
X106139087Y-89202896D01*
X106147017Y-89232489D01*
X106219487Y-89358010D01*
X106219489Y-89358012D01*
X106219491Y-89358015D01*
X106321985Y-89460509D01*
X106321987Y-89460510D01*
X106321989Y-89460512D01*
X106447511Y-89532982D01*
X106447512Y-89532982D01*
X106447515Y-89532984D01*
X106587525Y-89570500D01*
X106587526Y-89570500D01*
X106732474Y-89570500D01*
X106732475Y-89570500D01*
X106872485Y-89532984D01*
X106872487Y-89532982D01*
X106872489Y-89532982D01*
X106998010Y-89460512D01*
X106998010Y-89460511D01*
X106998015Y-89460509D01*
X107100509Y-89358015D01*
X107129377Y-89308015D01*
X107172982Y-89232489D01*
X107172982Y-89232487D01*
X107172984Y-89232485D01*
X107210500Y-89092475D01*
X107210500Y-88993544D01*
X107229407Y-88935353D01*
X107278907Y-88899389D01*
X107340093Y-88899389D01*
X107389593Y-88935353D01*
X107395236Y-88944044D01*
X107449487Y-89038010D01*
X107449489Y-89038012D01*
X107449491Y-89038015D01*
X107551985Y-89140509D01*
X107551987Y-89140510D01*
X107551989Y-89140512D01*
X107677511Y-89212982D01*
X107677512Y-89212982D01*
X107677515Y-89212984D01*
X107817525Y-89250500D01*
X107817526Y-89250500D01*
X107962474Y-89250500D01*
X107962475Y-89250500D01*
X108102485Y-89212984D01*
X108102487Y-89212982D01*
X108102489Y-89212982D01*
X108228010Y-89140512D01*
X108228010Y-89140511D01*
X108228015Y-89140509D01*
X108330509Y-89038015D01*
X108347433Y-89008700D01*
X108392900Y-88967761D01*
X108453750Y-88961364D01*
X108506739Y-88991955D01*
X108518905Y-89008700D01*
X108544488Y-89053010D01*
X108544491Y-89053015D01*
X108646985Y-89155509D01*
X108646987Y-89155510D01*
X108646989Y-89155512D01*
X108772511Y-89227982D01*
X108772512Y-89227982D01*
X108772515Y-89227984D01*
X108912525Y-89265500D01*
X108912526Y-89265500D01*
X109057474Y-89265500D01*
X109057475Y-89265500D01*
X109197485Y-89227984D01*
X109197487Y-89227982D01*
X109197489Y-89227982D01*
X109323010Y-89155512D01*
X109323010Y-89155511D01*
X109323015Y-89155509D01*
X109425509Y-89053015D01*
X109434169Y-89038015D01*
X109497982Y-88927489D01*
X109497982Y-88927487D01*
X109497984Y-88927485D01*
X109535500Y-88787475D01*
X109535500Y-88642525D01*
X109497984Y-88502515D01*
X109497982Y-88502512D01*
X109497982Y-88502510D01*
X109425512Y-88376989D01*
X109425510Y-88376987D01*
X109425509Y-88376985D01*
X109323015Y-88274491D01*
X109323012Y-88274489D01*
X109323010Y-88274487D01*
X109197488Y-88202017D01*
X109197489Y-88202017D01*
X109167896Y-88194087D01*
X109057475Y-88164500D01*
X108912525Y-88164500D01*
X108850790Y-88181041D01*
X108772510Y-88202017D01*
X108646989Y-88274487D01*
X108544489Y-88376987D01*
X108527566Y-88406299D01*
X108482096Y-88447239D01*
X108421246Y-88453634D01*
X108368258Y-88423041D01*
X108356094Y-88406298D01*
X108330512Y-88361989D01*
X108330510Y-88361987D01*
X108330509Y-88361985D01*
X108228015Y-88259491D01*
X108228012Y-88259489D01*
X108228010Y-88259487D01*
X108102488Y-88187017D01*
X108102489Y-88187017D01*
X108072896Y-88179087D01*
X107962475Y-88149500D01*
X107842531Y-88149500D01*
X107834933Y-88147031D01*
X107827044Y-88148281D01*
X107806388Y-88137756D01*
X107784340Y-88130593D01*
X107772527Y-88120504D01*
X107665696Y-88013673D01*
X107637919Y-87959156D01*
X107636700Y-87943669D01*
X107636700Y-87076990D01*
X107625173Y-87033972D01*
X107614436Y-86993899D01*
X107614436Y-86993898D01*
X107614436Y-86993897D01*
X107571428Y-86919406D01*
X107571424Y-86919401D01*
X107219579Y-86567555D01*
X107191802Y-86513039D01*
X107198118Y-86459667D01*
X107223973Y-86397251D01*
X107260500Y-86213616D01*
X107260500Y-86026384D01*
X107223973Y-85842749D01*
X107152322Y-85669769D01*
X107152320Y-85669767D01*
X107152318Y-85669761D01*
X107092649Y-85580463D01*
X107048302Y-85514092D01*
X106915908Y-85381698D01*
X106818812Y-85316820D01*
X106780934Y-85268773D01*
X106778532Y-85207635D01*
X106812525Y-85156761D01*
X106828870Y-85146297D01*
X106912730Y-85103568D01*
X106912735Y-85103564D01*
X106928532Y-85092087D01*
X106928532Y-85092086D01*
X106310000Y-84473554D01*
X105691466Y-85092087D01*
X105707266Y-85103566D01*
X105791129Y-85146297D01*
X105834394Y-85189562D01*
X105843965Y-85249994D01*
X105816187Y-85304511D01*
X105801186Y-85316821D01*
X105750057Y-85350985D01*
X105704092Y-85381698D01*
X105704088Y-85381701D01*
X105571701Y-85514088D01*
X105571698Y-85514092D01*
X105467681Y-85669761D01*
X105467677Y-85669770D01*
X105396026Y-85842750D01*
X105359500Y-86026381D01*
X86651247Y-86026381D01*
X86359496Y-85734630D01*
X86331719Y-85680113D01*
X86330500Y-85664626D01*
X86330500Y-85616525D01*
X86326688Y-85602297D01*
X86292984Y-85476515D01*
X86292982Y-85476512D01*
X86292982Y-85476510D01*
X86220512Y-85350989D01*
X86220510Y-85350987D01*
X86220509Y-85350985D01*
X86118015Y-85248491D01*
X86118012Y-85248489D01*
X86118010Y-85248487D01*
X85992488Y-85176017D01*
X85992489Y-85176017D01*
X85881573Y-85146297D01*
X85852475Y-85138500D01*
X85707525Y-85138500D01*
X85678427Y-85146297D01*
X85567510Y-85176017D01*
X85441989Y-85248487D01*
X85339487Y-85350989D01*
X85267017Y-85476510D01*
X85267016Y-85476515D01*
X85229500Y-85616525D01*
X80677606Y-85616525D01*
X80681088Y-85594548D01*
X80681088Y-85594547D01*
X80709000Y-85418315D01*
X80709000Y-85213684D01*
X80676991Y-85011587D01*
X80613756Y-84816972D01*
X80520858Y-84634647D01*
X80488475Y-84590078D01*
X79891962Y-85186590D01*
X79874925Y-85123007D01*
X79809099Y-85008993D01*
X79716007Y-84915901D01*
X79601993Y-84850075D01*
X79538407Y-84833037D01*
X80134920Y-84236524D01*
X80134920Y-84236523D01*
X80090353Y-84204143D01*
X80090348Y-84204139D01*
X79953102Y-84134210D01*
X79909838Y-84090945D01*
X79900266Y-84030513D01*
X79928043Y-83975997D01*
X79953102Y-83957790D01*
X80090342Y-83887863D01*
X80090350Y-83887858D01*
X80134920Y-83855475D01*
X80086485Y-83807040D01*
X80022970Y-83743525D01*
X84319620Y-83743525D01*
X84319620Y-83888475D01*
X84338193Y-83957790D01*
X84357137Y-84028489D01*
X84429607Y-84154010D01*
X84429609Y-84154012D01*
X84429611Y-84154015D01*
X84532105Y-84256509D01*
X84532107Y-84256510D01*
X84532109Y-84256512D01*
X84657631Y-84328982D01*
X84657632Y-84328982D01*
X84657635Y-84328984D01*
X84797645Y-84366500D01*
X84797646Y-84366500D01*
X84942594Y-84366500D01*
X84942595Y-84366500D01*
X85082605Y-84328984D01*
X85082607Y-84328982D01*
X85082609Y-84328982D01*
X85208130Y-84256512D01*
X85208130Y-84256511D01*
X85208135Y-84256509D01*
X85310629Y-84154015D01*
X85322064Y-84134210D01*
X85382524Y-84029489D01*
X105160000Y-84029489D01*
X105160000Y-84210510D01*
X105188316Y-84389289D01*
X105244250Y-84561440D01*
X105326432Y-84722730D01*
X105337911Y-84738531D01*
X105956444Y-84119999D01*
X105910367Y-84073922D01*
X105960000Y-84073922D01*
X105960000Y-84166078D01*
X105983852Y-84255095D01*
X106029930Y-84334905D01*
X106095095Y-84400070D01*
X106174905Y-84446148D01*
X106263922Y-84470000D01*
X106356078Y-84470000D01*
X106445095Y-84446148D01*
X106524905Y-84400070D01*
X106590070Y-84334905D01*
X106636148Y-84255095D01*
X106660000Y-84166078D01*
X106660000Y-84120000D01*
X106663554Y-84120000D01*
X107282086Y-84738532D01*
X107282087Y-84738532D01*
X107293564Y-84722735D01*
X107293568Y-84722730D01*
X107375749Y-84561440D01*
X107431683Y-84389289D01*
X107460000Y-84210510D01*
X107460000Y-84029489D01*
X107431683Y-83850710D01*
X107375749Y-83678559D01*
X107293566Y-83517266D01*
X107282087Y-83501466D01*
X106663554Y-84120000D01*
X106660000Y-84120000D01*
X106660000Y-84073922D01*
X106636148Y-83984905D01*
X106590070Y-83905095D01*
X106524905Y-83839930D01*
X106445095Y-83793852D01*
X106356078Y-83770000D01*
X106263922Y-83770000D01*
X106174905Y-83793852D01*
X106095095Y-83839930D01*
X106029930Y-83905095D01*
X105983852Y-83984905D01*
X105960000Y-84073922D01*
X105910367Y-84073922D01*
X105337911Y-83501466D01*
X105326434Y-83517264D01*
X105244250Y-83678559D01*
X105188316Y-83850710D01*
X105160000Y-84029489D01*
X85382524Y-84029489D01*
X85383104Y-84028485D01*
X85394782Y-83984905D01*
X85409974Y-83928202D01*
X85420620Y-83888475D01*
X85420620Y-83743525D01*
X85383104Y-83603515D01*
X85383102Y-83603512D01*
X85383102Y-83603510D01*
X85310632Y-83477989D01*
X85310630Y-83477987D01*
X85310629Y-83477985D01*
X85208135Y-83375491D01*
X85208132Y-83375489D01*
X85208130Y-83375487D01*
X85082610Y-83303018D01*
X85082607Y-83303017D01*
X85082605Y-83303016D01*
X85001442Y-83281268D01*
X84977150Y-83274759D01*
X84942595Y-83265500D01*
X84797645Y-83265500D01*
X84758459Y-83276000D01*
X84657630Y-83303017D01*
X84532109Y-83375487D01*
X84429607Y-83477989D01*
X84357137Y-83603510D01*
X84357136Y-83603515D01*
X84319620Y-83743525D01*
X80022970Y-83743525D01*
X79538408Y-83258962D01*
X79601993Y-83241925D01*
X79716007Y-83176099D01*
X79809099Y-83083007D01*
X79874925Y-82968993D01*
X79891962Y-82905407D01*
X80488475Y-83501920D01*
X80520858Y-83457350D01*
X80520863Y-83457342D01*
X80613756Y-83275027D01*
X80655059Y-83147911D01*
X105691466Y-83147911D01*
X106309999Y-83766444D01*
X106928532Y-83147911D01*
X106912730Y-83136432D01*
X106751440Y-83054250D01*
X106579289Y-82998316D01*
X106400510Y-82970000D01*
X106219490Y-82970000D01*
X106040710Y-82998316D01*
X105868559Y-83054250D01*
X105707264Y-83136434D01*
X105691466Y-83147911D01*
X80655059Y-83147911D01*
X80676991Y-83080412D01*
X80709000Y-82878315D01*
X80709000Y-82673684D01*
X80676991Y-82471587D01*
X80613756Y-82276972D01*
X80520858Y-82094647D01*
X80488475Y-82050078D01*
X79891962Y-82646590D01*
X79874925Y-82583007D01*
X79809099Y-82468993D01*
X79716007Y-82375901D01*
X79601993Y-82310075D01*
X79538407Y-82293037D01*
X80134920Y-81696524D01*
X80134920Y-81696523D01*
X80090353Y-81664143D01*
X80090348Y-81664139D01*
X79923734Y-81579246D01*
X79908027Y-81571243D01*
X79713413Y-81508009D01*
X79678361Y-81502457D01*
X79668682Y-81497525D01*
X84759500Y-81497525D01*
X84759500Y-81642475D01*
X84773982Y-81696523D01*
X84797017Y-81782489D01*
X84869487Y-81908010D01*
X84869489Y-81908012D01*
X84869491Y-81908015D01*
X84971985Y-82010509D01*
X84971987Y-82010510D01*
X84971989Y-82010512D01*
X85097511Y-82082982D01*
X85097512Y-82082982D01*
X85097515Y-82082984D01*
X85237525Y-82120500D01*
X85237526Y-82120500D01*
X85382474Y-82120500D01*
X85382475Y-82120500D01*
X85522485Y-82082984D01*
X85522487Y-82082982D01*
X85522489Y-82082982D01*
X85648010Y-82010512D01*
X85648010Y-82010511D01*
X85648015Y-82010509D01*
X85750509Y-81908015D01*
X85757143Y-81896524D01*
X85822982Y-81782489D01*
X85822982Y-81782487D01*
X85822984Y-81782485D01*
X85860500Y-81642475D01*
X85860500Y-81497525D01*
X85822984Y-81357515D01*
X85750509Y-81231985D01*
X85648015Y-81129491D01*
X85648012Y-81129489D01*
X85648010Y-81129487D01*
X85522488Y-81057017D01*
X85522489Y-81057017D01*
X85492896Y-81049087D01*
X85382475Y-81019500D01*
X85237525Y-81019500D01*
X85175790Y-81036041D01*
X85097510Y-81057017D01*
X84971989Y-81129487D01*
X84869487Y-81231989D01*
X84797017Y-81357510D01*
X84774984Y-81439737D01*
X84759500Y-81497525D01*
X79668682Y-81497525D01*
X79623845Y-81474679D01*
X79596068Y-81420162D01*
X79605640Y-81359730D01*
X79648905Y-81316466D01*
X79663256Y-81310521D01*
X79666698Y-81309402D01*
X79666701Y-81309402D01*
X79831445Y-81255873D01*
X79985788Y-81177232D01*
X80125928Y-81075414D01*
X80248414Y-80952928D01*
X80350232Y-80812788D01*
X80428873Y-80658445D01*
X80469495Y-80533424D01*
X105360000Y-80533424D01*
X105360000Y-80719999D01*
X105360001Y-80720000D01*
X106110000Y-80720000D01*
X106110000Y-81220000D01*
X105360001Y-81220000D01*
X105360000Y-81220001D01*
X105360000Y-81406575D01*
X105387084Y-81577579D01*
X105440588Y-81742248D01*
X105519195Y-81896524D01*
X105519197Y-81896528D01*
X105620962Y-82036596D01*
X105743403Y-82159037D01*
X105883471Y-82260802D01*
X105883475Y-82260804D01*
X106037751Y-82339411D01*
X106202413Y-82392913D01*
X106210000Y-82394114D01*
X106210000Y-81564975D01*
X106245095Y-81600070D01*
X106324905Y-81646148D01*
X106413922Y-81670000D01*
X106506078Y-81670000D01*
X106595095Y-81646148D01*
X106674905Y-81600070D01*
X106710000Y-81564975D01*
X106710000Y-82394114D01*
X106717586Y-82392913D01*
X106882248Y-82339411D01*
X107036524Y-82260804D01*
X107036528Y-82260802D01*
X107176596Y-82159037D01*
X107299037Y-82036596D01*
X107342256Y-81977110D01*
X107391755Y-81941146D01*
X107452941Y-81941145D01*
X107502441Y-81977109D01*
X107519447Y-82015986D01*
X107548429Y-82161688D01*
X107548429Y-82161690D01*
X107623808Y-82343673D01*
X107623814Y-82343685D01*
X107733249Y-82507462D01*
X107733252Y-82507466D01*
X107872533Y-82646747D01*
X107872537Y-82646750D01*
X108036314Y-82756185D01*
X108036326Y-82756191D01*
X108218304Y-82831568D01*
X108218315Y-82831571D01*
X108260000Y-82839862D01*
X108260000Y-82114975D01*
X108295095Y-82150070D01*
X108374905Y-82196148D01*
X108463922Y-82220000D01*
X108556078Y-82220000D01*
X108645095Y-82196148D01*
X108724905Y-82150070D01*
X108760000Y-82114975D01*
X108760000Y-82839861D01*
X108801684Y-82831571D01*
X108801695Y-82831568D01*
X108983673Y-82756191D01*
X108983685Y-82756185D01*
X109147462Y-82646750D01*
X109147466Y-82646747D01*
X109286748Y-82507465D01*
X109351362Y-82410763D01*
X109399412Y-82372883D01*
X109460550Y-82370481D01*
X109503682Y-82395760D01*
X109599711Y-82491789D01*
X109677876Y-82544017D01*
X109730814Y-82579390D01*
X109730825Y-82579396D01*
X109784638Y-82601685D01*
X109876503Y-82639737D01*
X110031158Y-82670500D01*
X110031159Y-82670500D01*
X110188841Y-82670500D01*
X110188842Y-82670500D01*
X110343497Y-82639737D01*
X110489179Y-82579394D01*
X110620289Y-82491789D01*
X110731789Y-82380289D01*
X110819394Y-82249179D01*
X110819396Y-82249172D01*
X110821684Y-82244894D01*
X110823251Y-82245731D01*
X110858266Y-82204729D01*
X110917760Y-82190441D01*
X110974289Y-82213851D01*
X110997255Y-82245460D01*
X110998316Y-82244894D01*
X111000609Y-82249185D01*
X111041295Y-82310075D01*
X111088211Y-82380289D01*
X111199711Y-82491789D01*
X111277876Y-82544017D01*
X111330814Y-82579390D01*
X111330825Y-82579396D01*
X111384638Y-82601685D01*
X111476503Y-82639737D01*
X111631158Y-82670500D01*
X111631159Y-82670500D01*
X111788841Y-82670500D01*
X111788842Y-82670500D01*
X111943497Y-82639737D01*
X112089179Y-82579394D01*
X112220289Y-82491789D01*
X112331789Y-82380289D01*
X112419394Y-82249179D01*
X112479737Y-82103497D01*
X112510500Y-81948842D01*
X112510500Y-81791158D01*
X112479737Y-81636503D01*
X112431480Y-81520000D01*
X112419396Y-81490825D01*
X112419390Y-81490814D01*
X112372181Y-81420162D01*
X112331789Y-81359711D01*
X112220289Y-81248211D01*
X112168059Y-81213312D01*
X112089185Y-81160609D01*
X112089174Y-81160603D01*
X111943497Y-81100263D01*
X111788844Y-81069500D01*
X111788842Y-81069500D01*
X111759140Y-81069500D01*
X111700949Y-81050593D01*
X111664985Y-81001093D01*
X111664985Y-80939907D01*
X111667676Y-80932615D01*
X111677694Y-80908429D01*
X111679737Y-80903497D01*
X111710500Y-80748842D01*
X111710500Y-80591158D01*
X111699016Y-80533424D01*
X112660000Y-80533424D01*
X112660000Y-80719999D01*
X112660001Y-80720000D01*
X113410000Y-80720000D01*
X113410000Y-81220000D01*
X112660001Y-81220000D01*
X112660000Y-81220001D01*
X112660000Y-81406575D01*
X112687084Y-81577579D01*
X112740588Y-81742248D01*
X112819195Y-81896524D01*
X112819197Y-81896528D01*
X112920962Y-82036596D01*
X113043403Y-82159037D01*
X113183471Y-82260802D01*
X113183475Y-82260804D01*
X113337751Y-82339411D01*
X113502413Y-82392913D01*
X113510000Y-82394114D01*
X113510000Y-81564975D01*
X113545095Y-81600070D01*
X113624905Y-81646148D01*
X113713922Y-81670000D01*
X113806078Y-81670000D01*
X113895095Y-81646148D01*
X113974905Y-81600070D01*
X114010000Y-81564975D01*
X114010000Y-82394114D01*
X114017586Y-82392913D01*
X114182248Y-82339411D01*
X114336524Y-82260804D01*
X114336528Y-82260802D01*
X114476596Y-82159037D01*
X114599037Y-82036596D01*
X114700802Y-81896528D01*
X114700804Y-81896524D01*
X114779411Y-81742248D01*
X114832915Y-81577579D01*
X114860000Y-81406575D01*
X114860000Y-81220001D01*
X114859999Y-81220000D01*
X114110000Y-81220000D01*
X114110000Y-80720000D01*
X114859999Y-80720000D01*
X114860000Y-80719999D01*
X114860000Y-80533424D01*
X114832915Y-80362420D01*
X114779411Y-80197751D01*
X114700804Y-80043475D01*
X114700802Y-80043471D01*
X114599037Y-79903403D01*
X114476596Y-79780962D01*
X114336528Y-79679197D01*
X114336524Y-79679195D01*
X114182248Y-79600588D01*
X114017586Y-79547086D01*
X114010000Y-79545884D01*
X114010000Y-80375025D01*
X113974905Y-80339930D01*
X113895095Y-80293852D01*
X113806078Y-80270000D01*
X113713922Y-80270000D01*
X113624905Y-80293852D01*
X113545095Y-80339930D01*
X113510000Y-80375025D01*
X113510000Y-79545884D01*
X113502413Y-79547086D01*
X113337751Y-79600588D01*
X113183475Y-79679195D01*
X113183471Y-79679197D01*
X113043403Y-79780962D01*
X112920962Y-79903403D01*
X112819197Y-80043471D01*
X112819195Y-80043475D01*
X112740588Y-80197751D01*
X112687084Y-80362420D01*
X112660000Y-80533424D01*
X111699016Y-80533424D01*
X111679737Y-80436503D01*
X111643723Y-80349557D01*
X111619396Y-80290825D01*
X111619390Y-80290814D01*
X111570130Y-80217093D01*
X111531789Y-80159711D01*
X111420289Y-80048211D01*
X111368059Y-80013312D01*
X111289185Y-79960609D01*
X111289174Y-79960603D01*
X111143497Y-79900263D01*
X110988844Y-79869500D01*
X110988842Y-79869500D01*
X110831158Y-79869500D01*
X110831155Y-79869500D01*
X110676503Y-79900263D01*
X110676501Y-79900263D01*
X110530825Y-79960603D01*
X110530814Y-79960609D01*
X110399711Y-80048211D01*
X110399707Y-80048214D01*
X110288214Y-80159707D01*
X110288211Y-80159711D01*
X110200609Y-80290814D01*
X110198316Y-80295106D01*
X110196751Y-80294269D01*
X110161722Y-80335278D01*
X110102226Y-80349557D01*
X110045700Y-80326139D01*
X110022741Y-80294540D01*
X110021684Y-80295106D01*
X110019390Y-80290814D01*
X109970130Y-80217093D01*
X109931789Y-80159711D01*
X109820289Y-80048211D01*
X109768059Y-80013312D01*
X109689185Y-79960609D01*
X109689174Y-79960603D01*
X109543497Y-79900263D01*
X109388844Y-79869500D01*
X109388842Y-79869500D01*
X109231158Y-79869500D01*
X109231155Y-79869500D01*
X109076503Y-79900263D01*
X109076501Y-79900263D01*
X108930825Y-79960603D01*
X108930814Y-79960609D01*
X108799711Y-80048211D01*
X108799707Y-80048214D01*
X108688214Y-80159707D01*
X108688211Y-80159711D01*
X108600609Y-80290814D01*
X108600603Y-80290825D01*
X108540263Y-80436501D01*
X108540263Y-80436503D01*
X108509500Y-80591155D01*
X108509500Y-80748844D01*
X108522219Y-80812785D01*
X108539594Y-80900136D01*
X108540263Y-80903496D01*
X108540263Y-80903498D01*
X108600603Y-81049174D01*
X108600609Y-81049185D01*
X108634739Y-81100263D01*
X108688211Y-81180289D01*
X108688214Y-81180292D01*
X108731004Y-81223082D01*
X108758781Y-81277599D01*
X108760000Y-81293086D01*
X108760000Y-81625025D01*
X108724905Y-81589930D01*
X108645095Y-81543852D01*
X108556078Y-81520000D01*
X108463922Y-81520000D01*
X108374905Y-81543852D01*
X108295095Y-81589930D01*
X108260000Y-81625025D01*
X108260000Y-80900136D01*
X108218308Y-80908429D01*
X108036326Y-80983808D01*
X108036314Y-80983814D01*
X107872537Y-81093249D01*
X107872533Y-81093252D01*
X107733252Y-81232533D01*
X107730172Y-81236288D01*
X107728211Y-81234679D01*
X107687683Y-81266515D01*
X107626540Y-81268810D01*
X107583577Y-81243578D01*
X107559999Y-81220000D01*
X106810000Y-81220000D01*
X106810000Y-80720000D01*
X107559999Y-80720000D01*
X107560000Y-80719999D01*
X107560000Y-80533424D01*
X107532915Y-80362420D01*
X107479411Y-80197751D01*
X107400804Y-80043475D01*
X107400802Y-80043471D01*
X107299037Y-79903403D01*
X107176596Y-79780962D01*
X107036528Y-79679197D01*
X107036524Y-79679195D01*
X106882248Y-79600588D01*
X106717586Y-79547086D01*
X106710000Y-79545884D01*
X106710000Y-80375025D01*
X106674905Y-80339930D01*
X106595095Y-80293852D01*
X106506078Y-80270000D01*
X106413922Y-80270000D01*
X106324905Y-80293852D01*
X106245095Y-80339930D01*
X106210000Y-80375025D01*
X106210000Y-79545884D01*
X106202413Y-79547086D01*
X106037751Y-79600588D01*
X105883475Y-79679195D01*
X105883471Y-79679197D01*
X105743403Y-79780962D01*
X105620962Y-79903403D01*
X105519197Y-80043471D01*
X105519195Y-80043475D01*
X105440588Y-80197751D01*
X105387084Y-80362420D01*
X105360000Y-80533424D01*
X80469495Y-80533424D01*
X80482402Y-80493701D01*
X80503195Y-80362420D01*
X80509500Y-80322614D01*
X80509500Y-80149385D01*
X80482402Y-79978297D01*
X80482401Y-79978293D01*
X80428876Y-79813561D01*
X80428874Y-79813558D01*
X80428873Y-79813557D01*
X80428873Y-79813555D01*
X80350232Y-79659212D01*
X80248414Y-79519072D01*
X80125928Y-79396586D01*
X79985788Y-79294768D01*
X79985787Y-79294767D01*
X79985785Y-79294766D01*
X79831441Y-79216125D01*
X79831438Y-79216123D01*
X79666706Y-79162598D01*
X79666702Y-79162597D01*
X79495614Y-79135500D01*
X79495611Y-79135500D01*
X79322389Y-79135500D01*
X79322386Y-79135500D01*
X79151297Y-79162597D01*
X79151293Y-79162598D01*
X78986561Y-79216123D01*
X78986558Y-79216125D01*
X78832214Y-79294766D01*
X78692073Y-79396585D01*
X78569585Y-79519073D01*
X78467766Y-79659214D01*
X78389125Y-79813558D01*
X78389123Y-79813561D01*
X78362153Y-79896568D01*
X78326189Y-79946068D01*
X78267998Y-79964975D01*
X78209808Y-79946067D01*
X78173844Y-79896567D01*
X78168999Y-79865975D01*
X78168999Y-79331796D01*
X78166149Y-79301399D01*
X78166149Y-79301397D01*
X78121345Y-79173352D01*
X78040792Y-79064209D01*
X78040790Y-79064207D01*
X77931647Y-78983654D01*
X77803601Y-78938850D01*
X77773211Y-78936000D01*
X77119001Y-78936000D01*
X77119000Y-78936001D01*
X77119000Y-79802988D01*
X77061993Y-79770075D01*
X76934826Y-79736000D01*
X76803174Y-79736000D01*
X76676007Y-79770075D01*
X76619000Y-79802988D01*
X76619000Y-78936001D01*
X76618999Y-78936000D01*
X75964796Y-78936000D01*
X75934399Y-78938850D01*
X75934397Y-78938850D01*
X75806352Y-78983654D01*
X75697209Y-79064207D01*
X75697207Y-79064209D01*
X75689155Y-79075120D01*
X75639387Y-79110712D01*
X75578203Y-79110254D01*
X75528974Y-79073920D01*
X75510500Y-79016331D01*
X75510500Y-75925800D01*
X75515345Y-75910888D01*
X75515345Y-75895207D01*
X75524561Y-75882521D01*
X75529407Y-75867609D01*
X75542092Y-75858392D01*
X75551309Y-75845707D01*
X75566221Y-75840861D01*
X75578907Y-75831645D01*
X75609500Y-75826800D01*
X75690500Y-75826800D01*
X75748691Y-75845707D01*
X75784655Y-75895207D01*
X75789500Y-75925800D01*
X75789500Y-76701472D01*
X75789501Y-76701484D01*
X75804033Y-76774536D01*
X75804035Y-76774542D01*
X75859397Y-76857399D01*
X75859399Y-76857401D01*
X75942260Y-76912766D01*
X75997808Y-76923815D01*
X76015315Y-76927298D01*
X76015320Y-76927298D01*
X76015326Y-76927300D01*
X76015327Y-76927300D01*
X77764673Y-76927300D01*
X77764674Y-76927300D01*
X77837740Y-76912766D01*
X77920601Y-76857401D01*
X77975966Y-76774540D01*
X77990500Y-76701474D01*
X77990500Y-75925800D01*
X77995345Y-75910888D01*
X77995345Y-75895207D01*
X78004561Y-75882521D01*
X78009407Y-75867609D01*
X78022092Y-75858392D01*
X78031309Y-75845707D01*
X78046221Y-75840861D01*
X78058907Y-75831645D01*
X78089500Y-75826800D01*
X78231228Y-75826800D01*
X78289419Y-75845707D01*
X78325383Y-75895207D01*
X78329009Y-75910313D01*
X78356597Y-76084502D01*
X78356598Y-76084506D01*
X78410123Y-76249238D01*
X78410125Y-76249241D01*
X78487465Y-76401032D01*
X78488768Y-76403588D01*
X78590586Y-76543728D01*
X78713072Y-76666214D01*
X78853212Y-76768032D01*
X79007555Y-76846673D01*
X79007557Y-76846673D01*
X79007558Y-76846674D01*
X79007561Y-76846676D01*
X79172293Y-76900201D01*
X79172297Y-76900202D01*
X79343386Y-76927300D01*
X79343389Y-76927300D01*
X79516614Y-76927300D01*
X79687702Y-76900202D01*
X79687706Y-76900201D01*
X79852438Y-76846676D01*
X79852440Y-76846674D01*
X79852445Y-76846673D01*
X80006788Y-76768032D01*
X80146928Y-76666214D01*
X80269414Y-76543728D01*
X80371232Y-76403588D01*
X80449873Y-76249245D01*
X80449874Y-76249240D01*
X80449876Y-76249238D01*
X80503401Y-76084506D01*
X80503402Y-76084502D01*
X80530991Y-75910313D01*
X80534617Y-75903196D01*
X80534617Y-75895207D01*
X80548243Y-75876451D01*
X80558768Y-75855796D01*
X80565885Y-75852169D01*
X80570581Y-75845707D01*
X80592629Y-75838543D01*
X80613285Y-75828019D01*
X80628772Y-75826800D01*
X80771228Y-75826800D01*
X80829419Y-75845707D01*
X80865383Y-75895207D01*
X80869009Y-75910313D01*
X80896597Y-76084502D01*
X80896598Y-76084506D01*
X80950123Y-76249238D01*
X80950125Y-76249241D01*
X81027465Y-76401032D01*
X81028768Y-76403588D01*
X81130586Y-76543728D01*
X81253072Y-76666214D01*
X81393212Y-76768032D01*
X81547555Y-76846673D01*
X81547557Y-76846673D01*
X81547558Y-76846674D01*
X81547561Y-76846676D01*
X81712293Y-76900201D01*
X81712297Y-76900202D01*
X81883386Y-76927300D01*
X81883389Y-76927300D01*
X82056614Y-76927300D01*
X82227702Y-76900202D01*
X82227706Y-76900201D01*
X82392438Y-76846676D01*
X82392440Y-76846674D01*
X82392445Y-76846673D01*
X82546788Y-76768032D01*
X82686928Y-76666214D01*
X82809414Y-76543728D01*
X82911232Y-76403588D01*
X82989873Y-76249245D01*
X82989874Y-76249240D01*
X82989876Y-76249238D01*
X83043401Y-76084506D01*
X83043402Y-76084502D01*
X83070991Y-75910313D01*
X83074617Y-75903196D01*
X83074617Y-75895207D01*
X83088243Y-75876451D01*
X83098768Y-75855796D01*
X83105885Y-75852169D01*
X83110581Y-75845707D01*
X83132629Y-75838543D01*
X83153285Y-75828019D01*
X83168772Y-75826800D01*
X83311228Y-75826800D01*
X83369419Y-75845707D01*
X83405383Y-75895207D01*
X83409009Y-75910313D01*
X83436597Y-76084502D01*
X83436598Y-76084506D01*
X83490123Y-76249238D01*
X83490125Y-76249241D01*
X83567465Y-76401032D01*
X83568768Y-76403588D01*
X83670586Y-76543728D01*
X83793072Y-76666214D01*
X83933212Y-76768032D01*
X84087555Y-76846673D01*
X84087557Y-76846673D01*
X84087558Y-76846674D01*
X84087561Y-76846676D01*
X84252293Y-76900201D01*
X84252297Y-76900202D01*
X84423386Y-76927300D01*
X84423389Y-76927300D01*
X84596614Y-76927300D01*
X84767702Y-76900202D01*
X84767706Y-76900201D01*
X84932438Y-76846676D01*
X84932440Y-76846674D01*
X84932445Y-76846673D01*
X85086788Y-76768032D01*
X85226928Y-76666214D01*
X85349414Y-76543728D01*
X85451232Y-76403588D01*
X85529873Y-76249245D01*
X85583402Y-76084501D01*
X85583402Y-76084498D01*
X85584521Y-76081056D01*
X85620485Y-76031556D01*
X85678676Y-76012649D01*
X85736867Y-76031556D01*
X85772831Y-76081056D01*
X85776457Y-76096161D01*
X85782009Y-76131213D01*
X85845243Y-76325827D01*
X85938139Y-76508148D01*
X85938143Y-76508153D01*
X85970523Y-76552720D01*
X85970524Y-76552720D01*
X86567037Y-75956208D01*
X86584075Y-76019793D01*
X86649901Y-76133807D01*
X86742993Y-76226899D01*
X86857007Y-76292725D01*
X86920590Y-76309762D01*
X86324078Y-76906275D01*
X86368647Y-76938658D01*
X86550972Y-77031556D01*
X86745587Y-77094791D01*
X86947685Y-77126800D01*
X87152315Y-77126800D01*
X87354412Y-77094791D01*
X87549027Y-77031556D01*
X87625631Y-76992525D01*
X95054500Y-76992525D01*
X95054500Y-77137475D01*
X95055676Y-77141863D01*
X95092017Y-77277489D01*
X95164487Y-77403010D01*
X95164489Y-77403012D01*
X95164491Y-77403015D01*
X95266985Y-77505509D01*
X95266987Y-77505510D01*
X95266989Y-77505512D01*
X95392511Y-77577982D01*
X95392512Y-77577982D01*
X95392515Y-77577984D01*
X95532525Y-77615500D01*
X95532526Y-77615500D01*
X95677474Y-77615500D01*
X95677475Y-77615500D01*
X95817485Y-77577984D01*
X95817487Y-77577982D01*
X95817489Y-77577982D01*
X95943010Y-77505512D01*
X95943010Y-77505511D01*
X95943015Y-77505509D01*
X96045509Y-77403015D01*
X96069264Y-77361869D01*
X96114733Y-77320930D01*
X96175583Y-77314534D01*
X96228571Y-77345127D01*
X96240734Y-77361867D01*
X96264491Y-77403015D01*
X96366985Y-77505509D01*
X96366987Y-77505510D01*
X96366989Y-77505512D01*
X96492511Y-77577982D01*
X96492512Y-77577982D01*
X96492515Y-77577984D01*
X96632525Y-77615500D01*
X96632526Y-77615500D01*
X96777474Y-77615500D01*
X96777475Y-77615500D01*
X96917485Y-77577984D01*
X96917487Y-77577982D01*
X96917489Y-77577982D01*
X97043010Y-77505512D01*
X97043010Y-77505511D01*
X97043015Y-77505509D01*
X97145509Y-77403015D01*
X97178931Y-77345127D01*
X97217982Y-77277489D01*
X97217982Y-77277487D01*
X97217984Y-77277485D01*
X97255500Y-77137475D01*
X97255500Y-76992525D01*
X100554500Y-76992525D01*
X100554500Y-77137475D01*
X100555676Y-77141863D01*
X100592017Y-77277489D01*
X100664487Y-77403010D01*
X100664489Y-77403012D01*
X100664491Y-77403015D01*
X100766985Y-77505509D01*
X100766987Y-77505510D01*
X100766989Y-77505512D01*
X100892511Y-77577982D01*
X100892512Y-77577982D01*
X100892515Y-77577984D01*
X101032525Y-77615500D01*
X101032526Y-77615500D01*
X101177474Y-77615500D01*
X101177475Y-77615500D01*
X101317485Y-77577984D01*
X101317487Y-77577982D01*
X101317489Y-77577982D01*
X101443010Y-77505512D01*
X101443010Y-77505511D01*
X101443015Y-77505509D01*
X101545509Y-77403015D01*
X101578931Y-77345127D01*
X101617982Y-77277489D01*
X101617982Y-77277487D01*
X101617984Y-77277485D01*
X101655500Y-77137475D01*
X101655500Y-76992525D01*
X101617984Y-76852515D01*
X101589680Y-76803492D01*
X101589680Y-76803490D01*
X101545512Y-76726989D01*
X101545510Y-76726987D01*
X101545509Y-76726985D01*
X101443015Y-76624491D01*
X101443012Y-76624489D01*
X101443010Y-76624487D01*
X101317488Y-76552017D01*
X101317489Y-76552017D01*
X101235321Y-76530000D01*
X101177475Y-76514500D01*
X101032525Y-76514500D01*
X100978310Y-76529027D01*
X100892510Y-76552017D01*
X100766989Y-76624487D01*
X100664487Y-76726989D01*
X100592017Y-76852510D01*
X100571978Y-76927298D01*
X100554500Y-76992525D01*
X97255500Y-76992525D01*
X97217984Y-76852515D01*
X97217982Y-76852512D01*
X97217982Y-76852510D01*
X97145512Y-76726989D01*
X97145510Y-76726987D01*
X97145509Y-76726985D01*
X97043015Y-76624491D01*
X97043012Y-76624489D01*
X97043010Y-76624487D01*
X96917488Y-76552017D01*
X96917489Y-76552017D01*
X96835321Y-76530000D01*
X96777475Y-76514500D01*
X96632525Y-76514500D01*
X96578310Y-76529027D01*
X96492510Y-76552017D01*
X96366989Y-76624487D01*
X96264489Y-76726987D01*
X96240736Y-76768129D01*
X96195266Y-76809069D01*
X96134416Y-76815464D01*
X96081428Y-76784871D01*
X96069264Y-76768129D01*
X96045510Y-76726987D01*
X96045509Y-76726985D01*
X95943015Y-76624491D01*
X95943012Y-76624489D01*
X95943010Y-76624487D01*
X95817488Y-76552017D01*
X95817489Y-76552017D01*
X95735321Y-76530000D01*
X95677475Y-76514500D01*
X95532525Y-76514500D01*
X95478310Y-76529027D01*
X95392510Y-76552017D01*
X95266989Y-76624487D01*
X95164487Y-76726989D01*
X95092017Y-76852510D01*
X95071978Y-76927298D01*
X95054500Y-76992525D01*
X87625631Y-76992525D01*
X87731342Y-76938663D01*
X87731350Y-76938658D01*
X87775920Y-76906275D01*
X87179407Y-76309762D01*
X87242993Y-76292725D01*
X87357007Y-76226899D01*
X87450099Y-76133807D01*
X87515925Y-76019793D01*
X87532962Y-75956207D01*
X88129475Y-76552720D01*
X88161858Y-76508150D01*
X88161863Y-76508142D01*
X88254756Y-76325827D01*
X88317991Y-76131212D01*
X88350000Y-75929115D01*
X88350000Y-75724484D01*
X88317991Y-75522387D01*
X88254756Y-75327772D01*
X88161858Y-75145447D01*
X88129475Y-75100878D01*
X87532962Y-75697390D01*
X87515925Y-75633807D01*
X87450099Y-75519793D01*
X87357007Y-75426701D01*
X87242993Y-75360875D01*
X87179407Y-75343837D01*
X87775920Y-74747324D01*
X87775920Y-74747323D01*
X87731353Y-74714943D01*
X87731348Y-74714939D01*
X87619028Y-74657710D01*
X87575763Y-74614445D01*
X87566192Y-74554013D01*
X87593969Y-74499497D01*
X87648486Y-74471719D01*
X87663973Y-74470500D01*
X105966825Y-74470500D01*
X106025016Y-74489407D01*
G37*
%TD.AperFunction*%
%TA.AperFunction,Conductor*%
G36*
X123630504Y-94146949D02*
G01*
X123658281Y-94201466D01*
X123659500Y-94216953D01*
X123659500Y-95287539D01*
X123640593Y-95345730D01*
X123591093Y-95381694D01*
X123529907Y-95381694D01*
X123480408Y-95345731D01*
X123449415Y-95303074D01*
X123449414Y-95303072D01*
X123326928Y-95180586D01*
X123186788Y-95078768D01*
X123186787Y-95078767D01*
X123186785Y-95078766D01*
X123032441Y-95000125D01*
X123032438Y-95000123D01*
X122864256Y-94945477D01*
X122814756Y-94909513D01*
X122795849Y-94851322D01*
X122814757Y-94793132D01*
X122864257Y-94757168D01*
X122879364Y-94753542D01*
X122914411Y-94747991D01*
X123109027Y-94684756D01*
X123291342Y-94591863D01*
X123291350Y-94591858D01*
X123335920Y-94559475D01*
X122739407Y-93962962D01*
X122802993Y-93945925D01*
X122917007Y-93880099D01*
X123010099Y-93787007D01*
X123075925Y-93672993D01*
X123092962Y-93609407D01*
X123630504Y-94146949D01*
G37*
%TD.AperFunction*%
%TA.AperFunction,Conductor*%
G36*
X123640593Y-91614269D02*
G01*
X123659500Y-91672460D01*
X123659500Y-92743046D01*
X123640593Y-92801237D01*
X123630504Y-92813050D01*
X123092962Y-93350590D01*
X123075925Y-93287007D01*
X123010099Y-93172993D01*
X122917007Y-93079901D01*
X122802993Y-93014075D01*
X122739407Y-92997037D01*
X123335920Y-92400524D01*
X123335920Y-92400523D01*
X123291353Y-92368143D01*
X123291348Y-92368139D01*
X123109027Y-92275243D01*
X122914413Y-92212009D01*
X122879361Y-92206457D01*
X122824845Y-92178679D01*
X122797068Y-92124162D01*
X122806640Y-92063730D01*
X122849905Y-92020466D01*
X122864256Y-92014521D01*
X122867698Y-92013402D01*
X122867701Y-92013402D01*
X123032445Y-91959873D01*
X123186788Y-91881232D01*
X123326928Y-91779414D01*
X123449414Y-91656928D01*
X123480408Y-91614267D01*
X123529907Y-91578305D01*
X123591093Y-91578305D01*
X123640593Y-91614269D01*
G37*
%TD.AperFunction*%
%TD*%
M02*
